SplineFontDB: 3.2
FontName: Dakkhinee-Regular
FullName: Dakkhinee Regular
FamilyName: Dakkhinee
Weight: Regular
Copyright: Copyright 2024 The Dakkhinee Project Authors (https://github.com/mitradranirban/font-dakkhinee) 
FontLog: "muktiregular3.0beta1+AAoACgAA-Completed required glyphsets"
Version: 1.000
ItalicAngle: 0
UnderlinePosition: -366
UnderlineWidth: 73
Ascent: 800
Descent: 200
InvalidEm: 0
LayerCount: 2
Layer: 0 0 "Back" 1
Layer: 1 0 "Fore" 0
XUID: [1021 498 675293083 873107]
BaseVert: 2 'hang' 'romn'
BaseScript: 'beng' 0  1024 0
BaseScript: 'deva' 0  1024 0
BaseScript: 'latn' 1  0 0
FSType: 0
OS2Version: 4
OS2_WeightWidthSlopeOnly: 0
OS2_UseTypoMetrics: 1
CreationTime: 1138213189
ModificationTime: 1722338389
PfmFamily: 81
TTFWeight: 400
TTFWidth: 5
LineGap: 0
VLineGap: 0
OS2TypoAscent: 1400
OS2TypoAOffset: 0
OS2TypoDescent: -600
OS2TypoDOffset: 0
OS2TypoLinegap: 0
OS2WinAscent: 1400
OS2WinAOffset: 0
OS2WinDescent: 600
OS2WinDOffset: 0
HheadAscent: 1400
HheadAOffset: 0
HheadDescent: -600
HheadDOffset: 0
OS2CapHeight: 800
OS2XHeight: 508
OS2Vendor: 'anir'
OS2UnicodeRanges: 80018007.00002002.00000000.00000000
Lookup: 1 0 0 "'init' Initial Forms in Bengali2 lookup 0" { "'init' Initial Forms in Bengali lookup 0 subtable"  } ['init' ('bng2' <'ASM ' 'dflt' > ) ]
Lookup: 4 0 0 "'nukt' Nukta Forms in Bengali2 lookup 1" { "'nukt' Nukta Forms in Bengali lookup 1 subtable"  } ['nukt' ('bng2' <'ASM ' 'dflt' > ) ]
Lookup: 4 0 0 "'akhn' Akhand in Bengali2 lookup 2" { "'akhn' Akhand in Bengali lookup 2 subtable"  } ['akhn' ('bng2' <'dflt' > ) ]
Lookup: 4 0 0 "'rphf' Reph Form in Bengali2 lookup 3" { "'rphf' Reph Form in Bengali lookup 3 subtable"  } ['rphf' ('bng2' <'dflt' > ) 'rphf' ('bng2' <'ASM ' > ) ]
Lookup: 4 0 0 "'blwf' Below Base Forms in Bengali2 lookup 4" { "'blwf' Below Base Forms in Bengali2 lookup 4 subtable"  } ['blwf' ('bng2' <'ASM ' 'dflt' > ) ]

StartChar: .notdef
Encoding: 65536 -1 0
GlifName: _notdef
Width: 431
Flags: HW
HStem: 0 33<65 333> 633 33<65 333>
VStem: 33 32<33 633> 333 33<33 633>
LayerCount: 2
Fore
SplineSet
33 0 m 1
 33 666 l 1
 366 666 l 1
 366 0 l 1
 33 0 l 1
65 33 m 1
 333 33 l 1
 333 633 l 1
 65 633 l 1
 65 33 l 1
EndSplineSet
Validated: 1
EndChar

StartChar: comma
Encoding: 44 44 3
GlifName: comma
Width: 359
VWidth: 1074
GlyphClass: 2
Flags: HW
HStem: -83 233<153 160>
VStem: 100 160
LayerCount: 2
Fore
SplineSet
136 80 m 1
 153 150 l 1
 260 150 l 1
 160 -83 l 1
 100 -83 l 1
 136 80 l 1
EndSplineSet
Validated: 1
EndChar

StartChar: danda
Encoding: 2404 2404 4
GlifName: danda
Width: 254
GlyphClass: 2
Flags: HW
VStem: 60 148<41 496>
LayerCount: 2
Fore
SplineSet
60 -113 m 1
 60 496 l 1
 205 676 l 1
 208 41 l 1
 60 -113 l 1
EndSplineSet
Validated: 1
EndChar

StartChar: doubledanda
Encoding: 2405 2405 5
GlifName: doubledanda
Width: 625
GlyphClass: 2
Flags: HW
VStem: 60 148<41 496> 348 148<41 496>
LayerCount: 2
Fore
SplineSet
60 -113 m 1
 60 496 l 1
 205 676 l 1
 208 41 l 1
 60 -113 l 1
348 -113 m 1
 348 496 l 1
 493 676 l 1
 496 41 l 1
 348 -113 l 1
EndSplineSet
Validated: 1
EndChar

StartChar: u0981
Encoding: 2433 2433 6
GlifName: u0981
Width: 0
VWidth: 1024
GlyphClass: 4
Flags: HW
HStem: 986 32<-273.824 -148.2> 1084 32<-240.482 -185.518> 1181 33<-241.402 -184.884>
VStem: -390 52<1069.63 1198.22> -278 32<1121.52 1176.12> -180 32<1121.52 1176.12> -84 59<1069.2 1196.59>
LayerCount: 2
Fore
SplineSet
-213 1084 m 256
 -249 1084 -278 1113 -278 1149 c 0
 -278 1185 -249 1214 -213 1214 c 256
 -175 1214 -148 1185 -148 1149 c 256
 -148 1113 -177 1084 -213 1084 c 256
-213 1181 m 256
 -231 1181 -246 1167 -246 1149 c 0
 -246 1131 -231 1116 -213 1116 c 256
 -195 1116 -180 1131 -180 1149 c 256
 -180 1167 -195 1181 -213 1181 c 256
-338 1132 m 0
 -338 1067 -278 1018 -211 1018 c 256
 -144 1018 -84 1067 -84 1132 c 0
 -84 1153 -91 1173 -104 1194 c 0
 -117 1215 -135 1234 -160 1252 c 1
 -110 1272 l 1
 -67 1241 -25 1196 -25 1132 c 0
 -25 1044 -119 986 -211 986 c 256
 -262 986 -299 1001 -335 1029 c 0
 -371 1057 -390 1092 -390 1132 c 0
 -390 1157 -383 1182 -368 1206 c 0
 -353 1230 -339 1252 -312 1272 c 1
 -262 1252 l 1
 -299 1225 -338 1186 -338 1132 c 0
EndSplineSet
Validated: 1
Substitution2: "Single Substitution Lookup 27" u0981.salt
EndChar

StartChar: u0982
Encoding: 2434 2434 7
GlifName: u0982
Width: 539
VWidth: 1024
GlyphClass: 2
Flags: HW
HStem: 174 78<87.2388 170.081> 357 118<112.434 218.761> 524 56<185.966 280.034> 710 74<185.966 281.029>
VStem: 1 75<263.046 346.031> 103 65<598.19 692.114> 181 78<263.239 346.081> 298 65<598.19 694.009> 429 82<8.72903 222.95>
LayerCount: 2
Fore
SplineSet
165 341 m 0
 155 351 143 357 129 357 c 0
 115 357 102 351 92 341 c 256
 82 331 76 319 76 305 c 0
 76 291 82 278 92 268 c 256
 102 258 115 252 129 252 c 0
 143 252 155 258 165 268 c 256
 175 278 181 291 181 305 c 0
 181 319 175 331 165 341 c 0
404 396 m 0
 452 348 484 291 500 222 c 0
 507 190 511 158 511 125 c 0
 511 87 506 49 496 10 c 1
 395 -91 l 1
 417 -29 429 30 429 89 c 0
 429 109 427 128 425 147 c 0
 415 224 387 285 340 332 c 0
 321 351 302 366 281 377 c 0
 260 388 240 394 220 396 c 1
 245 371 259 341 259 305 c 0
 259 269 245 238 220 213 c 256
 195 188 165 174 129 174 c 0
 93 174 62 188 37 213 c 256
 14 236 1 264 1 299 c 0
 1 301 1 304 1 307 c 0
 3 345 18 378 46 406 c 0
 92 452 149 475 215 475 c 0
 218 475 220 475 223 475 c 0
 293 473 353 447 404 396 c 0
103 654 m 0
 103 690 116 721 141 746 c 0
 166 771 197 784 233 784 c 256
 278 784 300 771 325 746 c 0
 350 721 363 690 363 654 c 256
 363 618 350 587 325 562 c 0
 300 537 269 524 233 524 c 256
 197 524 166 537 141 562 c 0
 116 587 103 618 103 654 c 0
168 645 m 0
 168 627 174 612 187 599 c 0
 200 586 215 580 233 580 c 256
 251 580 266 586 279 599 c 0
 292 612 298 627 298 645 c 256
 298 663 290 676 279 691 c 0
 266 709 251 710 233 710 c 256
 215 710 200 704 187 691 c 0
 174 678 168 663 168 645 c 0
EndSplineSet
Validated: 1
EndChar

StartChar: u0983
Encoding: 2435 2435 8
GlifName: u0983
Width: 423
VWidth: 1024
GlyphClass: 2
Flags: HW
HStem: 0 65<185.966 280.034> 195 65<185.966 280.034> 325 65<185.966 280.034> 520 65<185.966 279.711>
VStem: 103 65<82.9656 177.034 407.966 502.034> 298 65<82.9656 177.034 407.966 502.034>
LayerCount: 2
Fore
SplineSet
103 455 m 0
 103 491 116 522 141 547 c 0
 166 572 197 585 233 585 c 256
 278 585 300 572 325 547 c 0
 350 522 363 491 363 455 c 256
 363 419 350 388 325 363 c 0
 300 338 269 325 233 325 c 256
 197 325 166 338 141 363 c 0
 116 388 103 419 103 455 c 0
168 455 m 0
 168 437 174 422 187 409 c 0
 200 396 215 390 233 390 c 256
 251 390 266 396 279 409 c 0
 292 422 298 437 298 455 c 256
 298 473 292 488 279 501 c 0
 266 514 251 520 233 520 c 256
 215 520 200 514 187 501 c 0
 174 488 168 473 168 455 c 0
103 130 m 0
 103 166 116 197 141 222 c 0
 166 247 197 260 233 260 c 256
 269 260 300 247 325 222 c 0
 350 197 363 166 363 130 c 256
 363 94 350 63 325 38 c 0
 300 13 269 0 233 0 c 256
 197 0 166 13 141 38 c 0
 116 63 103 94 103 130 c 0
168 130 m 0
 168 112 174 97 187 84 c 0
 200 71 215 65 233 65 c 256
 251 65 266 71 279 84 c 0
 292 97 298 112 298 130 c 256
 298 148 292 163 279 176 c 0
 266 189 251 195 233 195 c 256
 215 195 200 189 187 176 c 0
 174 163 168 148 168 130 c 0
EndSplineSet
Validated: 1
EndChar

StartChar: u09a4
Encoding: 2468 2468 9
GlifName: u09a4
Width: 898
GlyphClass: 2
Flags: HW
HStem: 41 90<319.758 541.923> 384 95<186.765 255.869> 597 107<568.264 668.603> 610 95<187.535 247.245> 740 78<77 703.423> 1003 20G<761 765>
VStem: 58 100<280.754 425.5> 266 98<486.724 598.28> 443 107<504.291 579.515> 719 97<320.977 532.123> 770 78<833.31 942.309>
LayerCount: 2
Fore
SplineSet
735 998 m 2xcfa0
 747 1012 759 1022 763 1023 c 0
 767 1023 784 1009 801 993 c 0
 825 969 834 955 841 929 c 0
 846 913 848 897 848 882 c 0
 848 843 833 808 803 780 c 0
 763 741 768 742 471 740 c 2
 77 738 l 1
 77 778 l 1
 77 818 l 1
 461 818 l 2
 744 818 744 818 762 852 c 0
 766 862 770 876 770 885 c 0
 770 908 751 945 732 961 c 2
 715 975 l 1
 735 998 l 2xcfa0
633 423 m 1
 600 424 l 1
 503 427 l 1
 486 444 l 2
 463 468 444 513 443 543 c 0
 443 632 521 704 615 704 c 0xefc0
 621 704 627 704 633 703 c 0
 678 699 712 682 746 645 c 0
 792 595 816 520 816 427 c 0
 816 210 665 53 446 42 c 0
 438 42 430 41 422 41 c 0
 315 41 232 73 163 142 c 0
 93 213 58 304 58 420 c 0
 58 431 58 441 59 452 c 0
 66 579 111 670 181 696 c 0
 196 702 212 705 227 705 c 0xdfc0
 274 705 317 677 344 629 c 0
 362 598 364 589 364 544 c 0
 363 505 360 487 350 467 c 0
 333 434 293 399 263 389 c 0
 253 386 239 384 224 384 c 0
 204 384 182 387 168 392 c 0
 165 393 163 394 162 394 c 0
 159 394 158 392 158 385 c 0
 158 380 159 371 160 359 c 0
 166 301 181 265 215 228 c 0
 274 164 344 131 418 131 c 0
 424 131 431 132 437 132 c 0
 529 139 593 165 632 209 c 0
 667 249 702 318 713 372 c 0
 717 390 719 409 719 428 c 0
 719 516 677 597 624 597 c 2
 623 597 l 2xefc0
 592 597 573 587 557 562 c 0
 552 555 550 548 550 542 c 0
 550 513 595 490 620 446 c 2
 633 423 l 1
244 599 m 0
 237 606 229 610 221 610 c 0xdf80
 197 610 174 579 174 544 c 0
 174 536 175 529 177 521 c 0
 185 494 205 479 223 479 c 0
 236 479 249 487 257 503 c 0
 263 515 266 528 266 541 c 0
 266 563 258 585 244 599 c 0
EndSplineSet
Validated: 1
EndChar

StartChar: u09ce
Encoding: 2510 2510 10
GlifName: u09ce
Width: 825
VWidth: 1024
GlyphClass: 2
Flags: HW
HStem: -120 6<445 494> 172 91<316.324 539.102> 341 78<503.973 589.251> 627 91<289.985 541.3>
VStem: 107 71<372.261 527.824> 380 156<434.303 524.394> 614 91<-23.194 109.323> 627 78<455.868 565.688>
LayerCount: 2
Fore
SplineSet
242 576 m 0xfd
 199 542 178 498 178 445 c 0
 178 395 204 352 256 316 c 0
 308 280 371 263 445 263 c 0
 517 263 578 242 629 200 c 0
 680 158 705 108 705 49 c 0
 705 8 690 -29 662 -61 c 0
 634 -93 598 -113 555 -120 c 1
 445 -114 l 1
 494 -105 534 -86 566 -55 c 0
 598 -24 614 10 614 49 c 0xfe
 614 83 597 112 564 136 c 0
 531 160 492 172 445 172 c 0
 352 172 272 199 206 252 c 0
 140 305 107 370 107 445 c 0
 107 528 134 594 188 644 c 0
 242 694 315 718 406 718 c 0
 493 718 564 698 620 659 c 0
 676 620 705 570 705 510 c 0
 705 463 688 423 654 390 c 0
 620 357 578 341 529 341 c 0
 488 341 453 354 424 379 c 0
 395 404 380 435 380 471 c 0
 380 492 388 511 403 526 c 0
 418 541 437 549 458 549 c 256
 479 549 498 543 513 530 c 0
 528 517 536 502 536 484 c 0
 536 472 533 460 527 450 c 0
 521 440 513 432 503 426 c 1
 507 424 510 422 514 421 c 0
 518 420 521 419 523 419 c 0
 552 419 576 428 596 446 c 0
 616 464 627 485 627 510 c 0
 627 545 607 574 566 595 c 0
 525 616 471 627 403 627 c 0
 338 627 285 610 242 576 c 0xfd
EndSplineSet
Validated: 1
Colour: ff0000
EndChar

StartChar: zwnj
Encoding: 8204 8204 11
GlifName: zwnj
Width: 0
GlyphClass: 2
Flags: HW
VStem: -13 25<12 683>
LayerCount: 2
Fore
SplineSet
-12 684 m 1
 13 683 l 1
 12 12 l 1
 -13 12 l 1
 -12 684 l 1
EndSplineSet
Validated: 1
EndChar

StartChar: zwj
Encoding: 8205 8205 12
GlifName: zwj
Width: 0
GlyphClass: 2
Flags: HW
VStem: -19 39<15 601>
LayerCount: 2
Fore
SplineSet
-19 10 m 1
 -19 605 l 1
 -102 532 l 1
 -131 542 l 1
 -34 630 l 1
 -146 688 l 1
 -126 723 l 1
 0 645 l 1
 93 723 l 1
 123 698 l 1
 20 625 l 1
 127 557 l 1
 118 537 l 1
 20 601 l 1
 20 15 l 1
 -19 10 l 1
EndSplineSet
Validated: 1
EndChar

StartChar: quotedblleft
Encoding: 8220 8220 13
GlifName: quotedblleft
Width: 374
GlyphClass: 2
Flags: HW
HStem: 540 211<19 61 179 220>
VStem: -19 247
LayerCount: 2
Fore
SplineSet
69 751 m 1
 61 540 l 1
 -19 540 l 1
 19 751 l 1
 69 751 l 1
228 751 m 1
 220 540 l 1
 140 540 l 1
 179 751 l 1
 228 751 l 1
EndSplineSet
Validated: 1
EndChar

StartChar: euro
Encoding: 8364 8364 15
GlifName: euro
Width: 519
GlyphClass: 2
Flags: HW
HStem: 288 24<6 183 261 494> 386 24<6 188 270 493> 574 53<414.391 480.849>
LayerCount: 2
Fore
SplineSet
270 410 m 1
 493 410 l 1
 493 385 l 1
 256 386 l 1
 249 374 l 1
 244 330 l 1
 248 318 253 304 260 289 c 1
 251 312 l 1
 494 312 l 1
 494 287 l 1
 261 288 l 1
 270 269 280 248 293 225 c 0
 316 184 375 129 469 61 c 1
 464 12 l 2
 463 12 462 12 461 12 c 0
 451 12 434 20 409 37 c 0
 395 46 378 58 359 73 c 0
 267 144 236 190 194 287 c 1
 5 288 l 1
 6 314 l 1
 183 313 l 1
 176 330 l 1
 176 347 182 368 193 394 c 1
 188 386 l 1
 4 386 l 1
 6 409 l 1
 200 410 l 1
 207 424 215 438 225 454 c 0
 291 563 376 620 479 627 c 1
 493 574 l 1
 454 571 415 556 376 532 c 0
 343 511 308 471 270 410 c 1
EndSplineSet
Validated: 1
EndChar

StartChar: uni25CC
Encoding: 9676 9676 16
GlifName: uni25C_C_
Width: 845
VWidth: 1024
GlyphClass: 2
Flags: HW
HStem: 0 94<384.279 461.037> 40 95<231.963 308.721 536.279 613.037> 152 94<121.279 198.721 647.963 724.721> 304 94<79.9629 156.721 688.279 765.721> 456 94<121.279 198.721 647.963 724.721> 568 94<231.963 308.721 536.279 613.037> 608 94<384.279 461.037>
VStem: 72 93<312.279 389.721> 113 94<160.279 237.721 464.279 541.721> 224 93<47.6885 126.721 576.279 653.721> 376 93<8.2793 85.7207 616.279 693.721> 528 93<47.6885 126.721 576.279 653.721> 640 93<160.279 237.721 464.279 541.721> 680 94<312.279 389.721>
LayerCount: 2
Fore
SplineSet
376 655 m 0x3a70
 376 680 398 702 423 702 c 256
 448 702 469 680 469 655 c 256
 469 630 448 608 423 608 c 256
 398 608 376 630 376 655 c 0x3a70
376 47 m 0
 376 72 398 94 423 94 c 256
 448 94 469 72 469 47 c 256
 469 22 448 0 423 0 c 256xb870
 398 0 376 22 376 47 c 0
72 351 m 0x3970
 72 376 93 398 118 398 c 256
 143 398 165 376 165 351 c 256
 165 326 143 304 118 304 c 256
 93 304 72 326 72 351 c 0x3970
680 351 m 0x3874
 680 376 702 398 727 398 c 256
 752 398 774 376 774 351 c 256
 774 326 752 304 727 304 c 256
 702 304 680 326 680 351 c 0x3874
113 199 m 0x38f0
 113 224 135 246 160 246 c 256
 185 246 207 224 207 199 c 256
 207 174 185 152 160 152 c 256
 135 152 113 174 113 199 c 0x38f0
640 503 m 0x3878
 640 528 661 550 686 550 c 256
 711 550 733 528 733 503 c 256
 733 478 711 456 686 456 c 256
 661 456 640 478 640 503 c 0x3878
528 615 m 0
 528 640 550 662 575 662 c 256
 600 662 621 640 621 615 c 256
 621 590 600 568 575 568 c 256x3c70
 550 568 528 590 528 615 c 0
224 88 m 0
 224 113 245 135 270 135 c 256
 295 135 317 113 317 88 c 0
 317 62 296 40 270 40 c 256x7870
 244 40 224 62 224 88 c 0
113 503 m 0x38f0
 113 528 135 550 160 550 c 256
 185 550 207 528 207 503 c 256
 207 478 185 456 160 456 c 256
 135 456 113 478 113 503 c 0x38f0
640 199 m 0x3878
 640 224 661 246 686 246 c 256
 711 246 733 224 733 199 c 256
 733 174 711 152 686 152 c 256
 661 152 640 174 640 199 c 0x3878
224 615 m 0
 224 640 245 662 270 662 c 256
 295 662 317 640 317 615 c 256
 317 590 295 568 270 568 c 256x3c70
 245 568 224 590 224 615 c 0
528 88 m 0
 528 113 550 135 575 135 c 256
 600 135 621 113 621 88 c 0
 621 62 601 40 575 40 c 256x7870
 549 40 528 62 528 88 c 0
EndSplineSet
Validated: 1
EndChar

StartChar: u0981.salt
Encoding: 65538 -1 18
GlifName: u0981.salt
Width: 0
GlyphClass: 2
Flags: HW
HStem: 694 35<-166.822 -80.6005> 749 62<-148.67 -84.5241>
VStem: -221 34<748.888 789.646> -159 76<751.804 801.671> -58 37<750.25 791.909>
LayerCount: 2
Fore
SplineSet
-83 779 m 0
 -83 778 -83 778 -83 778 c 2
 -83 760 -101 749 -123 749 c 0
 -143 749 -159 763 -159 780 c 0
 -159 787 -156 795 -149 802 c 0
 -142 808 -133 811 -123 811 c 0
 -100 811 -83 801 -83 779 c 0
-117 694 m 0
 -175 694 -221 720 -221 778 c 1
 -216 786 -212 790 -207 790 c 0
 -202 790 -195 787 -187 781 c 1
 -183 757 -159 729 -130 729 c 0
 -129 729 -127 729 -126 729 c 0
 -80 731 -73 750 -58 786 c 1
 -51 790 -46 792 -41 792 c 0
 -33 792 -26 787 -21 778 c 1
 -27 735 -55 707 -104 695 c 0
 -109 695 -113 694 -117 694 c 0
EndSplineSet
Validated: 1
EndChar

StartChar: u099c_u09cd_u099e.akhn
Encoding: 65539 -1 19
GlifName: u099c_u09cd_u099e.akhn
Width: 858
GlyphClass: 3
Flags: HW
HStem: 28 52<296.089 443.898> 69 59<647.923 743.434> 227 56<660.704 729.25> 610 63<-13 292 391 859>
VStem: 23 59<412.65 526.123> 202 61<350.441 504.575> 524 66<209.187 292.117> 749 59<133.547 213.721 303.264 381.211>
AnchorPoint: "Anchor-0" 441 675 basechar 0
AnchorPoint: "Anchor-1" 455 41 basechar 0
LayerCount: 2
Fore
SplineSet
747 173 m 0x7f
 747 206 721 227 683 227 c 1
 668 232 660 242 660 255 c 0
 660 269 667 280 682 283 c 0
 713 289 749 309 749 346 c 0
 749 373 729 388 690 390 c 1
 656 383 632 371 615 353 c 1
 602 337 l 1
 584 307 l 2
 582 303 579 299 576 293 c 1
 585 274 590 254 590 232 c 0
 590 228 590 224 590 220 c 0
 590 216 589 213 588 209 c 1
 609 183 627 165 640 155 c 0
 656 142 685 128 709 128 c 0
 728 128 744 137 747 163 c 0
 747 166 747 169 747 173 c 0x7f
344 577 m 1
 305 556 263 480 263 419 c 0
 263 381 276 353 302 335 c 1
 428 392 l 1
 391 479 363 540 344 577 c 1
807 170 m 0
 807 121 776 69 714 69 c 0x7f
 674 69 634 86 594 120 c 0
 582 130 572 140 563 150 c 1
 536 108 511 79 489 62 c 0
 458 39 424 28 375 28 c 0
 280 28 197 85 126 199 c 0
 67 295 33 397 23 506 c 1
 29 521 38 528 50 528 c 0
 59 528 70 523 82 515 c 1
 97 408 131 310 184 223 c 0
 242 128 304 80 370 80 c 0xbf
 409 80 448 96 483 134 c 0
 512 165 524 202 524 241 c 0
 524 286 505 322 468 349 c 1
 455 345 428 330 387 306 c 0
 353 286 325 276 304 276 c 0
 293 276 282 278 271 283 c 1
 225 322 202 370 202 427 c 0
 202 495 242 571 292 610 c 1
 -13 610 l 1
 -13 673 l 1
 859 673 l 1
 859 610 l 1
 391 610 l 1
 484 405 l 1
 507 394 528 377 546 355 c 1
 568 390 596 416 629 434 c 0
 651 446 673 451 695 451 c 0
 752 451 808 403 808 345 c 0
 808 311 793 283 763 259 c 1
 792 236 807 206 807 170 c 0
EndSplineSet
Validated: 1
LCarets2: 2 0 0
Ligature2: "'akhn' Akhand in Bengali lookup 2 subtable" u099c u09cd u099e
EndChar

StartChar: u0995_u09cd_u09b7.akhn
Encoding: 65540 -1 20
GlifName: u0995_u09cd_u09b7.akhn
Width: 816
GlyphClass: 3
Flags: HW
HStem: 184 46<613.995 652.888> 368 42<24.7236 57.9788> 610 63<-12 110.52 169 337 392.164 488 545 831>
VStem: 128 59<512.925 591.785> 287 66<282.331 404.571> 331 60<541.367 609.508> 488 57<133 408 494 610> 687 64<260.143 343.868>
AnchorPoint: "Anchor-0" 455 679 basechar 0
AnchorPoint: "Anchor-1" 519 45 basechar 0
LayerCount: 2
Fore
SplineSet
405 610 m 1xf7
 396 600 391 590 391 580 c 0
 391 553 424 524 488 494 c 1
 488 610 l 1
 405 610 l 1xf7
183 514 m 1
 268 503 353 435 353 343 c 0xfb
 353 319 347 294 335 269 c 1
 488 133 l 1
 488 430 l 1
 384 477 331 526 331 578 c 0
 331 588 333 599 337 610 c 1
 169 610 l 1
 181 591 187 570 187 548 c 0
 187 538 186 527 183 514 c 1
200 155 m 1
 183 158 166 170 166 191 c 0
 166 197 168 202 172 206 c 0
 248 249 287 294 287 342 c 0
 287 400 234 456 175 456 c 0
 168 456 161 455 154 453 c 1
 133 420 103 392 62 368 c 0
 61 368 59 368 58 368 c 0
 37 368 24 375 24 397 c 0
 24 402 25 406 28 410 c 1
 67 430 128 490 128 545 c 0
 128 578 107 600 67 610 c 1
 -12 610 l 1
 -12 673 l 1
 831 673 l 1
 831 610 l 1
 545 610 l 1
 545 471 l 1
 603 451 651 427 689 396 c 0
 730 363 751 330 751 297 c 0
 751 254 715 216 643 185 c 0
 642 185 640 184 639 184 c 0
 625 184 612 201 612 217 c 0
 612 222 613 226 614 230 c 1
 663 251 687 275 687 300 c 0
 687 339 640 375 545 408 c 1
 545 68 l 2
 545 54 522 41 502 41 c 0
 494 41 487 43 483 47 c 2
 294 221 l 1
 269 197 237 175 200 155 c 1
EndSplineSet
Validated: 1
Ligature2: "'akhn' Akhand in Bengali lookup 2 subtable" u0995 u09cd u09b7
EndChar

StartChar: u09b9_u09cd_u09ae.cjct
Encoding: 65541 -1 21
GlifName: u09b9_u09cd_u09ae.cjct
Width: 783
GlyphClass: 3
Flags: HW
HStem: 427 55<294.359 466> 464 55<530.167 642.701> 610 63<-6 106.448 156 466 528 790>
VStem: 123 58<529.012 592.947> 284 58<294.789 422.919> 466 62<170 431 502 610> 662 51<108.965 446.448>
AnchorPoint: "Anchor-0" 373 681 basechar 0
AnchorPoint: "Anchor-1" 505 85 basechar 0
LayerCount: 2
Fore
SplineSet
466 170 m 1xbe
 466 431 l 1
 452 428 430 427 407 427 c 0
 379 427 348 429 324 431 c 1
 336 404 342 378 342 353 c 0
 342 336 339 320 334 305 c 1
 466 170 l 1xbe
268 501 m 1
 319 488 364 482 404 482 c 0
 426 482 447 484 466 488 c 1
 466 610 l 1
 156 610 l 1
 173 583 181 560 181 541 c 0
 181 539 181 537 181 535 c 0
 181 533 180 532 180 530 c 1
 215 527 245 517 268 501 c 1
66 372 m 1
 50 372 30 390 30 409 c 0
 30 413 31 416 33 419 c 0
 71 435 123 495 123 546 c 0
 123 589 92 610 30 610 c 2
 -6 610 l 1
 -6 673 l 1
 790 673 l 1
 790 610 l 1
 528 610 l 1
 528 502 l 1
 566 513 596 519 618 519 c 0
 636 519 650 516 660 509 c 0
 696 480 715 422 715 335 c 1
 713 240 l 1
 713 157 729 101 760 71 c 0
 762 67 763 63 763 59 c 0
 763 44 746 32 726 32 c 0
 724 32 721 32 719 32 c 1
 688 59 667 108 662 179 c 0
 658 238 658 297 656 358 c 0
 654 419 645 454 626 462 c 0
 623 463 619 464 613 464 c 0x7e
 611 464 583 458 528 445 c 1
 528 97 l 1
 466 84 l 1
 308 251 l 1
 279 221 243 198 200 181 c 1
 182 186 174 197 174 213 c 0
 174 219 175 224 178 230 c 1
 249 252 284 294 284 355 c 0
 284 419 235 472 170 472 c 0
 169 472 167 472 166 472 c 0
 165 472 163 471 162 471 c 0
 147 438 115 405 66 372 c 1
EndSplineSet
Validated: 1
Substitution2: "'salt' Stylistic Alternatives in Bengali2 lookup 17-1" u09b9_u09cd_u09ae.salt
Ligature2: "'cjct' Conjunct Forms in Bengali2 lookup 13" u09b9 u09cd u09ae
EndChar

StartChar: u09a4_u09cd_u09a4.cjct
Encoding: 65542 -1 22
GlifName: u09a4_u09cd_u09a4.cjct
Width: 705
GlyphClass: 3
Flags: HW
HStem: 31 60<339.907 514.838> 519 57<359.07 481.17> 610 63<-12 704>
VStem: 19 55<511.333 555.688> 267 59<349.764 486.513> 525 58<359.013 475.294> 553 60<128.867 255.444>
AnchorPoint: "Anchor-0" 399 675 basechar 0
AnchorPoint: "Anchor-1" 475 31 basechar 0
LayerCount: 2
Fore
SplineSet
267 419 m 0xfc
 267 503 332 576 415 576 c 0
 460 576 499 561 532 531 c 1
 546 515 l 1
 570 486 583 453 583 417 c 0xfc
 583 382 571 350 548 321 c 1
 591 283 613 239 613 189 c 0
 613 90 523 31 419 31 c 0
 367 31 309 55 245 104 c 0
 219 125 196 146 176 168 c 0
 117 235 19 383 19 528 c 0
 19 546 25 557 43 557 c 0
 56 557 66 550 74 536 c 1
 116 388 l 1
 133 336 157 290 187 249 c 0
 265 144 346 91 430 91 c 0
 505 91 553 124 553 190 c 0xfa
 553 227 539 258 507 276 c 0
 486 287 474 297 474 310 c 0
 474 321 480 336 496 351 c 0
 514 369 525 389 525 414 c 0
 525 471 475 519 416 519 c 0
 406 519 395 520 386 515 c 0
 345 496 326 464 326 425 c 0
 326 407 331 386 339 362 c 0
 339 360 339 358 339 356 c 0
 339 338 330 330 311 330 c 0
 301 330 293 334 287 342 c 0
 274 366 267 392 267 419 c 0xfc
-12 673 m 1
 704 673 l 1
 704 610 l 1
 -12 610 l 1
 -12 673 l 1
EndSplineSet
Validated: 33
Ligature2: "'cjct' Conjunct Forms in Bengali2 lookup 13" u09a4 u09cd u09a4
EndChar

StartChar: u099c_u09cd_u099e_u09cd.haln
Encoding: 65578 -1 58
GlifName: u099c_u09cd_u099e_u09cd.haln
Width: 868
GlyphClass: 3
Flags: HW
HStem: 28 52<303.089 450.898> 69 59<654.492 748.999> 227 56<667.704 736.25> 610 63<-6 299 398 866>
VStem: 30 59<412.65 526.123> 209 61<350.441 504.814> 531 66<209.187 292.117> 754 60<131.349 214.902 302.102 381.774>
LayerCount: 2
Fore
SplineSet
487 -0 m 1x3f
 652 -121 l 1
 620 -164 l 1
 452 -38 l 1
 487 -0 l 1x3f
754 173 m 0
 754 206 728 227 690 227 c 1
 675 232 667 242 667 255 c 0
 667 269 674 280 689 283 c 0
 720 289 756 309 756 346 c 0
 756 373 736 388 697 390 c 1
 663 383 639 371 622 353 c 2
 608 337 l 1
 591 307 l 2
 589 303 586 299 583 293 c 1
 592 274 597 254 597 232 c 0
 597 228 597 224 597 220 c 0
 597 216 596 213 595 209 c 1
 616 183 634 165 647 155 c 0
 663 142 692 128 716 128 c 0x7f
 735 128 750 137 753 163 c 0
 753 166 754 169 754 173 c 0
351 577 m 1
 311 555 270 482 270 419 c 0
 270 381 283 353 309 335 c 1
 435 392 l 1
 398 479 370 540 351 577 c 1
814 170 m 0
 814 121 783 69 721 69 c 0x7f
 681 69 641 86 601 120 c 0
 589 130 579 140 570 150 c 1
 543 108 518 79 496 62 c 0
 465 39 431 28 382 28 c 0
 287 28 204 85 133 199 c 0
 74 295 40 397 30 506 c 1
 36 521 45 528 57 528 c 0
 66 528 77 523 89 515 c 1
 104 408 138 310 191 223 c 0
 249 128 311 80 377 80 c 0xbf
 416 80 455 96 490 134 c 0
 519 165 531 202 531 241 c 0
 531 286 512 322 475 349 c 1
 462 345 435 330 394 306 c 0
 360 286 332 276 311 276 c 0
 300 276 289 278 278 283 c 1
 232 322 209 370 209 427 c 0
 209 495 249 571 299 610 c 1
 -6 610 l 1
 -6 673 l 1
 866 673 l 1
 866 610 l 1
 398 610 l 1
 491 405 l 1
 514 394 535 377 553 355 c 1
 575 390 603 416 636 434 c 0
 658 446 680 451 702 451 c 0
 759 451 815 403 815 345 c 0
 815 311 800 283 770 259 c 1
 799 236 814 206 814 170 c 0
EndSplineSet
Validated: 1
Ligature2: "'half' Half Forms in Bengali lookup 5 subtable" u099c_u09cd_u099e.akhn u09cd zwj
Ligature2: "'haln' Halant Forms in Bengali lookup 12 subtable" u099c_u09cd_u099e.akhn u09cd
EndChar

StartChar: kassa_u09cd.half
Encoding: 65579 -1 59
GlifName: kassa_u09cd.half
Width: 833
GlyphClass: 3
Flags: HW
HStem: 184 46<619.995 658.888> 368 42<30.7236 63.9788> 610 63<-6 116.52 175 343 398.164 494 551 837>
VStem: 134 59<512.925 591.785> 293 66<282.331 404.571> 337 60<541.367 609.508> 494 57<133 408 494 610> 693 64<260.143 343.868>
LayerCount: 2
Fore
SplineSet
540 0 m 1xf3
 705 -121 l 1
 673 -164 l 1
 505 -38 l 1
 540 0 l 1xf3
411 610 m 1
 402 600 397 590 397 580 c 0xf7
 397 553 430 524 494 494 c 1
 494 610 l 1
 411 610 l 1
189 514 m 1
 274 503 359 435 359 343 c 0xfb
 359 319 353 294 341 269 c 1
 494 133 l 1
 494 430 l 1
 390 477 337 526 337 578 c 0
 337 588 339 599 343 610 c 1
 175 610 l 1
 187 591 193 570 193 548 c 0
 193 538 192 527 189 514 c 1
206 155 m 1
 189 158 172 170 172 191 c 0
 172 197 174 202 178 206 c 0
 254 249 293 294 293 342 c 0
 293 400 240 456 181 456 c 0
 174 456 167 455 160 453 c 1
 139 420 109 392 68 368 c 0
 67 368 65 368 64 368 c 0
 43 368 30 375 30 397 c 0
 30 402 31 406 34 410 c 1
 73 430 134 490 134 545 c 0
 134 578 113 600 73 610 c 1
 -6 610 l 1
 -6 673 l 1
 837 673 l 1
 837 610 l 1
 551 610 l 1
 551 471 l 1
 609 451 657 427 695 396 c 0
 736 363 757 330 757 297 c 0
 757 254 721 216 649 185 c 0
 648 185 646 184 645 184 c 0
 631 184 618 201 618 217 c 0
 618 222 619 226 620 230 c 1
 669 251 693 275 693 300 c 0
 693 339 646 375 551 408 c 1
 551 68 l 2
 551 54 528 41 508 41 c 0
 500 41 493 43 489 47 c 2
 300 221 l 1
 275 197 243 175 206 155 c 1
EndSplineSet
Validated: 1
Ligature2: "'haln' Halant Forms in Bengali lookup 12 subtable" u0995_u09cd_u09b7.akhn u09cd
Ligature2: "'half' Half Forms in Bengali lookup 5 subtable" u0995_u09cd_u09b7.akhn u09cd zwj
EndChar

StartChar: u09b0_u09cd.rphf
Encoding: 65580 -1 60
GlifName: u09b0_u09cd.rphf
Width: 5
GlyphClass: 3
Flags: HW
HStem: 667 224
VStem: -146 330
AnchorPoint: "Anchor-0" -100 660 mark 0
LayerCount: 2
Fore
SplineSet
149 891 m 0
 164 891 184 882 184 865 c 0
 184 860 182 857 176 852 c 2
 -61 667 l 1
 -146 667 l 1
 138 888 l 2
 141 890 144 891 149 891 c 0
EndSplineSet
Validated: 1
Ligature2: "'rphf' Reph Form in Bengali lookup 3 subtable" u09f0 u09cd
Ligature2: "'rphf' Reph Form in Bengali lookup 3 subtable" u09b0 u09cd
EndChar

StartChar: u09af_u09cd.pstf
Encoding: 65581 -1 61
GlifName: u09af_u09cd.pstf
Width: 265
GlyphClass: 3
Flags: HW
HStem: -15 51<31.5339 95.6074> 610 63<-6 112 166.961 272>
VStem: 75 57<367.057 576.402> 146 50<83.0889 272.188>
LayerCount: 2
Fore
SplineSet
272 673 m 1
 272 610 l 1
 232 610 l 2
 207 610 184 602 163 585 c 1
 151 574 l 2
 136 559 132 524 132 494 c 0
 132 459 143 401 164 321 c 0
 185 241 196 182 196 147 c 0
 196 65 152 11 65 -15 c 1
 42 -11 31 -3 31 12 c 0
 31 21 36 29 47 36 c 1
 113 53 146 92 146 153 c 0
 146 184 135 239 111 318 c 0
 87 397 75 457 75 496 c 0
 75 542 88 580 112 610 c 1
 -6 610 l 1
 -6 673 l 1
 272 673 l 1
EndSplineSet
Validated: 1
LCarets2: 1 0
Ligature2: "'pstf' Post Base Forms in Bengali lookup 6 subtable" u09cd u09af
EndChar

StartChar: u09b0_u09cd.blwf
Encoding: 65582 -1 62
GlifName: u09b0_u09cd.blwf
Width: 131
VWidth: 1024
GlyphClass: 3
Flags: HW
HStem: -345 72<-324 -162.576>
VStem: 53 78<-53.2412 156>
LayerCount: 2
Fore
SplineSet
53 156 m 1
 131 156 l 1
 131 67 122 -10 106 -75 c 0
 90 -140 67 -190 36 -224 c 0
 1 -263 -47 -293 -110 -314 c 0
 -173 -335 -244 -345 -324 -345 c 1
 -324 -273 l 1
 -257 -273 -196 -264 -142 -245 c 0
 -88 -226 -47 -200 -18 -166 c 0
 5 -139 22 -98 34 -43 c 0
 46 12 53 79 53 156 c 1
EndSplineSet
Validated: 1
LCarets2: 1 0
Ligature2: "'blwf' Below Base Forms in Bengali2 lookup 4 subtable" u09cd u09f0
Ligature2: "'blwf' Below Base Forms in Bengali2 lookup 4 subtable" u09cd u09b0
EndChar

StartChar: u09ac_u09cd.blwf
Encoding: 65583 -1 63
GlifName: u09ac_u09cd.blwf
Width: 5
GlyphClass: 3
Flags: HW
HStem: -183 226<-101.999 -41.9899>
VStem: -102 62<-128 -12>
LayerCount: 2
Fore
SplineSet
-102 -128 m 1
 -102 -12 l 1
 -193 -61 l 1
 -102 -128 l 1
-40 -156 m 2
 -40 -171 -64 -183 -85 -183 c 0
 -92 -183 -98 -182 -102 -179 c 2
 -259 -70 l 1
 -265 -63 -268 -59 -268 -56 c 0
 -268 -53 -262 -49 -250 -42 c 2
 -102 40 l 2
 -99 42 -94 43 -88 43 c 0
 -72 43 -40 32 -40 14 c 2
 -40 -156 l 2
EndSplineSet
Validated: 1
EndChar

StartChar: u0995_u09b0_u09cd.blwf.vatu
Encoding: 65584 -1 64
GlifName: u0995_u09b0_u09cd.blwf.vatu
Width: 856
GlyphClass: 3
Flags: HW
HStem: 91 61<122.395 335.268> 109 61<335 407.744> 270 49<626.234 711.201> 440 60<605.303 710.979> 526 59<375.494 468.513> 610 63<-8 858>
VStem: 29 58<191.463 349.255> 233 58<280.867 452.555> 471 62<123 373.438 430 525.048> 727 54<333.897 412.413>
AnchorPoint: "Anchor-1" 493 20 basechar 0
LayerCount: 2
Fore
SplineSet
335 109 m 1x7fc0
 335 109 220 91 190 91 c 0
 177 91 164 92 151 94 c 0
 70 116 29 177 29 278 c 0
 29 294 29 311 31 330 c 1
 36 343 44 350 57 350 c 0
 73 350 85 343 92 328 c 1
 88 309 87 292 87 275 c 0
 87 193 122 152 193 152 c 0xbfc0
 200 152 233 157 289 165 c 0
 312 169 328 170 336 170 c 0
 392 170 437 154 471 123 c 1
 471 487 l 2
 471 513 461 526 441 526 c 0
 436 526 431 525 426 524 c 0
 336 500 291 451 291 376 c 0
 291 351 297 323 308 294 c 0
 309 291 310 287 310 284 c 0
 310 270 301 263 283 263 c 0
 271 263 261 268 253 276 c 1
 240 310 233 343 233 375 c 0
 233 488 318 568 423 583 c 0
 430 584 438 585 445 585 c 0
 481 585 506 571 521 542 c 1
 528 524 l 1
 531 513 533 502 533 489 c 2
 533 430 l 1
 572 470 l 1
 594 490 619 500 648 500 c 0
 718 500 781 451 781 382 c 0
 781 374 780 365 778 357 c 0
 763 299 721 270 652 270 c 0
 650 270 647 270 645 270 c 2
 641 270 l 1
 631 275 626 283 626 293 c 0
 626 306 632 315 645 320 c 1
 650 320 655 319 659 319 c 0
 698 319 727 342 727 382 c 0
 727 389 727 395 725 401 c 0
 709 427 688 440 664 440 c 0
 634 440 601 421 564 383 c 0
 552 371 541 359 533 347 c 1
 533 51 l 2
 533 43 526 35 512 29 c 0
 504 26 496 25 490 24 c 0
 481 24 475 26 471 31 c 0
 429 83 384 109 335 109 c 1x7fc0
858 610 m 1
 -8 610 l 1
 -8 673 l 1
 858 673 l 1
 858 610 l 1
EndSplineSet
Validated: 1
Substitution2: "'salt' Stylistic Alternatives in Bengali2 lookup 17-1" u0995_u09cd_u09b0.salt
Ligature2: "'vatu' Vattu Variants in Bengali lookup 7 subtable" u0995 u09b0_u09cd.blwf
EndChar

StartChar: u0996_u09b0_u09cd.blwf.vatu
Encoding: 65585 -1 65
GlifName: u0996_u09b0_u09cd.blwf.vatu
Width: 624
GlyphClass: 3
Flags: HW
HStem: 33 55<134.158 317.051> 473 58<80.8202 220.1> 610 63<554 632>
VStem: 24 54<146.748 192.312> 319 57<427.379 570.618> 492 62<122 610>
AnchorPoint: "Anchor-1" 531 10 basechar 0
LayerCount: 2
Fore
SplineSet
254 633 m 0
 254 652 260 663 278 663 c 0
 284 663 290 661 297 657 c 0
 350 623 376 572 376 504 c 0
 376 501 376 499 376 496 c 2
 376 491 l 1
 373 404 325 343 232 308 c 1
 491 122 l 1
 491 183 l 1
 492 183 l 1
 492 617 l 2
 492 654 510 673 546 673 c 2
 632 673 l 1
 632 610 l 1
 554 610 l 1
 554 64 l 2
 554 62 554 60 553 58 c 1
 553 41 l 2
 553 26 540 18 513 18 c 0
 503 18 496 19 491 24 c 0
 466 51 435 64 400 64 c 0
 378 64 348 58 310 47 c 0
 277 37 244 33 212 33 c 0
 115 33 53 77 24 167 c 1
 25 185 38 194 61 194 c 0
 67 194 72 193 78 191 c 1
 100 122 144 88 208 88 c 0
 228 88 250 92 275 99 c 0
 323 112 361 120 389 122 c 1
 152 297 l 1
 146 306 143 315 143 324 c 0
 143 341 150 349 163 349 c 0
 204 354 240 369 271 397 c 0
 303 426 319 461 319 499 c 0
 319 524 312 548 298 572 c 1
 269 506 224 473 162 473 c 0
 126 473 86 485 43 508 c 1
 35 515 31 523 31 533 c 0
 31 552 39 562 57 562 c 0
 60 562 64 561 67 560 c 0
 101 540 132 531 159 531 c 0
 215 531 247 565 254 633 c 0
EndSplineSet
Validated: 1
Ligature2: "'vatu' Vattu Variants in Bengali lookup 7 subtable" u0996 u09b0_u09cd.blwf
EndChar

StartChar: u0997_u09b0_u09cd.blwf.vatu
Encoding: 65586 -1 66
GlifName: u0997_u09b0_u09cd.blwf.vatu
Width: 621
GlyphClass: 3
Flags: HW
HStem: 16 55<124.88 310.627> 47 58<284.365 462.391> 418 57<115.484 208.335> 570 58<189.992 369.982> 600 63<548 626>
VStem: 17 53<129.748 175.517> 254 58<239.213 372.819> 486 62<86 461.968 535 600>
AnchorPoint: "Anchor-1" 511 -3 basechar 0
LayerCount: 2
Fore
SplineSet
207 150 m 0x77
 190 150 173 160 173 177 c 0
 173 185 178 192 185 199 c 0
 232 226 254 261 254 306 c 0
 254 366 207 418 146 418 c 0
 124 418 103 412 82 399 c 0
 73 393 64 391 56 391 c 0
 41 391 33 399 33 414 c 0
 33 418 34 422 36 427 c 0
 66 539 124 594 233 623 c 0
 253 627 273 628 291 628 c 0x77
 365 628 429 597 486 535 c 1
 486 663 l 1
 626 663 l 1
 626 600 l 1
 548 600 l 1
 548 43 l 2
 548 38 547 35 545 32 c 1
 545 23 l 2
 545 8 532 0 505 0 c 0
 495 0 488 2 483 7 c 0
 458 34 428 47 393 47 c 0x6f
 371 47 340 41 302 30 c 0
 269 20 237 16 205 16 c 0
 108 16 46 60 17 150 c 1
 18 168 30 177 53 177 c 0
 59 177 64 176 70 174 c 1
 92 105 136 71 200 71 c 0xa7
 220 71 243 75 268 82 c 0
 325 98 368 105 398 105 c 0
 426 105 454 99 483 86 c 1
 483 166 l 1
 486 166 l 1
 486 372 l 2
 486 415 475 451 452 481 c 0
 404 540 346 570 278 570 c 0
 208 570 154 538 115 474 c 1
 122 475 130 475 137 475 c 0
 240 475 312 403 312 306 c 0
 312 238 281 187 218 152 c 0
 214 151 211 150 207 150 c 0x77
EndSplineSet
Validated: 1
Ligature2: "'vatu' Vattu Variants in Bengali lookup 7 subtable" u0997 u09b0_u09cd.blwf
EndChar

StartChar: u0998_u09b0_u09cd.blwf.vatu
Encoding: 65587 -1 67
GlifName: u0998_u09b0_u09cd.blwf.vatu
Width: 545
GlyphClass: 3
Flags: HW
HStem: -9 57<109.781 312.818> 15 56<208.271 370.46> 610 63<-9 46 100.016 405 467 545>
VStem: 29 56<500.763 594.423> 405 62<122 610>
AnchorPoint: "Anchor-1" 454 -16 basechar 0
LayerCount: 2
Fore
SplineSet
85 548 m 0x38
 85 508 122 477 166 477 c 1
 208 484 l 1
 227 484 237 474 237 455 c 0
 237 448 234 441 229 435 c 2
 127 315 l 1
 405 122 l 1
 405 285 405 447 405 610 c 1
 128 610 l 1
 99 594 85 573 85 548 c 0x38
139 420 m 1
 80 428 29 475 29 543 c 0
 29 565 35 588 46 610 c 1
 -9 610 l 1
 -9 673 l 1
 545 673 l 1
 545 610 l 1
 467 610 l 1
 467 408 467 205 467 3 c 0
 467 -12 453 -19 426 -19 c 0
 415 -19 408 -17 405 -14 c 0
 387 5 363 15 334 15 c 0x78
 319 15 294 10 258 2 c 0
 223 -6 197 -9 177 -9 c 0
 134 -8 102 0 81 16 c 0
 60 32 39 63 18 110 c 1
 17 132 23 144 44 144 c 0
 53 144 63 141 72 135 c 1
 85 101 98 78 111 66 c 0
 125 54 143 48 165 48 c 0xb8
 179 48 203 52 238 59 c 0
 285 67 322 71 349 71 c 0x78
 357 71 364 71 371 70 c 1
 65 287 l 1
 56 291 51 298 51 307 c 0
 51 314 55 321 61 328 c 2
 139 420 l 1
EndSplineSet
Validated: 33
Ligature2: "'vatu' Vattu Variants in Bengali lookup 7 subtable" u0998 u09b0_u09cd.blwf
EndChar

StartChar: u0999_u09b0_u09cd.blwf.vatu
Encoding: 65588 -1 68
GlifName: u0999_u09b0_u09cd.blwf.vatu
Width: 624
GlyphClass: 3
Flags: HW
HStem: -103 45<111.256 231.041> -47 51<280.675 397.685> 38 56<294.743 405.067> 436 59<298.019 423.239> 610 63<348.672 445.337>
VStem: 223 56<342.249 449.588> 407 51<-89.8398 -56.7084 -14 40> 453 56<524.075 600.096> 544 57<173.328 314.237>
AnchorPoint: "Anchor-1" 430 -92 basechar 0
LayerCount: 2
Fore
SplineSet
436 597 m 0xfd80
 423 606 411 610 399 610 c 0
 352 610 312 552 300 516 c 0
 299 512 298 508 297 504 c 1
 326 498 347 495 362 495 c 0
 404 495 434 515 452 556 c 0
 453 559 453 562 453 565 c 0
 453 578 447 589 436 597 c 0xfd80
509 568 m 0
 509 492 438 436 359 436 c 0
 332 436 307 441 285 450 c 0
 281 450 279 435 279 403 c 0
 279 379 287 358 303 339 c 1
 447 409 l 1
 455 416 466 420 480 420 c 0
 486 420 492 419 498 418 c 1
 567 368 601 310 601 244 c 0
 601 157 531 79 458 52 c 1
 458 -68 l 2
 458 -83 446 -91 422 -91 c 0
 414 -91 409 -88 407 -84 c 0
 395 -59 377 -47 355 -47 c 0
 342 -47 322 -52 295 -63 c 0
 232 -89 189 -103 164 -103 c 0
 123 -103 85 -79 50 -30 c 1
 50 -13 51 0 65 0 c 0
 72 0 81 -3 92 -10 c 1
 109 -42 132 -58 159 -58 c 0
 173 -58 192 -52 217 -42 c 2
 285 -15 l 2
 320 -2 343 4 353 4 c 0
 369 4 387 -2 407 -14 c 1
 407 40 l 1xfe80
 399 39 391 38 383 38 c 0
 317 38 253 64 193 117 c 0
 109 190 67 288 40 410 c 0
 36 426 30 460 20 511 c 1
 22 528 31 537 46 537 c 0
 57 537 67 531 74 519 c 1
 93 415 117 335 144 278 c 0
 185 196 272 94 381 94 c 0
 461 94 544 163 544 243 c 0
 544 288 522 327 478 362 c 1
 298 265 l 1
 248 304 223 347 223 394 c 0
 223 425 225 448 230 465 c 0
 229 467 228 468 227 468 c 0
 144 506 87 561 57 633 c 0
 56 636 55 639 55 642 c 0
 55 656 67 665 84 665 c 0
 91 665 98 663 104 659 c 1
 143 593 188 547 241 522 c 1
 250 554 268 586 297 616 c 0
 328 649 365 672 403 672 c 0
 425 672 447 665 469 647 c 0
 480 638 491 625 501 610 c 1
 506 597 509 583 509 568 c 0
EndSplineSet
Validated: 1
Ligature2: "'vatu' Vattu Variants in Bengali lookup 7 subtable" u0999 u09b0_u09cd.blwf
EndChar

StartChar: u099a_u09b0_u09cd.blwf.vatu
Encoding: 65589 -1 69
GlifName: u099a_u09b0_u09cd.blwf.vatu
Width: 475
GlyphClass: 3
Flags: HW
HStem: -83 45<-31.7441 89.6973> -27 51<140.148 253.846> 33 62<136.8 219.25> 610 63<-5 70 132 486>
VStem: 70 62<99.1087 475 537.495 610> 264 51<6 77> 344 57<250.489 381.936>
AnchorPoint: "Anchor-1" 297 -77 basechar 0
LayerCount: 2
Fore
SplineSet
132 475 m 1
 132 145 l 2
 132 112 144 95 167 95 c 0
 177 95 189 99 204 107 c 0
 236 125 266 156 296 202 c 0
 328 252 344 297 344 336 c 0
 344 347 343 357 340 366 c 1
 331 381 298 398 241 415 c 0
 184 432 148 452 132 475 c 1
-93 -10 m 1
 -93 7 -92 20 -78 20 c 0
 -71 20 -62 17 -51 10 c 1
 -34 -22 -11 -38 16 -38 c 0
 30 -38 49 -33 74 -23 c 2
 142 5 l 1
 177 18 199 24 209 24 c 0
 225 24 244 18 264 6 c 1
 264 77 l 1
 239 57 213 43 186 35 c 0
 182 34 176 33 171 33 c 0
 118 33 70 79 70 133 c 2
 70 610 l 1
 -5 610 l 1
 -5 673 l 1
 486 673 l 1
 486 610 l 1
 132 610 l 1
 132 570 l 1
 151 534 182 501 227 483 c 2
 334 440 l 1
 365 426 386 406 394 383 c 0
 399 370 401 355 401 337 c 0
 401 277 379 215 333 152 c 0
 326 142 319 134 312 125 c 1
 315 126 l 1
 315 -48 l 2
 315 -63 303 -71 279 -71 c 0
 271 -71 266 -69 264 -65 c 0
 252 -40 234 -27 212 -27 c 0
 199 -27 179 -33 152 -44 c 0
 89 -70 46 -83 21 -83 c 0
 -20 -83 -58 -59 -93 -10 c 1
EndSplineSet
Validated: 1
Ligature2: "'vatu' Vattu Variants in Bengali lookup 7 subtable" u099a u09b0_u09cd.blwf
EndChar

StartChar: u099b_u09b0_u09cd.blwf.vatu
Encoding: 65590 -1 70
GlifName: u099b_u09b0_u09cd.blwf.vatu
Width: 617
GlyphClass: 3
Flags: HW
HStem: -110 45<118.959 240.422> -54 51<291.182 404.846> 252 49<156.276 241.554> 610 63<-6 85 156 616>
VStem: 94 62<302.324 524 578.749 604> 345 56<391.964 471.153> 415 51<-21 50> 477 53<316.222 449.901>
AnchorPoint: "Anchor-1" 448 -103 basechar 0
LayerCount: 2
Fore
SplineSet
156 524 m 1
 156 327 l 2
 156 310 164 301 180 301 c 0
 207 301 243 319 286 354 c 0
 325 387 345 416 345 438 c 0
 345 445 343 451 339 457 c 0
 329 473 305 482 267 488 c 0
 210 497 173 509 156 524 c 1
376 544 m 1
 467 538 530 489 530 392 c 0
 530 338 511 285 473 234 c 0
 452 206 427 184 402 167 c 0
 383 156 359 145 328 136 c 1
 406 132 487 110 570 69 c 0
 600 54 626 38 650 21 c 1
 654 12 656 6 656 -1 c 0
 656 -17 646 -25 626 -25 c 0
 625 -25 623 -25 622 -25 c 2
 618 -25 l 1
 572 7 522 31 466 50 c 1
 466 -75 l 2
 466 -90 454 -98 430 -98 c 0
 422 -98 417 -96 415 -92 c 0
 403 -67 385 -54 363 -54 c 0
 350 -54 330 -60 303 -71 c 0
 240 -97 196 -110 171 -110 c 0
 130 -110 93 -86 58 -37 c 1
 58 -20 59 -7 73 -7 c 0
 80 -7 89 -10 100 -17 c 1
 117 -49 140 -65 167 -65 c 0
 181 -65 200 -60 225 -50 c 2
 292 -22 l 1
 327 -9 350 -3 360 -3 c 0
 376 -3 395 -9 415 -21 c 1
 415 65 l 1
 352 81 270 92 172 97 c 1
 162 105 157 116 157 129 c 0
 157 140 161 147 170 152 c 1
 222 158 258 163 276 168 c 0
 311 177 342 196 370 216 c 0
 415 249 477 324 477 394 c 0
 477 439 451 468 399 482 c 1
 400 474 401 466 401 458 c 0
 401 403 374 355 320 312 c 0
 271 273 220 252 170 252 c 0
 119 252 94 275 94 320 c 2
 94 604 l 1
 85 610 l 1
 -6 610 l 1
 -6 673 l 1
 616 673 l 1
 616 612 l 1
 156 612 l 1
 156 563 271 542 338 542 c 0
 354 542 367 542 376 544 c 1
EndSplineSet
Validated: 1
Ligature2: "'vatu' Vattu Variants in Bengali lookup 7 subtable" u099b u09b0_u09cd.blwf
EndChar

StartChar: u099c_u09b0_u09cd.blwf.vatu
Encoding: 65591 -1 71
GlifName: u099c_u09b0_u09cd.blwf.vatu
Width: 665
GlyphClass: 3
Flags: HW
HStem: 38 21G<584.5 597> 49 56<144.389 359.347> 85 56<327.948 545.25> 162 56<252.315 395.918> 346 57<264.26 333.906> 610 63<-6 264 321.235 407.375 476 672>
VStem: 43 57<454.373 558.187> 189 57<409.065 479> 434 56<253.801 377.572> 537 56<134.103 395.031>
AnchorPoint: "Anchor-1" 600 39 basechar 0
LayerCount: 2
Fore
SplineSet
326 218 m 0x3fc0
 384 218 434 254 434 312 c 0
 434 337 425 363 405 388 c 1
 392 386 370 378 339 365 c 0
 311 352 289 346 274 346 c 0
 266 346 258 347 251 350 c 0
 210 375 189 410 189 455 c 0
 189 512 214 563 264 610 c 1
 -6 610 l 1
 -6 673 l 1
 672 673 l 1
 672 610 l 1
 476 610 l 1
 631 507 l 1
 645 502 652 489 652 469 c 0
 652 465 651 462 650 460 c 0
 612 411 593 345 593 262 c 0
 593 202 602 137 622 66 c 1
 618 47 607 38 587 38 c 0
 582 38 577 39 572 41 c 1
 545 70 509 85 466 85 c 0xbfc0
 439 85 399 79 345 67 c 0
 291 55 250 49 222 49 c 0
 127 49 63 97 31 192 c 1
 34 212 43 221 58 221 c 0
 66 221 76 217 86 210 c 1
 111 140 154 105 215 105 c 0x5fc0
 244 105 285 111 341 123 c 0
 397 135 439 141 468 141 c 0
 496 141 522 138 546 131 c 1
 540 200 537 247 537 274 c 0
 537 346 553 411 585 471 c 1
 389 602 l 2
 383 605 377 607 370 607 c 0
 347 607 322 593 296 566 c 0
 270 539 254 510 248 479 c 1
 246 461 l 1
 246 438 255 419 273 404 c 0
 276 403 278 403 281 403 c 0
 289 403 307 410 334 425 c 0
 361 440 386 447 407 447 c 0
 413 447 419 446 426 445 c 1
 469 419 490 377 490 320 c 0
 490 242 442 174 370 165 c 0
 357 163 344 162 332 162 c 0
 179 162 83 289 43 544 c 1
 54 555 65 560 76 560 c 0
 84 560 92 558 100 552 c 1
 117 437 149 351 195 292 c 0
 234 243 277 218 326 218 c 0x3fc0
EndSplineSet
Validated: 1
Ligature2: "'vatu' Vattu Variants in Bengali lookup 7 subtable" u099c u09b0_u09cd.blwf
EndChar

StartChar: u099d_u09b0_u09cd.blwf.vatu
Encoding: 65592 -1 72
GlifName: u099d_u09b0_u09cd.blwf.vatu
Width: 694
GlyphClass: 3
Flags: HW
HStem: 28 55<-10.3417 171.592> 60 58<151.721 260.889> 610 63<-6 347 619 705>
VStem: -120 53<142.73 187.656> 347 62<124 272 351 491 560 610> 557 62<238 610>
AnchorPoint: "Anchor-1" 383 7 basechar 0
LayerCount: 2
Fore
SplineSet
346 124 m 1x3c
 346 126 346 137 345 158 c 0
 345 166 346 173 347 178 c 1
 347 491 l 1
 106 342 l 1
 346 124 l 1x3c
261 118 m 1x7c
 35 326 l 2
 31 329 28 336 28 345 c 0
 28 358 33 368 42 373 c 2
 347 560 l 1
 347 610 l 1
 -6 610 l 1
 -6 673 l 1
 347 673 l 2
 388 673 409 652 409 610 c 2
 409 351 l 1
 557 238 l 1
 557 610 l 2
 557 652 578 673 619 673 c 2
 705 673 l 1
 705 610 l 1
 619 610 l 1
 619 162 l 2
 619 149 607 142 586 142 c 0
 573 142 564 145 557 152 c 1
 409 272 l 1
 409 57 l 2
 409 55 408 53 408 51 c 2
 408 36 l 2
 408 21 395 13 368 13 c 0
 358 13 351 15 346 20 c 0
 321 47 291 60 256 60 c 0x7c
 234 60 203 53 165 42 c 0
 132 32 100 28 68 28 c 0
 -29 28 -91 73 -120 163 c 1
 -119 181 -107 189 -84 189 c 0
 -78 189 -73 189 -67 187 c 1
 -45 118 -1 83 63 83 c 0xbc
 83 83 106 87 131 94 c 0
 188 110 231 118 261 118 c 1x7c
EndSplineSet
Validated: 1
Ligature2: "'vatu' Vattu Variants in Bengali lookup 7 subtable" u099d u09b0_u09cd.blwf
EndChar

StartChar: u099e_u09b0_u09cd.blwf.vatu
Encoding: 65593 -1 73
GlifName: u099e_u09b0_u09cd.blwf.vatu
Width: 903
GlyphClass: 3
Flags: HW
HStem: -110 45<249.256 371.039> -54 51<422.174 534.964> 106 58<126.983 370.26> 125 59<197.094 463.533> 133 60<740.16 827.638> 310 59<737.639 806.426> 493 62<723.434 826.244> 608 59<419.078 523.688>
VStem: 19 57<220.031 383.906> 254 62<331.507 516.492> 534 62<123 599.695> 545 52<-21 54.3958> 834 68<395.928 483.972> 847 67<201.941 282.119>
AnchorPoint: "Anchor-1" 564 -101 basechar 0
LayerCount: 2
Fore
SplineSet
778 555 m 0xcfd4
 840 554 902 504 902 437 c 0xcfd8
 902 402 885 370 851 342 c 1
 893 315 914 278 914 233 c 0
 914 183 886 150 831 135 c 0
 823 134 814 133 805 133 c 0
 721 133 652 195 597 320 c 1
 597 375 l 1
 616 426 635 463 653 485 c 0
 688 528 728 555 775 555 c 0
 776 555 777 555 778 555 c 0xcfd4
645 348 m 1
 670 285 725 193 801 193 c 0
 806 193 811 194 817 195 c 0
 837 208 847 223 847 241 c 0xcfc4
 847 276 799 310 760 310 c 1
 744 319 736 329 736 340 c 0
 736 351 743 361 756 369 c 1
 794 374 834 401 834 444 c 0
 834 477 813 493 770 493 c 0
 745 493 719 475 695 438 c 0
 689 429 672 399 645 348 c 1
188 -37 m 1
 188 -20 189 -7 204 -7 c 0
 211 -7 219 -10 230 -17 c 1
 247 -49 270 -65 297 -65 c 0
 311 -65 330 -60 355 -50 c 2
 423 -22 l 1
 458 -9 481 -3 491 -3 c 0
 507 -3 525 -9 545 -21 c 1
 545 37 l 1xd7d0
 540 38 536 39 534 42 c 0
 492 97 439 125 376 125 c 0xd7e0
 367 125 328 121 258 112 c 0
 228 108 207 106 197 106 c 0
 179 106 161 106 147 111 c 0
 58 142 19 197 19 312 c 0
 19 330 19 350 21 373 c 1
 30 381 40 385 49 385 c 0
 60 385 70 379 79 369 c 1
 77 334 76 313 76 306 c 0
 76 249 95 208 132 182 c 0
 149 170 171 164 196 164 c 0xe7e0
 211 164 238 167 276 174 c 0
 314 181 344 184 366 184 c 0
 427 184 483 164 534 123 c 1
 534 536 l 2
 534 584 518 608 485 608 c 0
 468 608 445 600 416 585 c 0
 350 551 316 502 316 438 c 0
 316 409 322 376 335 337 c 1
 333 320 323 311 303 311 c 0
 292 311 284 314 277 321 c 1
 262 355 254 390 254 426 c 0
 254 542 338 634 438 659 c 0
 453 664 466 667 479 667 c 0
 507 667 535 656 561 633 c 0
 585 612 596 581 596 540 c 2
 596 99 l 1xd7e0
 597 99 l 1
 597 -75 l 2
 597 -90 585 -98 561 -98 c 0
 553 -98 547 -96 545 -92 c 0xd7d0
 533 -67 516 -54 494 -54 c 0
 481 -54 461 -60 434 -71 c 0
 371 -97 327 -110 302 -110 c 0
 261 -110 223 -86 188 -37 c 1
EndSplineSet
Validated: 1
Ligature2: "'vatu' Vattu Variants in Bengali lookup 7 subtable" u099e u09b0_u09cd.blwf
EndChar

StartChar: u099f_u09b0_u09cd.blwf.vatu
Encoding: 65594 -1 74
GlifName: u099f_u09b0_u09cd.blwf.vatu
Width: 493
GlyphClass: 3
Flags: HW
HStem: -88 45<-13.7441 108.039> -32 51<159.174 271.964> 35 80<155.079 258.906> 610 63<-6 79 141 377.999 437 489> 756 57<4.40533 348.325>
VStem: -104 55<860.945 948.497> 79 62<129.152 609> 282 52<1 71> 356 57<232.755 376.957> 378 59<673.327 730.68>
AnchorPoint: "Anchor-1" 300 -79 basechar 0
LayerCount: 2
Fore
SplineSet
141 176 m 2xff40
 141 143 166 115 203 115 c 0
 228 115 253 128 278 154 c 0
 330 210 356 264 356 315 c 0
 356 342 350 362 339 375 c 1
 327 386 l 1
 293 412 l 1
 290 416 289 420 289 425 c 0
 289 442 305 457 325 457 c 1
 384 416 413 371 413 321 c 0xff80
 413 260 389 198 342 135 c 2
 331 120 l 1
 334 121 l 1
 334 -53 l 2
 334 -68 322 -76 298 -76 c 0
 290 -76 284 -74 282 -70 c 0
 270 -45 253 -32 231 -32 c 0
 218 -32 198 -38 171 -49 c 0
 108 -75 64 -88 39 -88 c 0
 -2 -88 -40 -64 -75 -15 c 1
 -75 1 -73 15 -59 15 c 0
 -52 15 -44 12 -33 5 c 1
 -16 -27 7 -43 34 -43 c 0
 48 -43 67 -38 92 -28 c 2
 160 -0 l 1
 195 13 218 19 228 19 c 0
 244 19 262 13 282 1 c 1
 282 71 l 1
 251 47 219 35 186 35 c 0
 161 35 137 47 115 72 c 0
 92 100 80 129 79 160 c 1
 79 609 l 1
 56 610 31 610 7 610 c 2
 -6 610 l 1
 -6 673 l 1
 375 673 l 1
 377 680 378 686 378 692 c 0
 378 735 328 756 228 756 c 1
 142 753 l 1
 48 763 -12 775 -36 789 c 0
 -77 811 -101 858 -104 930 c 0
 -104 943 -94 949 -78 949 c 0
 -65 949 -56 945 -49 936 c 1
 -47 831 21 813 138 813 c 2
 197 813 l 1
 337 811 437 794 437 673 c 1
 489 673 l 1
 489 610 l 1
 141 610 l 1
 141 176 l 2xff40
EndSplineSet
Validated: 1
Ligature2: "'vatu' Vattu Variants in Bengali lookup 7 subtable" u099f u09b0_u09cd.blwf
EndChar

StartChar: u09a0_u09b0_u09cd.blwf.vatu
Encoding: 65595 -1 75
GlifName: u09a0_u09b0_u09cd.blwf.vatu
Width: 516
GlyphClass: 3
Flags: HW
HStem: -85 44<32.2559 152.372> -30 51<202.697 318.755> 39 55<146.272 280.049> 610 63<-7 191 309 515> 996 56<133.818 199.864>
VStem: 30 60<154.09 254.367> 69 58<870.55 987.493> 230 52<419.578 550.506> 328 52<3 75> 384 54<208.306 411.022>
AnchorPoint: "Anchor-1" 354 -81 basechar 0
LayerCount: 2
Fore
SplineSet
281 551 m 1xfdc0
 282 540 282 528 282 517 c 0
 282 394 218 304 90 246 c 1
 90 199 101 163 124 137 c 0
 147 109 176 94 210 94 c 0
 245 94 279 109 311 140 c 0
 360 187 384 241 384 304 c 0
 384 381 349 464 281 551 c 1xfdc0
-29 -13 m 1
 -29 3 -26 18 -13 18 c 0
 -6 18 2 14 13 7 c 1
 30 -25 53 -41 80 -41 c 0
 94 -41 113 -35 138 -25 c 2
 206 2 l 2
 241 15 264 21 274 21 c 0
 290 21 308 15 328 3 c 1
 328 75 l 1
 294 51 257 39 214 39 c 0
 190 39 166 44 142 52 c 0
 115 61 90 85 66 125 c 0
 42 164 30 202 30 236 c 0xfdc0
 30 261 37 279 51 292 c 1
 119 320 167 354 194 394 c 0
 218 429 230 472 230 524 c 0
 230 550 227 579 221 610 c 1
 -7 610 l 1
 -7 673 l 1
 191 673 l 1
 184 688 166 721 134 774 c 0
 91 849 69 907 69 950 c 0
 69 1005 104 1040 175 1052 c 1
 193 1047 202 1035 202 1016 c 0
 202 1006 198 999 191 996 c 1
 148 996 127 980 127 949 c 0xfbc0
 127 927 137 890 162 842 c 0
 202 765 237 709 259 673 c 1
 515 673 l 1
 515 610 l 1
 309 610 l 1
 395 506 438 402 438 297 c 0
 438 233 418 175 377 123 c 1
 380 124 l 1
 380 -51 l 2
 380 -66 368 -74 344 -74 c 0
 336 -74 330 -71 328 -67 c 0
 316 -42 299 -30 277 -30 c 0
 264 -30 244 -35 217 -46 c 0
 154 -72 110 -85 85 -85 c 0
 44 -85 6 -62 -29 -13 c 1
EndSplineSet
Validated: 1
Ligature2: "'vatu' Vattu Variants in Bengali lookup 7 subtable" u09a0 u09b0_u09cd.blwf
EndChar

StartChar: u09a1_u09b0_u09cd.blwf.vatu
Encoding: 65596 -1 76
GlifName: u09a1_u09b0_u09cd.blwf.vatu
Width: 733
GlyphClass: 3
Flags: HW
HStem: -112 45<112.874 235.697> -57 52<283.675 400.653> 36 58<340.074 410 461 506.489> 272 61<353.846 422.187> 610 63<-6 290 352 734>
VStem: 29 56<455.509 528.954> 290 62<335.097 610> 410 51<-99.8398 -66.7084 -23 38.725> 601 58<191.963 376.799>
AnchorPoint: "Anchor-1" 440 -104 basechar 0
LayerCount: 2
Fore
SplineSet
53 -40 m 1
 53 -24 54 -9 68 -9 c 0
 75 -9 84 -13 95 -20 c 1
 112 -52 135 -67 162 -67 c 0
 176 -67 195 -62 220 -52 c 2
 288 -24 l 1
 323 -11 345 -5 355 -5 c 0
 371 -5 390 -11 410 -23 c 1
 410 36 l 1
 347 42 286 69 229 119 c 0
 203 142 181 168 162 195 c 0
 111 271 64 373 30 502 c 0
 30 504 29 505 29 507 c 0
 29 520 44 530 60 530 c 0
 70 530 78 526 85 519 c 1
 120 408 155 331 180 281 c 0
 222 197 316 94 427 94 c 0
 482 94 527 119 564 168 c 0
 589 201 601 240 601 285 c 0
 601 335 586 377 556 412 c 1
 511 361 482 330 469 319 c 0
 435 290 400 272 366 272 c 1
 358 272 l 1
 313 276 290 316 290 382 c 2
 290 610 l 1
 -6 610 l 1
 -6 673 l 1
 734 673 l 1
 734 610 l 1
 352 610 l 1
 352 353 l 1
 357 340 365 333 376 333 c 0
 394 333 418 347 447 376 c 0
 473 402 498 433 523 470 c 0
 527 477 534 480 543 480 c 0
 557 480 570 474 581 463 c 0
 633 414 659 358 659 296 c 0
 659 264 656 227 639 190 c 0
 598 97 535 48 461 37 c 1
 461 -78 l 2
 461 -93 449 -101 425 -101 c 0
 417 -101 412 -98 410 -94 c 0
 398 -69 380 -57 358 -57 c 0
 345 -57 325 -62 298 -73 c 0
 235 -99 192 -112 167 -112 c 0
 126 -112 88 -89 53 -40 c 1
EndSplineSet
Validated: 1
Ligature2: "'vatu' Vattu Variants in Bengali lookup 7 subtable" u09a1 u09b0_u09cd.blwf
EndChar

StartChar: u09a2_u09b0_u09cd.blwf.vatu
Encoding: 65597 -1 77
GlifName: u09a2_u09b0_u09cd.blwf.vatu
Width: 504
GlyphClass: 3
Flags: HW
HStem: -78 45<1.56089 124.039> -22 51<175.174 287.964> 35 80<171.461 274.906> 610 63<-5 95 157 505>
VStem: 95 62<129.152 609> 298 52<11 71> 372 57<232.755 378.113>
AnchorPoint: "Anchor-1" 328 -74 basechar 0
LayerCount: 2
Fore
SplineSet
157 176 m 2
 157 143 182 115 219 115 c 0
 244 115 269 128 294 154 c 0
 346 210 372 264 372 315 c 0
 372 342 366 363 354 375 c 0
 341 389 324 400 309 412 c 1
 306 416 305 420 305 425 c 0
 305 443 320 457 341 457 c 1
 400 416 429 371 429 321 c 0
 429 260 405 198 358 135 c 2
 350 124 l 1
 350 -43 l 2
 350 -58 337 -66 313 -66 c 0
 305 -66 300 -64 298 -60 c 0
 286 -35 269 -22 247 -22 c 0
 234 -22 214 -28 187 -39 c 0
 124 -65 80 -78 55 -78 c 0
 15 -78 -24 -54 -59 -5 c 1
 -59 12 -57 25 -43 25 c 0
 -36 25 -28 22 -17 15 c 1
 0 -17 23 -33 50 -33 c 0
 64 -33 83 -28 108 -18 c 2
 176 10 l 1
 211 23 234 29 244 29 c 0
 260 29 278 23 298 11 c 1
 298 71 l 1
 267 47 235 35 202 35 c 0
 177 35 152 47 130 72 c 0
 107 100 96 129 95 160 c 1
 95 609 l 1
 -5 610 l 1
 -5 673 l 1
 505 673 l 1
 505 610 l 1
 157 610 l 1
 157 176 l 2
EndSplineSet
Validated: 1
Ligature2: "'vatu' Vattu Variants in Bengali lookup 7 subtable" u09a2 u09b0_u09cd.blwf
EndChar

StartChar: u09a3_u09b0_u09cd.blwf.vatu
Encoding: 65598 -1 78
GlifName: u09a3_u09b0_u09cd.blwf.vatu
Width: 510
GlyphClass: 3
Flags: HW
HStem: 43 63<56.9372 191.712> 94 59<211.728 348.426> 283 56<128.605 195.832> 591 55<138.773 295.273> 610 63<434 509>
VStem: 25 56<389.002 531.899> 372 62<124 517.816 588 608.018>
AnchorPoint: "Anchor-1" 402 42 basechar 0
LayerCount: 2
Fore
SplineSet
25 461 m 0x76
 25 578 110 646 231 646 c 0x76
 278 646 326 627 372 588 c 1
 372 645 393 673 434 673 c 2
 509 673 l 1
 509 610 l 1
 434 610 l 1
 434 69 l 2
 434 52 424 44 405 44 c 0
 389 44 379 49 374 57 c 1
 372 55 370 55 368 55 c 0
 367 55 367 55 366 55 c 0
 343 81 319 94 297 94 c 0x6e
 283 94 249 87 198 67 c 0
 163 53 135 43 110 43 c 0
 57 43 10 80 -29 155 c 0
 -31 160 -32 164 -32 169 c 0
 -32 183 -23 190 -6 190 c 0
 0 190 7 189 14 186 c 1
 42 133 72 106 106 106 c 0xa6
 119 106 139 110 163 118 c 2
 237 142 l 1
 262 149 283 153 301 153 c 0
 327 153 351 144 372 124 c 1
 372 414 l 2
 372 429 367 455 359 493 c 0
 353 521 336 544 306 563 c 0
 278 581 246 591 213 591 c 0
 173 591 140 577 114 548 c 1
 102 532 l 1
 88 511 81 487 81 461 c 0
 81 399 126 341 186 339 c 1
 194 336 198 330 198 319 c 0
 198 303 190 283 172 283 c 0
 100 297 55 336 35 398 c 0
 28 419 25 440 25 461 c 0x76
EndSplineSet
Validated: 1
Ligature2: "'vatu' Vattu Variants in Bengali lookup 7 subtable" u09a3 u09b0_u09cd.blwf
EndChar

StartChar: u09a4_u09b0_u09cd.blwf.vatu
Encoding: 65599 -1 79
GlifName: u09a4_u09b0_u09cd.blwf.vatu
Width: 605
GlyphClass: 3
Flags: HW
HStem: 91 61<119.265 331.267> 109 61<331 403.744> 526 59<369.991 465.109> 610 63<-12 604>
VStem: 24 59<188.786 349.125> 229 58<280.867 452.789> 467 62<123 525.048>
AnchorPoint: "Anchor-1" 498 19 basechar 0
LayerCount: 2
Fore
SplineSet
331 109 m 1x7e
 331 109 216 91 186 91 c 0
 173 91 159 92 146 94 c 0
 65 116 24 177 24 278 c 0
 24 294 25 311 27 330 c 1
 32 343 40 350 53 350 c 0
 69 350 81 343 88 328 c 1
 84 309 83 292 83 275 c 0
 83 193 117 152 188 152 c 0xbe
 195 152 228 157 284 165 c 0
 307 169 324 170 332 170 c 0
 388 170 433 154 467 123 c 1
 467 487 l 2
 467 513 457 526 437 526 c 0
 432 526 427 525 422 524 c 0
 332 500 287 451 287 376 c 0
 287 351 293 323 304 294 c 0
 305 291 306 287 306 284 c 0
 306 270 297 263 279 263 c 0
 267 263 257 268 249 276 c 1
 236 310 229 343 229 375 c 0
 229 436 250 486 293 525 c 0
 327 556 369 576 418 583 c 0
 425 584 433 585 440 585 c 0
 476 585 502 571 517 542 c 1
 524 524 l 1
 527 513 529 502 529 489 c 2
 529 51 l 2
 529 37 504 27 486 24 c 0
 477 24 471 26 467 31 c 0
 425 83 380 109 331 109 c 1x7e
-12 673 m 1
 604 673 l 1
 604 610 l 1
 -12 610 l 1
 -12 673 l 1
EndSplineSet
Validated: 1
Substitution2: "'salt' Stylistic Alternatives in Bengali2 lookup 17-1" u09a4_u09b0_u09cd.vatu.salt
Ligature2: "'vatu' Vattu Variants in Bengali lookup 7 subtable" u09a4 u09b0_u09cd.blwf
EndChar

StartChar: u09a5_u09b0_u09cd.blwf.vatu
Encoding: 65600 -1 80
GlifName: u09a5_u09b0_u09cd.blwf.vatu
Width: 589
GlyphClass: 3
Flags: HW
HStem: -26 57<154.962 357.186> -2 56<252.486 441.225> 595 58<124.496 258.037> 610 63<515 591>
VStem: 37 56<468.62 499.982> 62 54<93.1155 125.711> 290 56<429.171 563.665> 453 62<46 49 117 610>
AnchorPoint: "Anchor-1" 486 -41 basechar 0
LayerCount: 2
Fore
SplineSet
453 610 m 2x1b
 453 646 475 673 515 673 c 2
 591 673 l 1
 591 610 l 1
 515 610 l 1
 515 60 l 2
 515 56 514 52 511 49 c 1
 511 -14 l 2
 511 -29 497 -36 470 -36 c 0
 459 -36 452 -34 449 -31 c 0
 431 -12 408 -2 379 -2 c 0x5b
 364 -2 338 -7 303 -15 c 0
 268 -23 241 -26 221 -26 c 0
 178 -25 146 -17 125 -1 c 0
 104 15 83 46 62 93 c 0
 62 95 62 98 62 100 c 0
 62 118 69 126 89 126 c 0
 98 126 107 124 116 118 c 1
 129 84 143 61 156 49 c 0
 170 37 188 31 209 31 c 0x87
 223 31 247 35 282 42 c 0
 329 50 366 54 393 54 c 0
 416 54 435 51 449 46 c 1
 449 49 l 1
 146 274 l 1
 142 283 140 292 140 299 c 0
 140 310 144 318 153 321 c 0
 213 344 290 428 290 504 c 0
 290 547 267 578 223 592 c 0
 214 595 206 595 199 595 c 0
 195 595 191 595 188 595 c 0
 128 595 98 560 93 489 c 0
 92 475 81 468 62 468 c 0
 49 468 41 473 37 482 c 1
 37 488 37 494 37 500 c 0
 37 601 85 653 188 653 c 0x6b
 281 653 346 597 346 504 c 0
 346 469 336 432 317 394 c 0
 300 361 267 327 218 292 c 1
 453 117 l 1
 453 610 l 2x1b
EndSplineSet
Validated: 1
Ligature2: "'vatu' Vattu Variants in Bengali lookup 7 subtable" u09a5 u09b0_u09cd.blwf
EndChar

StartChar: u09a6_u09b0_u09cd.blwf.vatu
Encoding: 65601 -1 81
GlifName: u09a6_u09b0_u09cd.blwf.vatu
Width: 434
GlyphClass: 3
Flags: HW
HStem: 6 63<33.1755 167.712> 57 59<187.893 278.694> 610 63<-12 34 96 440>
VStem: 34 62<375 610> 256 57<134.634 392.503>
AnchorPoint: "Anchor-1" 351 18 basechar 0
LayerCount: 2
Fore
SplineSet
365 55 m 0xb8
 365 46 358 18 346 18 c 0
 345 18 343 18 342 19 c 0
 334 27 326 34 319 40 c 0
 317 40 315 40 313 40 c 1
 311 45 l 1
 298 53 285 57 273 57 c 0x78
 259 57 225 50 174 30 c 0
 139 16 111 6 86 6 c 0
 33 6 -14 43 -53 118 c 0
 -55 123 -56 127 -56 132 c 0
 -56 146 -47 153 -30 153 c 0
 -24 153 -17 152 -10 149 c 1
 18 96 49 69 83 69 c 0xb8
 96 69 115 73 139 81 c 2
 213 104 l 2
 238 112 259 116 277 116 c 2
 279 116 l 1x78
 264 160 256 205 256 251 c 0
 256 306 268 370 290 443 c 1
 215 414 148 364 89 294 c 1
 81 289 72 287 62 287 c 0
 43 287 34 295 34 310 c 2
 34 610 l 1
 -12 610 l 1
 -12 673 l 1
 440 673 l 1
 440 610 l 1
 96 610 l 1
 96 375 l 1
 111 394 138 417 176 445 c 0
 240 492 289 514 322 514 c 0
 325 514 328 513 331 513 c 0
 352 511 363 499 362 478 c 1
 330 389 313 316 313 258 c 0
 313 196 330 133 364 69 c 0
 365 66 365 61 365 55 c 0xb8
EndSplineSet
Validated: 33
Ligature2: "'vatu' Vattu Variants in Bengali lookup 7 subtable" u09a6 u09b0_u09cd.blwf
EndChar

StartChar: u09a7_u09b0_u09cd.blwf.vatu
Encoding: 65602 -1 82
GlifName: u09a7_u09b0_u09cd.blwf.vatu
Width: 488
GlyphClass: 3
Flags: HW
HStem: -19 58<54.9278 257.355> 5 57<153.155 330.431> 610 63<97.8144 200.242 411 487>
VStem: 30 58<515.468 597.177> 349 62<121 495 564 610>
AnchorPoint: "Anchor-1" 385 -33 basechar 0
LayerCount: 2
Fore
SplineSet
349 121 m 1x38
 349 495 l 1
 104 344 l 1
 349 121 l 1x38
30 558 m 0
 30 606 53 638 100 657 c 0
 124 666 152 671 184 671 c 1
 196 668 202 659 202 646 c 0
 202 629 196 618 185 612 c 1
 120 612 88 595 88 562 c 0
 88 555 90 546 93 538 c 0
 116 499 150 480 195 480 c 0
 202 480 210 481 217 482 c 1
 349 564 l 1
 349 610 l 2
 349 652 370 673 411 673 c 2
 487 673 l 1
 487 610 l 1
 411 610 l 1
 411 118 l 1
 412 118 l 1
 412 -6 l 2
 412 -21 398 -28 371 -28 c 0
 360 -28 353 -26 350 -23 c 0
 332 -4 308 5 279 5 c 0x78
 264 5 238 0 203 -8 c 0
 168 -16 142 -19 122 -19 c 0
 79 -18 46 -10 25 6 c 0
 4 22 -17 54 -38 101 c 1
 -39 122 -31 134 -11 134 c 0
 -2 134 8 131 17 125 c 1
 30 91 44 68 57 56 c 0
 71 44 88 39 109 39 c 0xb8
 123 39 148 42 183 49 c 0
 230 57 266 62 293 62 c 0x78
 307 62 320 61 331 59 c 1
 39 328 l 2
 35 333 33 339 33 347 c 0
 33 359 37 370 46 380 c 1
 136 432 l 1
 84 455 49 489 32 534 c 0
 31 542 30 550 30 558 c 0
EndSplineSet
Validated: 33
Ligature2: "'vatu' Vattu Variants in Bengali lookup 7 subtable" u09a7 u09b0_u09cd.blwf
EndChar

StartChar: u09a8_u09b0_u09cd.blwf.vatu
Encoding: 65603 -1 83
GlifName: u09a8_u09b0_u09cd.blwf.vatu
Width: 523
GlyphClass: 3
Flags: HW
HStem: 21 55<26.8804 215.504> 52 58<186.365 364.391> 395 58<146.936 316.729> 610 63<-9 385 447 523>
VStem: -81 53<134.748 180.517> 37 59<199.931 346.298> 385 62<91 322.952 390 610>
AnchorPoint: "Anchor-1" 405 1 basechar 0
LayerCount: 2
Fore
SplineSet
227 395 m 0x7e
 152 395 96 351 96 276 c 0
 96 210 122 187 168 162 c 0
 173 157 175 152 175 146 c 0
 175 131 164 115 146 115 c 0
 145 115 143 115 142 115 c 0
 80 139 37 196 37 277 c 0
 37 385 121 453 233 453 c 0
 292 453 342 432 385 390 c 1
 385 610 l 1
 -9 610 l 1
 -9 673 l 1
 523 673 l 1
 523 610 l 1
 447 610 l 1
 447 28 l 2
 447 13 434 5 407 5 c 0
 397 5 390 7 385 12 c 0
 360 39 330 52 295 52 c 0x7e
 273 52 242 46 204 35 c 0
 171 25 139 21 107 21 c 0
 10 21 -52 65 -81 155 c 1
 -80 173 -68 182 -45 182 c 0
 -39 182 -34 181 -28 179 c 1
 -6 110 38 76 102 76 c 0xbe
 122 76 145 79 170 86 c 0
 227 102 270 110 300 110 c 0
 328 110 356 104 385 91 c 1
 385 263 l 1
 366 349 321 395 227 395 c 0x7e
EndSplineSet
Validated: 1
Ligature2: "'vatu' Vattu Variants in Bengali lookup 7 subtable" u09a8 u09b0_u09cd.blwf
EndChar

StartChar: u09aa_u09b0_u09cd.blwf.vatu
Encoding: 65604 -1 84
GlifName: u09aa_u09b0_u09cd.blwf.vatu
Width: 647
GlyphClass: 3
Flags: HW
HStem: 50 63<188.937 323.712> 101 59<343.728 480.156> 606 60<183.194 338.23> 610 63<570 646>
VStem: 508 62<35.6394 66 126 417.506 502 610>
AnchorPoint: "Anchor-1" 537 30 basechar 0
LayerCount: 2
Fore
SplineSet
396 542 m 1x28
 351 585 306 606 261 606 c 0
 216 606 172 585 128 542 c 1
 250 398 l 1
 396 542 l 1x28
508 609 m 2
 508 641 535 673 570 673 c 2
 646 673 l 1
 646 610 l 1
 570 610 l 1
 570 55 l 2
 570 42 560 35 540 35 c 0
 519 35 508 41 508 54 c 2
 508 66 l 1
 505 62 502 61 498 62 c 1
 475 88 451 101 429 101 c 0x58
 415 101 381 94 330 74 c 0
 295 60 267 50 242 50 c 0
 189 50 142 87 103 162 c 0
 101 167 100 171 100 176 c 0
 100 190 108 197 125 197 c 0
 131 197 139 196 146 193 c 1
 174 140 204 113 238 113 c 0x88
 251 113 271 117 295 125 c 2
 369 148 l 2
 394 156 415 160 433 160 c 0x48
 461 160 486 149 508 126 c 1
 508 328 l 2
 508 359 500 390 484 422 c 0
 477 437 461 463 436 500 c 1
 207 276 l 1
 203 275 200 274 196 274 c 0
 178 274 164 286 164 306 c 0
 164 310 165 314 166 317 c 1
 206 358 l 1
 94 493 l 1
 64 443 l 1
 59 440 55 439 50 439 c 0
 32 439 17 453 13 472 c 1
 60 575 131 638 225 661 c 0
 240 664 254 666 269 666 c 0
 357 666 437 611 508 502 c 1
 508 609 l 2
EndSplineSet
Validated: 33
Ligature2: "'vatu' Vattu Variants in Bengali lookup 7 subtable" u09aa u09b0_u09cd.blwf
EndChar

StartChar: u09ab_u09b0_u09cd.blwf.vatu
Encoding: 65605 -1 85
GlifName: u09ab_u09b0_u09cd.blwf.vatu
Width: 696
GlyphClass: 3
Flags: HW
HStem: 27 58<68.7809 268.934> 51 56<164.765 292> 233 59<502.282 520.499> 515 55<425 518.545> 610 63<-7 18 98 696>
VStem: 363 62<121 515> 577 59<314.982 461.21>
AnchorPoint: "Anchor-1" 400 10 basechar 0
LayerCount: 2
Fore
SplineSet
577 389 m 0x7e
 577 472 515 515 425 515 c 1
 425 164 l 1
 426 164 l 1
 426 40 l 2
 426 25 412 18 385 18 c 0
 374 18 367 20 364 23 c 0
 346 42 322 51 293 51 c 0x7e
 278 51 253 47 217 39 c 0
 182 31 156 27 136 27 c 0
 93 28 61 37 40 53 c 0
 19 69 -2 100 -23 147 c 1
 -24 169 -17 180 3 180 c 0
 12 180 22 177 31 171 c 1
 44 137 57 115 70 103 c 0
 84 91 102 85 124 85 c 0xbe
 138 85 162 88 197 95 c 0
 235 102 267 106 292 107 c 1
 59 297 l 1
 55 305 53 312 53 319 c 0
 53 328 57 338 65 347 c 1
 168 443 l 1
 18 610 l 1
 -7 610 l 1
 -7 673 l 1
 696 673 l 1
 696 610 l 1
 98 610 l 1
 229 463 l 1
 232 455 234 448 234 442 c 0
 234 432 230 425 223 418 c 2
 120 321 l 1
 363 121 l 1
 363 514 l 2
 363 551 374 570 395 570 c 0
 507 570 580 538 614 474 c 0
 629 446 636 417 636 387 c 0
 636 316 591 240 527 233 c 1
 510 235 501 246 501 267 c 0
 501 280 506 288 517 292 c 0
 518 292 520 292 521 292 c 0
 556 292 577 348 577 389 c 0x7e
EndSplineSet
Validated: 33
Ligature2: "'vatu' Vattu Variants in Bengali lookup 7 subtable" u09ab u09b0_u09cd.blwf
EndChar

StartChar: u09ac_u09b0_u09cd.blwf.vatu
Encoding: 65606 -1 86
GlifName: u09ac_u09b0_u09cd.blwf.vatu
Width: 486
GlyphClass: 3
Flags: HW
HStem: -19 58<55.9278 258.355> 5 57<154.155 339.366> 610 63<-6 349 411 487>
VStem: 349 62<128 500 564 610>
AnchorPoint: "Anchor-1" 387 -29 basechar 0
LayerCount: 2
Fore
SplineSet
349 128 m 1x30
 349 500 l 1
 104 347 l 1
 349 128 l 1x30
340 57 m 1
 38 332 l 2
 32 337 30 343 30 352 c 0
 30 363 33 371 40 375 c 2
 349 564 l 1
 349 610 l 1
 -6 610 l 1
 -6 673 l 1
 487 673 l 1
 487 610 l 1
 411 610 l 1
 411 118 l 1
 413 118 l 1
 413 -6 l 2
 413 -21 399 -28 372 -28 c 0
 361 -28 354 -26 351 -23 c 0
 333 -4 309 5 280 5 c 0x70
 265 5 239 0 204 -8 c 0
 169 -16 143 -19 123 -19 c 0
 80 -18 47 -10 26 6 c 0
 5 22 -16 54 -37 101 c 1
 -38 122 -30 134 -10 134 c 0
 -1 134 9 131 18 125 c 1
 31 91 45 68 58 56 c 0
 72 44 89 39 110 39 c 0xb0
 124 39 149 42 184 49 c 0
 231 57 267 62 294 62 c 0x70
 312 62 328 60 340 57 c 1
EndSplineSet
Validated: 33
Ligature2: "'vatu' Vattu Variants in Bengali lookup 7 subtable" u09ac u09b0_u09cd.blwf
EndChar

StartChar: u09ad_u09b0_u09cd.blwf.vatu
Encoding: 65607 -1 87
GlifName: u09ad_u09b0_u09cd.blwf.vatu
Width: 600
GlyphClass: 3
Flags: HW
HStem: 136 57<142.415 405.555> 334 58<264.348 371.713> 610 63<-6 603>
VStem: 30 59<349.462 377.063> 194 59<428 535.703> 494 62<134 439.407>
AnchorPoint: "Anchor-1" 536 28 basechar 0
LayerCount: 2
Fore
SplineSet
-6 673 m 1
 603 673 l 1
 603 610 l 1
 -6 610 l 1
 -6 673 l 1
556 51 m 2
 556 37 533 25 513 25 c 0
 504 25 497 27 494 33 c 0
 450 110 399 130 280 136 c 0
 219 139 176 143 151 148 c 0
 57 170 30 233 30 349 c 0
 30 353 30 358 30 362 c 1
 36 373 44 379 55 379 c 0
 66 379 78 374 89 364 c 1
 92 305 94 270 97 262 c 0
 108 224 148 202 216 195 c 0
 233 193 254 193 277 193 c 0
 328 192 363 190 384 187 c 0
 424 179 460 161 494 134 c 1
 494 380 l 1
 493 395 490 415 484 441 c 1
 428 370 368 334 305 334 c 0
 298 334 291 334 284 335 c 0
 220 354 194 398 194 479 c 0
 194 490 194 502 195 517 c 1
 201 530 211 537 226 537 c 0
 241 537 249 530 252 517 c 1
 252 485 252 462 253 446 c 1
 256 428 l 1
 264 404 283 392 315 392 c 0
 316 392 318 392 319 392 c 2
 322 392 l 1
 359 401 389 421 412 451 c 0
 443 490 465 514 478 522 c 0
 480 522 481 522 483 522 c 0
 499 522 512 513 521 504 c 1
 544 461 556 425 556 394 c 2
 556 51 l 2
EndSplineSet
Validated: 1
Ligature2: "'vatu' Vattu Variants in Bengali lookup 7 subtable" u09ad u09b0_u09cd.blwf
EndChar

StartChar: u09ae_u09b0_u09cd.blwf.vatu
Encoding: 65608 -1 88
GlifName: u09ae_u09b0_u09cd.blwf.vatu
Width: 481
GlyphClass: 3
Flags: HW
HStem: 58 21G<391 409.5> 67 58<78.8356 283.998> 91 57<178.602 368.099> 342 51<102.832 142.54> 356 67<284.475 375> 610 63<-3 109.979 154 347.667 415 482>
VStem: 44 54<396.679 476.313> 118 56<531.282 607.456> 375 62<140 357> 417 59<436.271 562.785>
AnchorPoint: "Anchor-1" 411 51 basechar 0
LayerCount: 2
Fore
SplineSet
375 427 m 1x0f80
 375 436 l 1x0f80
 395 436 l 1
 410 447 417 466 417 492 c 0x0f40
 417 519 408 548 387 574 c 0
 372 592 358 601 348 606 c 0
 341 609 327 610 307 610 c 2
 154 610 l 1
 167 591 174 569 174 544 c 0
 174 538 173 533 172 528 c 1
 191 520 217 501 252 470 c 0
 283 443 308 428 326 425 c 0
 333 424 340 423 347 423 c 0
 358 423 367 424 375 427 c 1x0f80
139 483 m 0
 119 483 98 463 98 438 c 0
 98 421 103 409 115 400 c 0
 120 396 126 393 132 393 c 1
 139 381 144 371 144 363 c 0
 144 349 132 342 111 342 c 1
 66 365 44 399 44 446 c 0
 44 492 67 521 113 534 c 1
 116 541 118 549 118 557 c 0
 118 575 110 593 94 610 c 1
 -3 610 l 1
 -3 673 l 1
 482 673 l 1
 482 610 l 1
 415 610 l 1
 447 591 476 535 476 479 c 0x1740
 476 437 462 405 437 384 c 1
 437 80 l 2
 437 65 423 58 396 58 c 0
 386 58 379 59 375 63 c 0
 357 82 335 91 306 91 c 0xb780
 291 91 264 86 229 78 c 0
 194 70 167 67 147 67 c 0
 104 68 73 76 52 92 c 0
 31 108 10 140 -11 187 c 1
 -12 209 -5 220 16 220 c 0
 25 220 33 217 42 211 c 1
 55 177 69 154 83 143 c 0
 97 131 114 125 136 125 c 0x4780
 150 125 173 128 208 135 c 0
 256 144 293 148 320 148 c 0x2780
 343 148 361 146 375 140 c 1
 375 357 l 1
 368 356 362 356 355 356 c 0
 326 356 297 367 266 389 c 0
 257 395 232 415 194 450 c 0
 170 472 152 483 139 483 c 0
EndSplineSet
Validated: 33
Ligature2: "'vatu' Vattu Variants in Bengali lookup 7 subtable" u09ae u09b0_u09cd.blwf
EndChar

StartChar: u09af_u09b0_u09cd.blwf.vatu
Encoding: 65609 -1 89
GlifName: u09af_u09b0_u09cd.blwf.vatu
Width: 500
GlyphClass: 3
Flags: HW
HStem: -12 58<66.7809 267.68> 12 57<162.765 324.44> 610 63<-2 23 101 361 423 500>
VStem: 361 62<115 610>
AnchorPoint: "Anchor-1" 408 -23 basechar 0
LayerCount: 2
Fore
SplineSet
101 610 m 1x30
 230 452 l 1
 233 444 236 437 236 430 c 0
 236 423 233 417 227 412 c 2
 95 302 l 1
 361 115 l 1
 361 610 l 1
 101 610 l 1x30
325 68 m 1
 36 278 l 2
 29 284 24 291 24 299 c 0
 24 306 27 314 32 321 c 1
 167 439 l 1
 23 610 l 1
 -2 610 l 1
 -2 673 l 1
 500 673 l 1
 500 610 l 1
 423 610 l 1
 423 125 l 1
 424 125 l 1
 424 1 l 2
 424 -14 410 -21 383 -21 c 0
 372 -21 365 -19 362 -16 c 0
 344 3 321 12 292 12 c 0x70
 277 12 251 8 215 0 c 0
 180 -8 154 -12 134 -12 c 0
 91 -11 59 -2 38 14 c 0
 17 30 -4 61 -25 108 c 1
 -26 130 -19 141 1 141 c 0
 10 141 20 138 29 132 c 1
 42 98 55 76 68 64 c 0
 82 52 100 46 122 46 c 0xb0
 136 46 160 49 195 56 c 0
 242 64 279 69 306 69 c 0x70
 313 69 319 68 325 68 c 1
EndSplineSet
Validated: 33
Ligature2: "'vatu' Vattu Variants in Bengali lookup 7 subtable" u09af u09b0_u09cd.blwf
EndChar

StartChar: u09b0_u09b0_u09cd.blwf.vatu
Encoding: 65610 -1 90
GlifName: u09b0_u09b0_u09cd.blwf.vatu
Width: 485
GlyphClass: 3
Flags: HW
HStem: -62 56<-11.8417 174.232> -30 58<147.112 323.634> 49 73<143 221> 610 63<-9 346 408 483>
VStem: -122 54<52.7302 98.3125> 143 78<49 122> 346 62<9 50 128 500 564 610>
AnchorPoint: "Anchor-1" 387 -76 basechar 0
AnchorPoint: "Anchor-1" 390 -81 basechar 0
LayerCount: 2
Fore
SplineSet
346 128 m 1x3e
 346 500 l 1
 101 347 l 1
 346 128 l 1x3e
143 122 m 1
 221 122 l 1
 221 49 l 1
 143 49 l 1
 143 122 l 1
345 50 m 1
 35 332 l 2
 29 337 26 343 26 352 c 0
 26 363 30 371 37 375 c 2
 346 564 l 1
 346 610 l 1
 -9 610 l 1
 -9 673 l 1
 483 673 l 1
 483 610 l 1
 408 610 l 1
 408 62 l 1
 407 59 l 1
 407 -54 l 2
 407 -69 394 -77 367 -77 c 0
 357 -77 350 -75 345 -70 c 0
 320 -43 289 -30 254 -30 c 0x7e
 232 -30 202 -36 164 -47 c 0
 131 -57 98 -62 66 -62 c 0
 -31 -62 -93 -17 -122 73 c 1
 -121 91 -108 100 -85 100 c 0
 -79 100 -74 99 -68 97 c 1
 -46 29 -2 -6 62 -6 c 0xbe
 82 -6 104 -3 129 4 c 0
 186 20 230 28 260 28 c 0x7e
 288 28 316 22 345 9 c 1
 345 50 l 1
EndSplineSet
Validated: 1
LCarets2: 1 0
Ligature2: "'vatu' Vattu Variants in Bengali lookup 7 subtable" u09b0 u09b0_u09cd.blwf
EndChar

StartChar: u09b2_u09b0_u09cd.blwf.vatu
Encoding: 65611 -1 91
GlifName: u09b2_u09b0_u09cd.blwf.vatu
Width: 552
GlyphClass: 2
Flags: HW
HStem: 46 58<125.634 325.661> 70 57<221.082 413.099> 326 55<104.729 204.471> 534 55<102.455 212.857 304.646 382.147> 610 63<-8 420 482 559>
VStem: 27 55<404.773 514.183> 420 62<119 494.806 547 610>
AnchorPoint: "Anchor-1" 462 32 basechar 0
LayerCount: 2
Fore
SplineSet
167 326 m 0x7e
 93 326 27 380 27 454 c 0
 27 488 40 519 65 546 c 0
 92 574 123 588 156 589 c 0
 193 589 227 573 259 542 c 1
 283 571 309 585 336 585 c 0
 361 585 389 572 420 547 c 1
 420 610 l 1
 -8 610 l 1
 -8 673 l 1
 559 673 l 1
 559 610 l 1
 482 610 l 1
 482 59 l 2
 482 44 468 37 441 37 c 0
 431 37 424 38 420 42 c 0
 402 61 380 70 351 70 c 0x7e
 336 70 309 66 274 58 c 0
 239 50 212 46 192 46 c 0
 149 47 118 56 97 72 c 0
 76 88 55 119 34 166 c 1
 33 188 40 199 61 199 c 0
 70 199 78 196 87 190 c 1
 100 156 113 133 127 122 c 0
 141 110 159 104 181 104 c 0xbe
 195 104 218 107 253 114 c 0
 301 123 338 127 365 127 c 0
 388 127 406 125 420 119 c 1
 420 415 l 2
 420 464 404 499 372 520 c 0
 360 527 348 531 338 531 c 0
 320 531 302 514 281 480 c 0
 275 471 268 467 259 467 c 0
 250 467 241 471 234 480 c 1
 220 516 194 534 155 534 c 0
 112 534 85 506 82 461 c 0
 82 459 82 456 82 454 c 0
 82 404 123 381 180 381 c 0
 183 381 187 381 190 381 c 1
 199 376 205 368 205 355 c 0
 205 329 190 326 167 326 c 0x7e
EndSplineSet
Validated: 33
LCarets2: 1 0
Ligature2: "'vatu' Vattu Variants in Bengali lookup 7 subtable" u09b2 u09b0_u09cd.blwf
EndChar

StartChar: u09b6_u09b0_u09cd.blwf.vatu
Encoding: 65612 -1 92
GlifName: u09b6_u09b0_u09cd.blwf.vatu
Width: 656
GlyphClass: 3
Flags: HW
HStem: 50 55<121.135 319.85> 78 58<266.766 483.418> 339 56<4.60213 97.7632> 612 61<-15.5682 112.668 279.522 437.901 562 652>
VStem: -9 51<182.019 228.886> 164 78<455.312 562.212> 500 62<117 559.974 609 610 678 729>
AnchorPoint: "Anchor-1" 539 32 basechar 0
LayerCount: 2
Fore
SplineSet
500 513 m 2x7e
 500 572 413 612 350 612 c 0
 317 612 290 602 269 581 c 1
 258 569 l 1
 247 554 242 537 242 518 c 0
 242 516 242 515 242 513 c 0
 246 428 306 407 395 398 c 1
 400 395 401 390 401 381 c 0
 401 363 397 350 388 342 c 1
 336 347 297 355 274 367 c 0
 247 381 224 407 203 445 c 1
 180 401 154 372 123 357 c 0
 102 348 67 342 17 339 c 1
 9 345 4 354 4 366 c 0
 4 377 8 387 15 395 c 1
 63 398 100 412 129 439 c 0
 151 459 164 483 164 508 c 0
 164 528 156 548 137 569 c 0
 100 608 79 610 -0 610 c 0
 -10 610 -16 621 -16 643 c 0
 -16 663 -10 673 -0 673 c 0
 53 673 88 670 106 664 c 0
 142 653 175 624 202 577 c 1
 223 610 245 633 266 646 c 0
 285 659 313 670 350 673 c 0
 353 673 357 673 360 673 c 0
 412 673 485 645 500 609 c 1
 499 733 l 1
 557 729 l 1
 556 678 l 1
 652 678 l 1
 652 610 l 1
 562 610 l 1
 562 61 l 2
 562 46 541 33 521 33 c 0
 514 33 510 35 506 38 c 0
 481 65 444 78 396 78 c 0x7e
 383 78 348 73 289 61 c 0
 252 54 227 50 214 50 c 0
 102 50 20 111 -9 203 c 1
 -9 221 2 230 25 230 c 0
 31 230 37 229 42 227 c 1
 65 156 119 105 208 105 c 0xbe
 226 105 242 107 259 112 c 0
 317 128 365 136 403 136 c 0
 438 136 471 130 500 117 c 1
 500 513 l 2x7e
EndSplineSet
Validated: 1
LCarets2: 1 0
Ligature2: "'vatu' Vattu Variants in Bengali lookup 7 subtable" u09b6 u09b0_u09cd.blwf
EndChar

StartChar: u09b7_u09b0_u09cd.blwf.vatu
Encoding: 65613 -1 93
GlifName: u09b7_u09b0_u09cd.blwf.vatu
Width: 485
GlyphClass: 3
Flags: HW
HStem: -52 63<63.538 199.712> -1 59<219.728 346.602> 610 63<-5 21 98 358 420 497>
VStem: 358 62<115 329 392 610>
AnchorPoint: "Anchor-1" 407 -50 basechar 0
LayerCount: 2
Fore
SplineSet
358 392 m 1x30
 358 610 l 1
 98 610 l 1
 227 453 l 1
 358 392 l 1x30
358 115 m 1
 358 329 l 1
 206 397 l 1
 92 302 l 1
 358 115 l 1
420 60 m 1
 421 60 419 30 419 2 c 0
 419 -15 419 -31 422 -39 c 0
 422 -45 418 -47 409 -47 c 0
 397 -47 385 -46 374 -40 c 1
 351 -14 327 -1 305 -1 c 0x70
 291 -1 257 -8 206 -28 c 0
 171 -42 143 -52 118 -52 c 0
 65 -52 18 -15 -21 60 c 0
 -23 65 -24 69 -24 74 c 0
 -24 88 -16 95 1 95 c 0
 7 95 14 94 21 91 c 1
 49 38 80 11 114 11 c 0xb0
 127 11 147 15 171 23 c 2
 245 47 l 1
 270 54 291 58 309 58 c 0x70
 322 58 335 55 347 50 c 1
 33 278 l 2
 26 284 21 291 21 299 c 0
 21 306 24 314 29 321 c 1
 165 439 l 1
 21 610 l 1
 -5 610 l 1
 -5 673 l 1
 497 673 l 1
 497 610 l 1
 420 610 l 1
 420 60 l 1
EndSplineSet
Validated: 33
Ligature2: "'vatu' Vattu Variants in Bengali lookup 7 subtable" u09b7 u09b0_u09cd.blwf
EndChar

StartChar: u09b8_u09b0_u09cd.blwf.vatu
Encoding: 65614 -1 94
GlifName: u09b8_u09b0_u09cd.blwf.vatu
Width: 578
GlyphClass: 3
Flags: HW
HStem: 45 58<132.281 332.007> 69 57<227.753 420.044> 367 58<350.534 426.469> 378 60<75.9347 132.786> 610 63<-6 187 258 388.951 456 578>
VStem: 191 67<560.446 609.766> 427 62<118 372> 440 70<434.917 548.363>
AnchorPoint: "Anchor-1" 465 27 basechar 0
LayerCount: 2
Fore
SplineSet
392 425 m 0x2d
 420 425 440 454 440 487 c 0
 440 507 435 524 424 540 c 0
 403 572 385 595 370 610 c 1
 258 610 l 1
 258 602 263 589 274 571 c 1
 321 485 l 1
 346 445 370 425 392 425 c 0x2d
427 372 m 1x4e
 415 369 403 367 392 367 c 0x6e
 358 367 329 380 304 407 c 0
 285 427 265 459 243 502 c 1
 188 419 143 378 107 378 c 0
 80 378 55 395 30 429 c 0
 30 431 29 433 29 435 c 0
 29 452 45 466 64 466 c 0
 67 466 71 466 74 465 c 1
 79 447 86 438 96 438 c 0
 121 438 153 473 185 547 c 0
 190 558 191 569 191 579 c 0
 191 584 191 590 190 595 c 0
 189 600 188 605 187 610 c 1
 -6 610 l 1
 -6 673 l 1
 578 673 l 1
 578 610 l 1
 456 610 l 1
 480 571 l 2
 500 538 510 506 510 475 c 0x1d
 510 447 503 424 489 407 c 1
 489 58 l 2
 489 43 475 36 448 36 c 0
 438 36 431 37 427 41 c 0
 409 60 386 69 357 69 c 0x5e
 342 69 316 65 280 57 c 0
 245 49 219 45 199 45 c 0
 156 46 124 54 103 70 c 0
 82 86 61 118 40 165 c 1
 39 187 46 198 67 198 c 0
 76 198 85 195 94 189 c 1
 107 155 120 132 134 121 c 0
 148 109 165 103 187 103 c 0x8e
 201 103 225 106 260 113 c 0
 308 122 344 126 371 126 c 0
 394 126 413 124 427 118 c 1
 427 372 l 1x4e
EndSplineSet
Validated: 33
Ligature2: "'vatu' Vattu Variants in Bengali lookup 7 subtable" u09b8 u09b0_u09cd.blwf
EndChar

StartChar: u09b9_u09b0_u09cd.blwf.vatu
Encoding: 65615 -1 95
GlifName: u09b9_u09b0_u09cd.blwf.vatu
Width: 453
GlyphClass: 3
Flags: HW
HStem: -103 45<-33.7441 86.3722> -47 51<136.697 252.755> 536 58<199.172 307.268> 610 63<-7 106 183 454>
VStem: 57 55<402.438 490.842> 262 52<-14 51> 352 57<354.894 491.687>
AnchorPoint: "Anchor-1" 486 -52 basechar 0
LayerCount: 2
Fore
SplineSet
57 423 m 1
 57 487 98 554 150 574 c 1
 106 610 l 1
 -7 610 l 1
 -7 673 l 1
 454 673 l 1
 454 610 l 1
 183 610 l 2
 179 610 210 599 215 592 c 1
 222 594 229 594 237 594 c 0
 292 594 335 576 367 539 c 1
 380 521 l 1
 399 491 409 457 409 416 c 0
 409 405 408 393 407 382 c 0
 382 286 295 229 148 211 c 1
 500 -6 l 1
 501 -10 501 -14 501 -18 c 0
 501 -35 493 -44 476 -44 c 0
 475 -44 474 -44 473 -44 c 2
 470 -44 l 1
 314 51 l 1
 314 -68 l 2
 314 -83 302 -91 278 -91 c 0
 270 -91 264 -88 262 -84 c 0
 250 -59 233 -47 211 -47 c 0
 198 -47 178 -52 151 -63 c 0
 88 -89 44 -103 19 -103 c 0
 -22 -103 -60 -79 -95 -30 c 1
 -95 -14 -93 0 -79 0 c 0
 -72 0 -64 -3 -53 -10 c 1
 -36 -42 -13 -58 14 -58 c 0
 28 -58 47 -52 72 -42 c 2
 140 -15 l 2
 175 -2 198 4 208 4 c 0
 224 4 242 -2 262 -14 c 1
 262 83 l 1
 27 227 l 1
 21 235 19 243 19 252 c 0
 19 271 26 280 43 280 c 0
 46 280 51 279 55 278 c 0
 82 274 108 272 132 272 c 0
 243 272 316 310 349 387 c 1
 351 397 352 407 352 418 c 0
 352 460 337 492 308 514 c 1
 293 523 l 1
 274 531 l 2
 262 535 248 536 234 536 c 0
 157 536 116 496 112 416 c 1
 106 407 97 402 84 402 c 0
 70 402 62 409 57 423 c 1
EndSplineSet
Validated: 33
Ligature2: "'vatu' Vattu Variants in Bengali lookup 7 subtable" u09b9 u09b0_u09cd.blwf
EndChar

StartChar: janya_u09b0_u09cd.blwf.vatu
Encoding: 65616 -1 96
GlifName: janya_u09b0_u09cd.blwf.vatu
Width: 864
GlyphClass: 3
Flags: HW
HStem: -115 45<115.959 237.539> -59 51<288.143 401.846> 28 52<302.089 411.186> 69 59<652.765 749.987> 227 56<667.625 735.25> 610 63<-6 298 397 865>
VStem: 29 59<412.65 526.456> 208 62<350.441 504.814> 412 51<-26 30> 530 66<209.187 292.137> 755 59<131.779 213.721 303.264 381.211>
LayerCount: 2
Fore
SplineSet
753 173 m 0xdfe0
 753 206 727 227 689 227 c 1
 674 232 667 242 667 255 c 0
 667 269 673 280 688 283 c 0
 719 289 755 309 755 346 c 0
 755 373 735 388 696 390 c 1
 662 383 638 371 621 353 c 1
 608 337 l 1
 590 307 l 2
 588 303 586 299 583 293 c 1
 592 275 596 255 596 233 c 0
 596 229 596 224 596 220 c 0
 596 216 596 213 595 209 c 1
 616 183 633 165 646 155 c 0
 662 142 691 128 715 128 c 0
 734 128 750 137 753 163 c 0
 753 166 753 169 753 173 c 0xdfe0
351 577 m 1
 311 555 270 482 270 419 c 0
 270 381 283 353 309 335 c 1
 435 392 l 1
 398 479 370 540 351 577 c 1
813 170 m 0
 813 122 782 69 721 69 c 0
 681 69 640 86 600 120 c 0
 588 130 578 140 569 150 c 1
 545 113 524 86 504 69 c 0xdfe0
 492 59 478 50 463 43 c 1
 463 -80 l 2
 463 -95 451 -103 427 -103 c 0
 419 -103 414 -101 412 -97 c 0
 400 -72 382 -59 360 -59 c 0
 347 -59 327 -65 300 -76 c 0
 237 -102 193 -115 168 -115 c 0
 127 -115 90 -91 55 -42 c 1
 55 -25 56 -12 70 -12 c 0
 77 -12 86 -15 97 -22 c 1
 114 -54 137 -70 164 -70 c 0
 178 -70 197 -65 222 -55 c 2
 290 -27 l 1
 325 -14 347 -8 357 -8 c 0
 373 -8 392 -14 412 -26 c 1
 412 30 l 1
 402 29 391 28 381 28 c 0
 286 28 203 85 132 199 c 0
 73 295 39 397 29 506 c 1
 35 521 45 528 57 528 c 0
 66 528 76 523 88 515 c 1
 103 408 137 310 190 223 c 0
 248 128 310 80 376 80 c 0xefe0
 415 80 455 96 490 134 c 0
 519 165 530 202 530 241 c 0
 530 286 512 322 475 349 c 1
 462 345 435 330 394 306 c 0
 360 286 332 276 311 276 c 0
 300 276 288 278 277 283 c 1
 231 322 208 370 208 427 c 0
 208 495 248 571 298 610 c 1
 -6 610 l 1
 -6 673 l 1
 865 673 l 1
 865 610 l 1
 397 610 l 1
 491 405 l 1
 514 394 535 377 553 355 c 1
 575 390 603 416 636 434 c 0
 658 446 680 451 702 451 c 0
 759 451 814 403 814 345 c 0
 814 311 800 283 770 259 c 1
 799 236 813 206 813 170 c 0
EndSplineSet
Validated: 1
EndChar

StartChar: bn_ka_ssa.akhn_bn_raphala.vatu
Encoding: 65617 -1 97
GlifName: bn_ka_ssa.akhn_bn_raphala.vatu
Width: 832
GlyphClass: 3
Flags: HW
HStem: 25 56<126.88 315.504> 57 58<288.202 409.469> 184 46<614.995 653.881> 368 42<24.791 59.2519> 610 63<-11 111.066 169 337 392.971 488 545 832>
VStem: 19 53<139.73 185.517> 128 60<512.732 592.257> 288 66<282.331 404.571> 332 60<541.367 609.508> 488 57<135 408 494 610> 688 63<260.143 343.868>
LayerCount: 2
Fore
SplineSet
405 610 m 1x3ee0
 396 600 392 590 392 580 c 0
 392 553 424 524 488 494 c 1
 488 610 l 1
 405 610 l 1x3ee0
184 514 m 1
 269 503 354 435 354 343 c 0x3f60
 354 319 347 294 335 269 c 1
 485 135 l 1
 485 175 l 1
 488 175 l 1
 488 430 l 1
 384 477 332 526 332 578 c 0
 332 588 333 599 337 610 c 1
 169 610 l 1
 181 591 188 570 188 548 c 0
 188 538 187 527 184 514 c 1
201 155 m 1
 184 158 167 170 167 191 c 0
 167 197 169 202 173 206 c 0
 249 249 288 294 288 342 c 0
 288 400 235 456 176 456 c 0
 169 456 162 455 155 453 c 1
 134 420 104 392 63 368 c 0
 62 368 60 368 59 368 c 0
 37 368 24 376 24 397 c 0
 24 402 26 406 29 410 c 1
 69 430 128 489 128 545 c 0
 128 578 108 600 68 610 c 1
 -11 610 l 1
 -11 673 l 1
 832 673 l 1
 832 610 l 1
 545 610 l 1
 545 471 l 1
 603 451 651 427 689 396 c 0
 730 363 751 330 751 297 c 0
 751 254 716 216 644 185 c 0
 643 185 641 184 640 184 c 0
 626 184 613 201 613 217 c 0
 613 222 614 226 615 230 c 1
 664 251 688 275 688 300 c 0
 688 339 640 375 545 408 c 1
 545 175 l 1
 547 175 l 1
 547 33 l 2
 547 18 534 10 507 10 c 0
 497 10 490 12 485 17 c 0
 460 44 430 57 395 57 c 0x7f60
 373 57 342 51 304 40 c 0
 271 30 239 25 207 25 c 0
 110 25 48 70 19 160 c 1
 20 178 32 187 55 187 c 0
 61 187 66 186 72 184 c 1
 94 115 138 81 202 81 c 0xbf60
 222 81 245 84 270 91 c 0
 327 107 370 115 400 115 c 2
 410 115 l 1x7f60
 294 221 l 1
 269 197 238 175 201 155 c 1
EndSplineSet
Validated: 1
Ligature2: "'vatu' Vattu Variants in Bengali lookup 7 subtable" u0995_u09cd_u09b7.akhn u09b0_u09cd.blwf
EndChar

StartChar: u09a4_u09cd_u09a4_u09b0
Encoding: 65618 -1 98
GlifName: u09a4_u09cd.half_u09a4_u09b0_u09cd.blwf.vatu.pres
Width: 704
GlyphClass: 3
Flags: HW
HStem: -107 45<157.476 281.22> -52 52<327.666 444.653> 31 60<338.645 453.048> 519 57<358.07 479.931> 610 63<-13 702>
VStem: 18 55<511.333 555.688> 266 59<341.416 486.513> 454 51<-94.8398 -61.7084 -19 33> 523 59<357.839 476.532> 552 59<127.319 255.444>
LayerCount: 2
Fore
SplineSet
-13 673 m 1xff
 702 673 l 1
 702 610 l 1
 -13 610 l 1
 -13 673 l 1xff
266 419 m 0
 266 503 331 576 414 576 c 0
 459 576 497 561 530 531 c 1
 545 515 l 1
 569 486 582 453 582 417 c 0xff80
 582 382 569 350 546 321 c 1
 589 283 611 239 611 189 c 0
 611 144 593 106 557 76 c 0
 542 63 524 52 505 45 c 1
 505 -73 l 2
 505 -88 493 -96 469 -96 c 0
 461 -96 456 -93 454 -89 c 0
 442 -64 424 -52 402 -52 c 0
 389 -52 369 -57 342 -68 c 0
 279 -94 235 -107 210 -107 c 0
 169 -107 132 -84 97 -35 c 1
 97 -19 98 -4 112 -4 c 0
 119 -4 128 -8 139 -15 c 1
 156 -47 179 -62 206 -62 c 0
 220 -62 239 -57 264 -47 c 2
 332 -20 l 2
 367 -7 389 0 399 -0 c 0
 415 0 434 -7 454 -19 c 1
 454 33 l 1
 443 32 430 31 417 31 c 0
 365 31 308 55 244 104 c 0
 218 125 194 146 174 168 c 0
 115 235 18 383 18 528 c 0
 18 546 24 557 42 557 c 0
 55 557 65 550 73 536 c 1
 115 388 l 1
 132 336 156 290 186 249 c 0
 264 144 345 91 429 91 c 0
 504 91 552 124 552 190 c 0xff40
 552 227 537 258 505 276 c 0
 484 287 473 297 473 310 c 0
 473 321 479 336 495 351 c 0
 513 369 523 389 523 414 c 0xff80
 523 472 475 519 415 519 c 0
 405 519 394 520 385 515 c 0
 344 496 325 464 325 425 c 0
 325 407 329 386 337 362 c 1
 338 341 331 330 310 330 c 0
 300 330 292 334 286 342 c 0
 273 366 266 392 266 419 c 0
EndSplineSet
Validated: 33
EndChar

StartChar: u0995_u09cd_u0995.cjct
Encoding: 65619 -1 99
GlifName: u0995_u09cd_u0995.cjct
Width: 583
GlyphClass: 3
Flags: HW
HStem: 9 50<405.235 442.22> 210 56<353 427.244> 337 50<408.224 445.195> 538 56<355 432.18> 610 63<-5 293 355 586>
VStem: 292 63<56 210 285 293 356 363 364 524 594 610> 457 51<70.4406 181.56 396.003 513.541>
LayerCount: 2
Fore
SplineSet
291 56 m 1
 291 219 l 1
 139 159 l 1
 291 56 l 1
510 460 m 0
 510 403 484 338 431 337 c 0
 416 337 408 348 408 363 c 0
 408 372 411 380 418 387 c 1
 442 392 459 421 459 455 c 0
 459 469 459 483 451 495 c 0
 432 525 403 538 371 538 c 0
 366 538 360 538 355 537 c 1
 355 317 l 2
 355 312 355 308 353 304 c 1
 353 266 l 1
 383 266 412 258 435 248 c 0
 484 224 508 185 508 132 c 0
 508 75 481 9 428 9 c 0
 413 9 405 20 405 35 c 0
 405 44 409 52 416 59 c 1
 439 64 457 94 457 127 c 0
 457 141 454 154 448 167 c 1
 427 195 399 210 364 210 c 0
 362 210 359 210 357 210 c 2
 353 210 l 1
 353 3 l 2
 353 -10 340 -16 315 -16 c 0
 305 -16 297 -14 292 -10 c 2
 59 146 l 2
 52 151 48 157 48 166 c 0
 48 175 53 182 64 187 c 2
 292 285 l 1
 292 293 l 1
 42 429 l 2
 28 436 21 449 21 469 c 0
 21 476 22 481 25 486 c 1
 293 585 l 1
 293 610 l 1
 -5 610 l 1
 -5 673 l 1
 586 673 l 1
 586 610 l 1
 355 610 l 1
 355 594 l 1
 358 594 362 594 365 594 c 0
 421 594 472 564 496 522 c 0
 506 507 510 486 510 460 c 0
292 356 m 1
 292 363 l 1
 293 364 l 1
 293 524 l 1
 107 452 l 1
 292 356 l 1
EndSplineSet
Validated: 1
LCarets2: 2 0 0
Ligature2: "'cjct' Conjunct Forms in Bengali2 lookup 13" u0995 u09cd u0995
EndChar

StartChar: u0995_u09cd_u099f.cjct
Encoding: 65620 -1 100
GlifName: u0995_u09cd_u099f.cjct
Width: 553
GlyphClass: 3
Flags: HW
HStem: 39 59<193.722 324.242> 610 63<-5 263 325 364.647 423.385 555> 737 61<52.9951 347.062>
VStem: -30 54<826.771 906.561> 263 62<557.957 610> 365 61<673.134 717.956> 379 55<151.736 251.596> 423 56<357.277 473.154>
LayerCount: 2
Fore
SplineSet
263 489 m 1xf8
 118 431 l 1
 233 339 l 1
 245 367 256 417 263 489 c 1xf8
325 562 m 1
 402 551 479 504 479 421 c 0
 479 388 465 352 439 315 c 0
 438 315 437 315 436 315 c 0
 417 315 396 325 396 343 c 0
 396 347 397 350 399 353 c 0
 415 380 423 403 423 424 c 0xf9
 423 465 391 493 325 506 c 1
 326 498 326 490 326 481 c 0
 326 422 312 360 283 296 c 0
 250 223 210 176 162 154 c 1
 186 117 217 98 256 98 c 0
 318 98 379 151 379 213 c 0
 379 222 378 231 375 240 c 1
 383 248 392 253 402 253 c 0
 412 253 422 249 430 242 c 1
 433 229 434 216 434 203 c 0xfa
 434 147 409 103 359 72 c 0
 331 54 294 39 251 39 c 0
 192 39 144 70 107 132 c 0
 101 142 99 151 99 160 c 0
 99 170 102 181 109 190 c 1
 155 215 188 246 209 283 c 1
 40 416 l 2
 34 421 31 427 31 434 c 0
 31 449 38 460 51 465 c 2
 263 551 l 1
 263 610 l 1
 -5 610 l 1
 -5 673 l 1
 364 673 l 1
 364 676 365 678 365 681 c 0
 365 721 317 735 270 737 c 0
 150 744 85 748 75 751 c 0
 4 769 -31 814 -30 887 c 1
 -30 889 l 1
 -24 901 -15 907 -3 907 c 0
 8 907 16 903 24 894 c 1
 24 822 68 794 140 794 c 0
 144 794 147 794 151 794 c 2
 266 798 l 1
 370 798 418 763 426 673 c 1xfc
 555 673 l 1
 555 610 l 1
 325 610 l 1
 325 562 l 1
EndSplineSet
Validated: 33
Ligature2: "'cjct' Conjunct Forms in Bengali2 lookup 13" u0995 u09cd u099f
EndChar

StartChar: u0995_u09cd_u09a4.cjct
Encoding: 65621 -1 101
GlifName: u0995_u09cd_u09a4.cjct
Width: 893
GlyphClass: 3
Flags: HW
HStem: 31 60<338.645 513.56> 270 50<662.297 749.357> 440 60<640.857 747.165> 519 57<358.07 479.603> 610 63<-13 894>
VStem: 18 55<511.333 555.688> 266 59<341.416 486.513> 552 59<128.667 255.444> 763 54<334.102 412.188>
LayerCount: 2
Fore
SplineSet
266 419 m 0
 266 503 331 576 414 576 c 0
 495 576 569 514 580 441 c 1
 608 470 l 1
 630 490 655 500 684 500 c 0
 692 500 700 499 708 498 c 0
 764 488 817 447 817 382 c 0
 817 374 816 365 814 357 c 0
 799 299 757 270 688 270 c 0
 686 270 683 270 681 270 c 2
 677 270 l 1
 667 275 662 283 662 293 c 0
 662 306 668 315 681 320 c 1
 685 320 688 320 692 320 c 0
 732 320 763 340 763 382 c 0
 763 389 763 395 761 401 c 0
 745 427 724 440 700 440 c 0
 669 440 635 420 598 381 c 0
 583 366 571 351 562 336 c 1
 561 341 l 1
 557 334 552 328 546 321 c 1
 589 283 611 239 611 189 c 0
 611 89 522 31 417 31 c 0
 365 31 308 55 244 104 c 0
 218 125 194 146 174 168 c 0
 115 235 18 383 18 528 c 0
 18 546 24 557 42 557 c 0
 55 557 65 550 73 536 c 1
 115 388 l 1
 132 336 156 290 186 249 c 0
 264 144 345 91 429 91 c 0
 504 91 552 124 552 190 c 0
 552 227 537 258 505 276 c 0
 484 287 473 297 473 310 c 0
 473 321 479 336 495 351 c 0
 513 369 523 389 523 414 c 0
 523 472 475 519 415 519 c 0
 405 519 394 520 385 515 c 0
 344 496 325 464 325 425 c 0
 325 407 329 386 337 362 c 1
 338 341 331 330 310 330 c 0
 300 330 292 334 286 342 c 0
 273 366 266 392 266 419 c 0
894 610 m 1
 -13 610 l 1
 -13 673 l 1
 894 673 l 1
 894 610 l 1
EndSplineSet
Validated: 33
Substitution2: "'salt' Stylistic Alternatives in Bengali2 lookup 17-1" u0995_u09cd_u09a4.salt
Ligature2: "'cjct' Conjunct Forms in Bengali2 lookup 13" u0995 u09cd u09a4
EndChar

StartChar: u0995_u09cd_u09a8.cjct
Encoding: 65622 -1 102
GlifName: u0995_u09cd_u09a8.cjct
Width: 584
GlyphClass: 3
Flags: HW
HStem: 17 46<97.7277 145.582> 240 53<100.9 224.059> 337 50<405.235 442.426> 538 56<353 429.464> 610 63<-8 291 353 583>
VStem: 10 56<93.6722 205.407> 291 62<11.8613 179.594 207 292 355 524 594 610> 457 50<398.223 511.258>
LayerCount: 2
Fore
SplineSet
124 17 m 0
 75 17 10 107 10 159 c 0
 10 180 16 202 28 223 c 0
 54 270 94 293 146 293 c 0
 206 293 264 254 291 207 c 1
 291 292 l 1
 39 429 l 2
 25 436 18 449 18 469 c 0
 18 476 19 481 22 486 c 1
 291 585 l 1
 291 610 l 1
 -8 610 l 1
 -8 673 l 1
 583 673 l 1
 583 610 l 1
 353 610 l 1
 353 594 l 1
 356 594 360 594 363 594 c 0
 419 594 469 564 493 522 c 0
 503 507 507 486 507 460 c 0
 507 401 482 338 428 337 c 0
 413 337 405 348 405 363 c 0
 405 372 409 380 416 387 c 1
 439 392 457 423 457 455 c 0
 457 469 456 483 448 495 c 0
 429 525 400 538 368 538 c 0
 363 538 358 538 353 537 c 1
 353 29 l 2
 353 17 341 11 318 11 c 0
 299 11 291 17 291 29 c 0
 291 82 291 111 290 118 c 0
 286 151 275 177 258 194 c 0
 227 225 196 240 163 240 c 0
 113 240 66 201 66 148 c 0
 66 110 89 82 135 63 c 0
 142 60 146 55 146 46 c 0
 146 27 139 17 124 17 c 0
291 355 m 1
 291 524 l 1
 104 452 l 1
 291 355 l 1
EndSplineSet
Validated: 1
Ligature2: "'cjct' Conjunct Forms in Bengali2 lookup 13" u0995 u09cd u09a8
EndChar

StartChar: u0995_u09cd_u09ae.cjct
Encoding: 65623 -1 103
GlifName: u0995_u09cd_u09ae.cjct
Width: 699
GlyphClass: 3
Flags: HW
HStem: 225 58<355.187 450.838> 337 50<407.235 446.716> 538 56<355 431.464> 610 63<-6 293 355 557 619 695>
VStem: 223 62<87.3121 197.531> 293 62<282 292 355 524 594 610> 459 51<397.824 511.258> 557 62<41.6394 139.324 173 610>
LayerCount: 2
Fore
SplineSet
293 355 m 1
 293 524 l 1
 107 452 l 1
 293 355 l 1
373 225 m 0
 324 225 285 192 285 140 c 0
 285 97 309 74 357 71 c 1
 365 64 369 55 369 43 c 0
 369 28 363 18 350 13 c 1
 296 20 274 36 249 71 c 0
 231 100 223 128 223 158 c 0
 223 208 252 259 293 275 c 1
 293 292 l 1
 41 429 l 2
 27 436 20 449 20 469 c 0
 20 476 22 481 25 486 c 1
 293 585 l 1
 293 610 l 1
 -6 610 l 1
 -6 673 l 1
 695 673 l 1
 695 610 l 1
 619 610 l 1
 619 60 l 2
 619 47 609 41 589 41 c 0
 568 41 557 47 557 60 c 2
 557 101 l 2
 557 118 537 143 496 174 c 0
 452 208 411 225 373 225 c 0
355 282 m 1
 360 282 364 283 369 283 c 0
 447 283 533 230 557 173 c 1
 557 610 l 1
 355 610 l 1
 355 594 l 1
 358 594 362 594 365 594 c 0
 421 594 471 564 495 522 c 0
 505 507 510 486 510 460 c 0
 510 402 484 338 430 337 c 0
 415 337 407 348 407 363 c 0
 407 372 411 380 418 387 c 1
 442 392 459 421 459 455 c 0
 459 469 458 483 450 495 c 0
 431 525 402 538 370 538 c 0
 365 538 360 538 355 537 c 1
 355 282 l 1
EndSplineSet
Validated: 1
Ligature2: "'cjct' Conjunct Forms in Bengali2 lookup 13" u0995 u09cd u09ae
EndChar

StartChar: u0995_u09cd_u09b2.cjct
Encoding: 65624 -1 104
GlifName: u0995_u09cd_u09b2.cjct
Width: 582
GlyphClass: 3
Flags: HW
HStem: 34 55<-18.8774 77.4355> 224 62<164.063 242.023> 243 55<-21.4912 87.0579> 337 50<405.235 442.426> 538 56<353 429.464> 610 63<-8 291 353 583>
VStem: -100 54<114.153 219.671> 288 65<35.5847 161.687 209 293 356 396 398 524 594 610> 457 50<398.223 511.258>
LayerCount: 2
Fore
SplineSet
-100 164 m 0xbf80
 -100 233 -40 296 28 298 c 0xbf80
 65 298 100 283 133 252 c 1
 152 274 172 286 193 286 c 0
 229 286 261 260 288 209 c 1
 288 293 l 1
 39 429 l 2
 25 436 18 449 18 469 c 0
 18 476 19 481 22 486 c 1
 291 585 l 1
 291 610 l 1
 -8 610 l 1
 -8 673 l 1
 583 673 l 1
 583 610 l 1
 353 610 l 1
 353 594 l 1
 356 594 360 594 363 594 c 0
 419 594 469 564 493 522 c 0
 503 507 507 486 507 460 c 0
 507 401 482 338 428 337 c 0
 413 337 405 348 405 363 c 0
 405 372 409 380 416 387 c 1
 439 392 457 423 457 455 c 0
 457 469 456 483 448 495 c 0
 429 525 400 538 368 538 c 0
 363 538 358 538 353 537 c 1
 353 317 l 2
 353 312 352 308 350 304 c 1
 350 48 l 2
 350 39 340 35 319 35 c 0
 298 35 288 39 288 48 c 0
 288 94 280 135 262 170 c 0
 245 206 225 224 203 224 c 0xdf80
 185 224 169 212 154 188 c 0
 149 181 143 177 134 177 c 0
 124 177 115 181 107 189 c 1
 94 224 69 243 30 243 c 0
 3 243 -18 231 -33 208 c 0
 -42 194 -46 178 -46 164 c 0
 -46 138 -33 115 -11 104 c 0
 7 95 28 89 54 89 c 0
 56 89 58 89 60 89 c 2
 64 89 l 1
 73 85 78 77 78 64 c 0
 78 38 66 34 41 34 c 0
 -34 34 -100 90 -100 164 c 0xbf80
291 398 m 1
 291 524 l 1
 104 452 l 1
 288 356 l 1
 288 396 l 1
 291 398 l 1
EndSplineSet
Validated: 1
Ligature2: "'cjct' Conjunct Forms in Bengali2 lookup 13" u0995 u09cd u09b2
EndChar

StartChar: u0995_u09cd_u09b8.cjct
Encoding: 65625 -1 105
GlifName: u0995_u09cd_u09b8.cjct
Width: 746
GlyphClass: 3
Flags: HW
HStem: 38 57<156.537 262.089> 161 65<429.473 549.855> 283 64<430.877 483.19> 524 66<368 447.116> 610 63<-6 306 368 607 669 745>
VStem: 55 55<150.605 198.787> 306 62<227 502 590 610> 497 61<358.262 477.685> 607 62<24.673 90.125 175 610>
LayerCount: 2
Fore
SplineSet
306 227 m 1
 306 502 l 1
 114 384 l 1
 306 227 l 1
465 283 m 0
 464 283 462 283 461 283 c 0
 444 283 428 299 428 318 c 0
 428 333 436 343 453 347 c 0
 482 354 497 377 497 415 c 0
 497 483 438 524 368 524 c 1
 368 179 l 1
 421 210 464 226 497 226 c 0
 533 226 570 209 607 175 c 1
 607 610 l 1
 368 610 l 1
 368 590 l 1
 428 589 476 570 511 534 c 1
 525 518 l 1
 547 489 558 454 558 414 c 0
 558 349 523 291 465 283 c 0
669 46 m 2
 669 33 650 22 631 22 c 0
 618 22 610 26 607 35 c 0
 580 119 544 161 501 161 c 0
 482 161 459 154 431 140 c 0
 419 134 391 118 346 91 c 0
 286 56 236 38 197 38 c 0
 136 38 90 79 57 162 c 0
 56 165 55 168 55 171 c 0
 55 187 70 201 90 201 c 0
 99 201 106 197 110 190 c 0
 139 127 168 95 199 95 c 0
 223 95 258 111 306 143 c 1
 41 364 l 2
 34 370 30 378 30 388 c 0
 30 399 35 408 44 414 c 2
 306 577 l 1
 306 610 l 1
 -6 610 l 1
 -6 673 l 1
 745 673 l 1
 745 610 l 1
 669 610 l 1
 669 46 l 2
EndSplineSet
Validated: 1
Ligature2: "'cjct' Conjunct Forms in Bengali2 lookup 13" u0995 u09cd u09b8
EndChar

StartChar: bn_ka_ssa.akhn_u09cd_u09a3.cjct
Encoding: 65626 -1 106
GlifName: bn_ka_ssa.akhn_u09cd_u09a3.cjct
Width: 833
GlyphClass: 3
Flags: HW
HStem: 3 46<340.313 442.597> 184 46<615.995 654.881> 368 42<25.791 60.2519> 610 63<-10 112.066 170 338 393.971 489 546 833>
VStem: 129 59<512.732 592.257> 283 50<-85.2395 -5.43736> 289 65<282.331 405.917> 333 60<541.367 609.508> 489 62<-144.268 -41.8242 -6 60.5938 133 408 494 610> 688 64<260.143 343.868>
LayerCount: 2
Fore
SplineSet
406 610 m 1xf9c0
 397 600 393 590 393 580 c 0
 393 553 425 524 489 494 c 1
 489 610 l 1
 406 610 l 1xf9c0
489 133 m 1
 489 430 l 1
 385 477 333 526 333 578 c 0xf9c0
 333 588 334 599 338 610 c 1
 170 610 l 1
 182 591 188 570 188 548 c 0
 188 538 188 527 185 514 c 1
 230 508 268 490 301 460 c 0
 337 427 354 388 354 343 c 0xfac0
 354 319 348 294 336 269 c 1
 489 133 l 1
289 342 m 0xfac0
 289 400 236 456 177 456 c 0
 170 456 163 455 156 453 c 1
 135 420 104 392 63 368 c 0
 62 368 60 368 59 368 c 0
 38 368 25 376 25 397 c 0
 25 402 27 406 30 410 c 1
 70 430 129 489 129 545 c 0
 129 578 109 600 69 610 c 1
 -10 610 l 1
 -10 673 l 1
 833 673 l 1
 833 610 l 1
 546 610 l 1
 546 471 l 1
 604 451 652 427 690 396 c 0
 731 363 752 330 752 297 c 0
 752 254 717 216 645 185 c 0
 644 185 642 184 641 184 c 0
 627 184 614 201 614 217 c 0
 614 222 615 226 616 230 c 1
 665 251 688 275 688 300 c 0
 688 339 641 375 546 408 c 1
 547 156 l 1
 551 108 l 1
 551 -127 l 2
 551 -139 541 -145 521 -145 c 0
 500 -145 489 -138 489 -125 c 0
 489 -87 484 -61 473 -48 c 0
 444 -14 415 3 385 3 c 0
 358 3 333 -14 333 -43 c 0
 333 -63 346 -81 369 -97 c 0
 373 -100 375 -104 375 -111 c 0
 375 -129 368 -138 356 -138 c 0
 354 -138 353 -137 350 -136 c 0
 305 -112 283 -77 283 -31 c 0xfcc0
 283 17 322 49 375 49 c 0
 420 49 457 31 489 -6 c 1
 489 44 l 1
 487 45 485 46 484 47 c 2
 295 221 l 1
 270 197 239 175 202 155 c 1
 186 157 167 171 167 191 c 0
 167 197 170 202 174 206 c 0
 250 249 289 294 289 342 c 0xfac0
EndSplineSet
Validated: 1
Ligature2: "'cjct' Conjunct Forms in Bengali2 lookup 13" u0995_u09cd_u09b7.akhn u09cd u09a3
EndChar

StartChar: bn_ka_ssa.akhn_u09cd_u09ae.cjct
Encoding: 65627 -1 107
GlifName: bn_ka_ssa.akhn_u09cd_u09ae.cjct
Width: 750
GlyphClass: 3
Flags: HW
HStem: 39 55<429.047 488.812> 252 55<458.621 547.23> 440 50<27.8348 70.0146> 485 59<342.249 396> 505 56<166 220.94> 610 63<-10 101.443 156 269 327.001 396 458 615 677 752>
VStem: 106 60<561 602.805> 245 59<395.077 482.344> 268 59<560.976 610> 351 55<116.765 222.575> 396 62<314 473 544 610> 517 59<376.267 449.928> 615 62<34.7317 166.385 243 610>
LayerCount: 2
Fore
SplineSet
458 533 m 1xc638
 516 518 576 480 576 412 c 0
 576 383 562 356 534 331 c 1
 531 331 528 331 525 331 c 0
 503 331 482 340 482 361 c 0
 482 363 482 365 483 368 c 1
 505 381 517 396 517 413 c 0
 517 435 497 455 458 473 c 1
 458 303 l 1
 473 306 487 307 498 307 c 0
 539 307 578 286 615 243 c 1
 615 610 l 1
 458 610 l 1
 458 533 l 1xc638
479 39 m 1
 408 39 351 94 351 168 c 0
 351 198 359 226 378 251 c 1
 258 350 l 1
 239 335 213 320 178 305 c 1
 158 312 147 324 147 341 c 0
 147 347 150 352 155 357 c 1
 215 378 245 405 245 440 c 0
 245 476 205 505 165 505 c 0
 156 505 147 504 139 501 c 1
 105 472 80 452 62 440 c 1
 39 442 26 453 26 474 c 0
 26 479 28 484 30 490 c 1
 60 499 106 533 106 571 c 0
 106 591 92 604 63 610 c 1
 -10 610 l 1
 -10 673 l 1
 752 673 l 1
 752 610 l 1
 677 610 l 1
 677 54 l 2
 677 41 667 34 647 34 c 0
 630 34 620 39 615 47 c 1
 615 81 612 106 608 122 c 0
 598 163 581 196 557 221 c 0
 537 242 515 252 492 252 c 0
 449 252 406 215 406 171 c 0xef58
 406 133 436 94 477 94 c 0
 481 94 485 94 489 95 c 1
 496 92 500 86 500 78 c 0
 500 63 492 50 479 39 c 1
396 610 m 1xd6b8
 329 610 l 1
 328 605 327 601 327 597 c 0
 327 571 349 553 396 544 c 1
 396 610 l 1xd6b8
166 561 m 1xceb8
 231 561 304 501 304 434 c 0
 304 421 300 408 294 395 c 1
 396 314 l 1
 396 485 l 1xd738
 339 501 302 521 284 546 c 0
 273 561 268 577 268 596 c 0
 268 600 268 605 269 610 c 1
 156 610 l 1
 163 599 166 582 166 561 c 1xceb8
EndSplineSet
Validated: 1
Ligature2: "'cjct' Conjunct Forms in Bengali2 lookup 13" u0995_u09cd_u09b7.akhn u09cd u09ae
EndChar

StartChar: u0997_u09cd_u0997.cjct
Encoding: 65628 -1 108
GlifName: u0997_u09cd_u0997.cjct
Width: 509
GlyphClass: 3
Flags: HW
HStem: 185 49<106.261 160.941> 282 62<142.664 287.062> 610 63<128.916 298.672 432 508>
VStem: 155 63<432.651 518.667> 169 65<87.4479 179.747> 372 62<22.9944 203.326 243 540.572 601 609.221>
LayerCount: 2
Fore
SplineSet
169 131 m 0xec
 169 156 156 185 131 185 c 0
 120 185 103 177 81 160 c 1
 74 157 67 156 62 156 c 0
 47 156 39 166 36 185 c 1
 52 278 99 307 183 339 c 0
 192 342 202 344 214 344 c 0
 245 344 277 335 307 318 c 0
 341 298 363 274 372 243 c 1
 372 289 l 1
 370 289 l 1
 370 439 l 2
 370 512 355 548 318 580 c 0
 290 604 257 616 220 616 c 0
 185 616 145 602 102 573 c 1
 179 567 218 538 218 485 c 0
 218 450 200 415 163 382 c 0
 148 369 133 358 116 349 c 0
 113 348 111 348 108 348 c 0
 92 348 79 360 79 377 c 0
 79 382 81 388 84 394 c 1
 132 421 155 451 155 484 c 0xf4
 155 509 143 521 118 521 c 0
 103 521 86 514 68 500 c 0
 64 499 60 498 56 498 c 0
 37 498 27 507 23 526 c 1
 37 608 111 667 208 667 c 0
 210 667 211 667 213 667 c 0
 295 663 325 644 370 601 c 1
 370 636 395 673 432 673 c 2
 508 673 l 1
 508 610 l 1
 432 610 l 1
 432 382 l 1
 434 382 l 1
 434 42 l 2
 434 29 422 22 399 22 c 0
 380 22 372 28 372 39 c 2
 372 143 l 2
 372 211 292 272 229 281 c 0
 223 282 216 282 210 282 c 0
 169 282 135 265 106 230 c 1
 115 233 125 234 135 234 c 0
 199 234 234 176 234 124 c 0
 234 84 203 35 163 35 c 0
 149 35 131 49 131 67 c 0
 131 73 133 78 138 81 c 0
 159 94 169 111 169 131 c 0xec
EndSplineSet
Validated: 1
Ligature2: "'cjct' Conjunct Forms in Bengali2 lookup 13" u0997 u09cd u0997
EndChar

StartChar: u0997_u09cd_u09a4.cjct
Encoding: 65629 -1 109
GlifName: u0997_u09cd_u09a4.cjct
Width: 517
GlyphClass: 3
Flags: HW
HStem: 20 61<199.373 382.454> 290 59<323.575 379> 610 63<137.916 307.672 441 517>
VStem: 164 63<432.651 518.667> 246 58<187.495 212.858> 379 62<348 544.453 601 609.221> 434 62<128.989 268.981>
LayerCount: 2
Fore
SplineSet
298 81 m 0xfa
 373 81 434 119 434 199 c 0xfa
 434 246 417 275 385 289 c 1
 379 289 l 1
 379 290 l 1
 376 290 374 290 371 290 c 0
 330 290 308 261 304 202 c 1
 300 191 291 186 279 186 c 0
 266 186 256 191 246 202 c 1
 246 206 246 209 246 213 c 0
 246 288 295 341 368 349 c 0
 372 349 375 348 379 348 c 1
 379 439 l 2
 379 511 364 549 327 580 c 0
 299 604 266 616 229 616 c 0
 194 616 154 602 111 573 c 1
 188 567 227 538 227 485 c 0
 227 450 209 415 172 382 c 0
 157 369 142 358 125 349 c 0
 122 348 120 348 117 348 c 0
 101 348 88 360 88 377 c 0
 88 382 90 388 93 394 c 1
 141 421 164 451 164 484 c 0
 164 509 152 521 127 521 c 0
 112 521 95 514 77 500 c 0
 73 499 69 498 65 498 c 0
 46 498 36 507 32 526 c 1
 46 608 120 667 217 667 c 0
 219 667 220 667 222 667 c 0
 304 663 334 644 379 601 c 1
 379 636 404 673 441 673 c 2
 517 673 l 1
 517 610 l 1
 441 610 l 1
 441 322 l 1xfc
 465 301 481 272 490 235 c 0
 494 221 496 206 496 192 c 0
 496 161 489 135 475 113 c 0
 436 51 378 20 303 20 c 0
 243 20 184 38 125 76 c 0
 66 114 24 161 -4 218 c 1
 -4 238 4 249 24 249 c 0
 31 249 40 247 48 243 c 1
 70 195 105 156 154 126 c 0
 202 96 250 81 298 81 c 0xfa
EndSplineSet
Validated: 1
Ligature2: "'cjct' Conjunct Forms in Bengali2 lookup 13" u0997 u09cd u09a4
EndChar

StartChar: u0997_u09cd_u09a6.cjct
Encoding: 65630 -1 110
GlifName: u0997_u09cd_u09a6.cjct
Width: 648
GlyphClass: 3
Flags: HW
HStem: 616 51<129.917 286.385 421 646.654>
VStem: 145 63<432.651 518.529> 359 62<289 340.016 387 544.242 601 610> 544 47<137.273 412.825>
LayerCount: 2
Fore
SplineSet
208 485 m 0
 208 450 189 415 152 382 c 0
 137 369 122 358 105 349 c 0
 103 349 100 348 98 348 c 0
 82 348 68 360 68 377 c 0
 68 382 70 388 73 394 c 1
 121 421 145 451 145 484 c 0
 145 509 132 521 107 521 c 0
 92 521 76 514 58 500 c 0
 54 499 49 498 45 498 c 0
 26 498 16 507 12 526 c 1
 27 609 100 667 198 667 c 0
 200 667 201 667 203 667 c 0
 286 663 314 644 359 601 c 1
 359 611 361 620 365 629 c 1
 365 651 375 663 394 666 c 1
 402 671 411 673 421 673 c 2
 498 673 l 1
 498 667 l 1
 647 667 l 1
 647 609 l 1
 640 609 608 610 553 611 c 1
 504 610 l 1
 421 610 l 1
 421 387 l 1
 438 408 462 431 494 456 c 0
 539 491 572 507 596 507 c 0
 599 507 602 506 604 506 c 0
 622 503 631 495 630 474 c 1
 604 390 591 321 591 267 c 0
 591 208 605 148 632 87 c 1
 634 72 627 60 610 60 c 2
 591 60 l 1
 560 124 544 191 544 260 c 0
 544 313 554 372 572 440 c 1
 516 414 465 372 421 314 c 1
 421 289 l 1
 359 289 l 1
 359 439 l 2
 359 512 344 548 307 580 c 0
 279 604 246 616 209 616 c 0
 174 616 134 602 91 573 c 1
 168 567 208 538 208 485 c 0
EndSplineSet
Validated: 33
Ligature2: "'cjct' Conjunct Forms in Bengali2 lookup 13" u0997 u09cd u09a6
EndChar

StartChar: u0997_u09cd_u09a7.cjct
Encoding: 65631 -1 111
GlifName: u0997_u09cd_u09a7.cjct
Width: 625
GlyphClass: 3
Flags: HW
HStem: 59 50<541.469 578.078> 349 57<419.54 484> 610 63<115.916 285.672 419 624>
VStem: 142 63<432.651 518.667> 356 63<143 299 394 546.27 601 609.221> 461 53<111.788 309> 469 53<207 348.998>
LayerCount: 2
Fore
SplineSet
356 299 m 1xf8
 241 234 l 1
 356 143 l 1
 356 299 l 1xf8
357 601 m 1
 357 636 382 673 419 673 c 2
 624 673 l 1
 624 610 l 1
 419 610 l 1
 419 394 l 1
 439 402 456 406 472 406 c 0
 496 406 512 395 518 373 c 1
 521 352 l 1
 522 326 l 1xfa
 514 190 l 1
 514 141 522 112 537 111 c 2
 566 109 l 1
 574 105 579 98 579 88 c 0
 579 78 574 69 565 59 c 1
 556 58 548 58 541 58 c 0
 525 58 513 60 505 64 c 0
 479 76 461 111 461 169 c 0xfc
 461 175 462 182 462 188 c 2
 469 323 l 2
 469 330 469 336 469 341 c 0xfa
 469 346 462 349 447 349 c 0
 431 349 422 346 419 339 c 1
 419 289 l 1
 418 289 l 1
 418 90 l 2
 418 74 405 66 378 66 c 0
 368 66 361 68 356 71 c 2
 180 214 l 2
 167 224 161 235 161 245 c 0
 161 252 165 258 173 263 c 2
 356 362 l 1
 356 435 l 1
 357 435 l 1
 357 439 l 2
 357 511 342 549 305 580 c 0
 277 604 244 616 207 616 c 0
 172 616 132 602 89 573 c 1
 166 567 205 538 205 485 c 0
 205 450 187 415 150 382 c 0
 135 369 120 358 103 349 c 0
 100 348 98 348 95 348 c 0
 79 348 66 360 66 377 c 0
 66 382 68 388 71 394 c 1
 119 421 142 451 142 484 c 0
 142 509 130 521 105 521 c 0
 90 521 73 514 55 500 c 0
 51 499 47 498 43 498 c 0
 24 498 14 507 10 526 c 1
 24 608 98 667 195 667 c 0
 197 667 198 667 200 667 c 0
 282 663 312 644 357 601 c 1
EndSplineSet
Validated: 1
Ligature2: "'cjct' Conjunct Forms in Bengali2 lookup 13" u0997 u09cd u09a7
EndChar

StartChar: u0997_u09cd_u09a8.cjct
Encoding: 65632 -1 112
GlifName: u0997_u09cd_u09a8.cjct
Width: 500
GlyphClass: 3
Flags: HW
HStem: 38 21G<376.5 397.5> 44 46<165.148 212.582> 267 53<170.365 293.663> 610 63<118.399 288.649 421 498>
VStem: 78 56<120.672 232.196> 145 63<432.651 518.529> 358 63<38.8613 208.573 234 413 414 546.042 601 609.221>
LayerCount: 2
Fore
SplineSet
191 44 m 0x7e
 142 44 78 134 78 186 c 0
 78 207 84 229 96 250 c 0
 122 297 161 320 213 320 c 0
 256 320 295 304 328 272 c 1
 344 255 l 2
 350 248 354 241 358 234 c 1
 358 413 l 1
 359 414 l 1
 359 439 l 2
 359 512 344 548 307 580 c 0
 279 604 246 616 209 616 c 0
 174 616 134 602 91 573 c 1
 168 567 208 538 208 485 c 0
 208 450 189 415 152 382 c 0
 137 369 122 358 105 349 c 0
 103 349 100 348 98 348 c 0
 82 348 68 360 68 377 c 0
 68 382 70 388 73 394 c 1
 121 421 145 451 145 484 c 0
 145 509 132 521 107 521 c 0
 92 521 76 514 58 500 c 0
 54 499 49 498 45 498 c 0
 26 498 16 507 12 526 c 1
 27 609 100 667 198 667 c 0
 200 667 201 667 203 667 c 0
 286 663 314 644 359 601 c 1
 359 636 384 673 421 673 c 2
 498 673 l 1
 498 610 l 1
 421 610 l 1
 421 289 l 1
 420 289 l 1
 420 56 l 2
 420 44 409 38 386 38 c 0xbe
 367 38 358 44 358 56 c 0
 358 109 358 138 357 145 c 0
 353 178 343 204 326 221 c 0
 295 252 263 267 230 267 c 0
 181 267 134 227 134 175 c 0
 134 137 157 109 203 90 c 0
 210 87 213 82 213 73 c 0
 213 54 206 44 191 44 c 0x7e
EndSplineSet
Validated: 1
Ligature2: "'cjct' Conjunct Forms in Bengali2 lookup 13" u0997 u09cd u09a8
EndChar

StartChar: u0997_u09cd_u09ae.cjct
Encoding: 65633 -1 113
GlifName: u0997_u09cd_u09ae.cjct
Width: 714
GlyphClass: 3
Flags: HW
HStem: 33 58<365.013 426.328> 242 62<411 481.523> 610 63<105.916 275.672 409 573 635 711>
VStem: 132 63<432.651 518.667> 280 66<110.368 226.236> 347 62<304 544.242 601 609.221> 573 62<42.7511 160.631 192 610>
LayerCount: 2
Fore
SplineSet
409 411 m 1
 410 409 411 407 411 404 c 2
 411 304 l 1
 458 304 500 285 536 246 c 0
 551 230 563 212 573 192 c 1
 573 610 l 1
 409 610 l 1
 409 411 l 1
347 601 m 1
 347 636 372 673 409 673 c 2
 711 673 l 1
 711 610 l 1
 635 610 l 1
 635 60 l 2
 635 48 626 42 607 42 c 0
 584 42 573 48 573 61 c 2
 573 121 l 2
 573 137 556 160 521 191 c 0
 482 225 447 242 412 242 c 0
 370 242 346 213 346 166 c 0
 346 122 371 95 414 91 c 0
 423 90 427 82 427 66 c 0
 427 44 421 33 409 33 c 0
 408 33 408 33 407 33 c 0
 351 38 328 54 306 91 c 0
 286 123 280 157 280 186 c 0
 280 235 302 271 347 294 c 1
 347 439 l 2
 347 512 332 548 295 580 c 0
 267 604 234 616 197 616 c 0
 162 616 122 602 79 573 c 1
 156 567 195 538 195 485 c 0
 195 450 177 415 140 382 c 0
 125 369 110 358 93 349 c 0
 90 348 88 348 85 348 c 0
 69 348 56 360 56 377 c 0
 56 382 58 388 61 394 c 1
 109 421 132 451 132 484 c 0
 132 509 120 521 95 521 c 0
 80 521 63 514 45 500 c 0
 41 499 37 498 33 498 c 0
 14 498 4 507 0 526 c 1
 14 608 88 667 185 667 c 0
 187 667 188 667 190 667 c 0
 272 663 302 644 347 601 c 1
EndSplineSet
Validated: 1
Ligature2: "'cjct' Conjunct Forms in Bengali2 lookup 13" u0997 u09cd u09ae
EndChar

StartChar: u0997_u09cd_u09b2.cjct
Encoding: 65634 -1 114
GlifName: u0997_u09cd_u09b2.cjct
Width: 516
GlyphClass: 3
Flags: HW
HStem: 48 56<68.8321 163.232> 238 62<249.124 328.624> 257 56<61.6819 172.575> 610 63<135.916 305.672 439 515>
VStem: -15 54<128.567 234> 162 63<432.651 518.667> 374 65<49.8111 175.25 224 411 414 549.833 601 609.221>
LayerCount: 2
Fore
SplineSet
-15 178 m 0xbe
 -15 248 45 311 113 313 c 0xbe
 150 313 185 298 218 267 c 1
 237 289 257 300 278 300 c 0
 314 300 347 275 374 224 c 1
 374 411 l 1
 377 414 l 1
 377 439 l 2
 377 511 362 549 325 580 c 0
 297 604 264 616 227 616 c 0
 192 616 152 602 109 573 c 1
 186 567 225 538 225 485 c 0
 225 450 207 415 170 382 c 0
 155 369 140 358 123 349 c 0
 120 348 118 348 115 348 c 0
 99 348 86 360 86 377 c 0
 86 382 88 388 91 394 c 1
 139 421 162 451 162 484 c 0
 162 509 150 521 125 521 c 0
 110 521 93 514 75 500 c 0
 71 499 67 498 63 498 c 0
 44 498 34 507 30 526 c 1
 44 608 118 667 215 667 c 0
 217 667 218 667 220 667 c 0
 302 663 332 644 377 601 c 1
 377 636 402 673 439 673 c 2
 515 673 l 1
 515 610 l 1
 439 610 l 1
 439 289 l 1
 436 289 l 1
 436 63 l 2
 436 54 425 49 404 49 c 0
 383 49 374 54 374 63 c 0
 374 129 345 238 289 238 c 0xde
 271 238 254 226 239 202 c 0
 234 195 228 192 219 192 c 0
 209 192 200 196 192 204 c 1
 179 239 154 257 115 257 c 0
 88 257 67 246 52 223 c 0
 43 209 39 194 39 179 c 0
 39 156 50 134 68 122 c 0
 86 110 110 104 139 104 c 0
 141 104 144 104 146 104 c 2
 149 104 l 1
 158 100 164 92 164 79 c 0
 164 53 151 48 126 48 c 0
 51 48 -15 104 -15 178 c 0xbe
EndSplineSet
Validated: 1
Ligature2: "'cjct' Conjunct Forms in Bengali2 lookup 13" u0997 u09cd u09b2
EndChar

StartChar: u0999_u09cd_u0995.cjct
Encoding: 65635 -1 115
GlifName: u0999_u09cd_u0995.cjct
Width: 579
GlyphClass: 3
Flags: HW
HStem: 181 55<388.507 431.744> 387 59<349 413.388> 457 66<361.245 460.019> 524 60<125.508 239.757> 610 63<-12 28 108 240 308 466.5 526 575>
VStem: 29 58<434.02 505.484> 287 62<123 364> 445 59<246.688 356.752> 471 64<539.298 609.39>
LayerCount: 2
Fore
SplineSet
287 123 m 1xfe
 287 364 l 1
 126 270 l 1
 287 123 l 1xfe
411 523 m 0
 433 523 449 530 461 544 c 0
 467 551 471 560 471 568 c 0xfe80
 471 581 465 595 453 610 c 1
 308 610 l 1
 320 582 337 559 360 542 c 0
 377 529 394 523 411 523 c 0
108 610 m 1
 138 581 l 1
 147 583 157 584 167 584 c 0
 198 584 230 575 264 556 c 1
 240 610 l 1
 108 610 l 1
287 432 m 1
 275 483 232 524 168 524 c 0
 137 524 115 515 100 497 c 1
 93 485 l 2
 89 477 87 468 87 459 c 0
 87 455 87 451 88 446 c 1
 85 437 77 432 65 432 c 0
 48 432 36 439 29 452 c 1
 30 497 47 533 81 558 c 1
 28 610 l 1
 -12 610 l 1
 -12 673 l 1
 575 673 l 1
 575 610 l 1
 526 610 l 1
 532 599 535 586 535 572 c 0xfe80
 535 513 484 457 425 457 c 0
 403 457 371 471 328 498 c 1
 349 446 l 1
 436 443 504 394 504 308 c 0
 504 247 467 192 412 182 c 0
 410 182 409 181 407 181 c 0
 395 181 388 194 388 210 c 0
 388 221 390 229 397 236 c 1
 426 236 445 268 445 302 c 0xff
 445 353 405 387 349 387 c 1
 349 57 l 2
 349 42 329 29 307 29 c 0
 298 29 292 31 287 35 c 2
 59 252 l 2
 53 257 49 265 49 274 c 0
 49 286 53 294 62 299 c 2
 287 432 l 1
EndSplineSet
Validated: 1
Ligature2: "'cjct' Conjunct Forms in Bengali2 lookup 13" u0999 u09cd u0995
Substitution2: "'salt' Stylistic Alternatives in Bengali2 lookup 17-1" u0999_u09cd_u0995.salt
EndChar

StartChar: u0999_u09cd_u0996.cjct
Encoding: 65636 -1 116
GlifName: u0999_u09cd_u0996.cjct
Width: 800
GlyphClass: 3
Flags: HW
HStem: 243 60<200.19 316.467> 511 52<221.214 295.303> 610 63<-8 177 724 799> 619 54<234.989 302.997>
VStem: 18 58<485.719 583.024> 145 61<468.964 516.241> 303 55<572.777 618.647> 526 58<311.093 428.222> 662 62<112 610>
LayerCount: 2
Fore
SplineSet
247 563 m 0xdf80
 265 563 280 569 292 581 c 0
 299 588 303 595 303 602 c 0
 303 609 299 614 291 619 c 1
 246 619 233 603 221 569 c 1
 229 565 238 563 247 563 c 0xdf80
584 377 m 0
 584 306 539 241 482 218 c 1
 662 112 l 1
 662 610 l 2
 662 652 683 673 725 673 c 2
 799 673 l 1
 799 610 l 1
 724 610 l 1
 724 64 l 2
 724 43 710 33 682 33 c 0
 674 33 667 35 662 38 c 2
 403 197 l 1
 395 204 392 212 392 221 c 0
 392 232 397 244 411 250 c 0
 487 282 526 319 526 368 c 0
 526 387 522 407 512 429 c 1
 497 399 463 377 411 364 c 1
 395 301 341 243 267 243 c 0
 261 243 254 243 248 244 c 0
 182 251 127 293 83 369 c 0
 51 425 29 491 18 567 c 1
 23 578 32 584 45 584 c 0
 56 584 67 580 76 572 c 1
 90 508 103 463 114 438 c 0
 135 389 167 347 215 313 c 0
 227 305 241 303 255 303 c 0
 306 303 356 344 356 397 c 0
 356 411 353 424 345 437 c 1
 341 440 337 441 332 441 c 0
 324 441 283 424 211 390 c 1
 166 421 145 459 145 504 c 0
 145 535 156 570 177 610 c 1
 -8 610 l 1
 -8 673 l 1xef80
 302 673 l 2
 329 673 358 629 358 599 c 0
 358 574 345 552 320 534 c 0
 299 519 277 511 255 511 c 0
 245 511 229 513 208 517 c 1
 207 510 206 502 206 496 c 0
 206 484 209 474 215 468 c 1
 231 472 257 479 290 492 c 0
 321 505 341 512 351 513 c 1
 384 488 405 459 413 427 c 1
 440 431 459 450 471 484 c 0
 477 501 487 510 503 510 c 0
 510 510 516 508 520 504 c 0
 563 473 584 431 584 377 c 0
EndSplineSet
Validated: 1
Ligature2: "'cjct' Conjunct Forms in Bengali2 lookup 13" u0999 u09cd u0996
EndChar

StartChar: u0999_u09cd_u0997.cjct
Encoding: 65637 -1 117
GlifName: u0999_u09cd_u0997.cjct
Width: 578
GlyphClass: 3
Flags: HW
HStem: 149 57<102.709 181.056> 467 59<365.859 468.62> 500 57<153.199 233.439> 610 63<-6 51 123 248.235 304 502 558 577>
VStem: 30 56<377.619 464.161> 266 57<343.023 465.971> 422 58<60.3271 367.939> 505 58<532.624 609.414>
LayerCount: 2
Fore
SplineSet
493 610 m 1xdf
 304 610 l 1
 313 583 334 565 362 549 c 0
 382 538 420 526 451 526 c 0
 476 526 497 533 503 556 c 0
 504 560 505 564 505 569 c 0
 505 581 501 595 493 610 c 1xdf
177 500 m 0xbf
 151 500 129 489 110 467 c 0xdf
 94 448 86 428 86 405 c 0
 86 400 86 395 87 390 c 1
 80 381 71 377 59 377 c 0
 46 377 37 382 30 392 c 1
 30 394 30 397 30 399 c 0
 30 466 58 508 103 534 c 1
 51 610 l 1
 -6 610 l 1
 -6 673 l 1
 577 673 l 1
 577 610 l 1
 558 610 l 1
 561 600 563 588 563 575 c 0
 563 523 539 489 490 472 c 1
 497 465 508 455 523 443 c 1
 494 367 480 292 480 221 c 0
 480 166 490 100 511 22 c 0
 511 21 512 20 512 19 c 0
 512 7 488 -5 471 -5 c 0
 464 -5 459 -3 458 2 c 0
 434 92 422 171 422 240 c 0
 422 289 428 332 440 369 c 1
 232 197 l 2
 193 165 159 149 130 149 c 0
 97 149 68 170 43 211 c 0
 41 217 40 223 40 228 c 0
 40 244 48 252 63 252 c 0
 70 252 79 249 89 244 c 1
 107 219 124 206 140 206 c 0
 152 206 167 214 185 231 c 2
 239 281 l 1
 260 356 l 1
 264 375 266 391 266 403 c 0
 266 419 265 435 257 448 c 0
 237 484 208 500 177 500 c 0xbf
469 470 m 1
 458 468 447 467 436 467 c 0xdf
 378 467 328 491 285 538 c 0
 265 559 250 583 238 610 c 1
 123 610 l 1
 161 556 l 1
 168 557 174 557 180 557 c 0xbf
 219 557 253 543 280 515 c 0
 309 485 323 447 323 401 c 0
 323 381 320 362 314 342 c 1
 469 470 l 1
EndSplineSet
Validated: 1
Substitution2: "'salt' Stylistic Alternatives in Bengali2 lookup 17-1" u0999_u09cd_u0997.salt
Ligature2: "'cjct' Conjunct Forms in Bengali2 lookup 13" u0999 u09cd u0997
EndChar

StartChar: u099a_u09cd_u099b.cjct
Encoding: 65638 -1 118
GlifName: u099a_u09cd_u099b.cjct
Width: 851
GlyphClass: 3
Flags: HW
HStem: 195 55<103.478 189.778> 250 49<400.217 484.331> 610 63<-6 40 102 338 400 850>
VStem: 40 62<255.225 522 575.545 610> 293 107<389.121 468.625> 338 62<300.324 388 505 522 575.59 610> 589 56<389.549 468.5> 721 53<315.05 449.002>
LayerCount: 2
Fore
SplineSet
400 522 m 1x77
 400 324 l 2
 400 307 408 299 424 299 c 0
 451 299 486 317 529 353 c 0
 568 385 589 412 589 435 c 0
 589 446 584 457 572 466 c 1
 558 474 l 1
 546 479 530 483 511 486 c 0
 454 495 417 507 400 522 c 1x77
293 441 m 1xbb
 290 463 264 478 215 485 c 0
 156 494 119 507 102 522 c 1
 102 274 l 1
 111 258 124 250 139 250 c 0
 169 250 203 276 242 327 c 0
 278 375 295 412 293 439 c 1
 293 441 l 1xbb
620 542 m 1
 712 536 774 486 774 389 c 0
 774 335 754 283 716 232 c 0
 695 204 671 182 646 165 c 0
 627 154 603 143 572 134 c 1
 650 130 730 107 813 66 c 0
 843 51 870 36 894 19 c 1
 898 10 900 3 900 -4 c 0
 900 -20 890 -28 870 -28 c 0
 869 -28 867 -28 866 -28 c 2
 862 -28 l 1
 742 56 612 84 416 94 c 1
 406 102 401 114 401 127 c 0
 401 138 405 145 414 150 c 1
 466 156 502 161 520 166 c 0
 555 175 586 193 614 214 c 0
 658 246 721 321 721 391 c 0
 721 436 695 466 643 480 c 1
 644 472 645 464 645 456 c 0
 645 401 618 352 564 309 c 0
 515 270 464 250 414 250 c 0x77
 363 250 338 273 338 318 c 2
 338 388 l 1
 327 351 306 314 275 279 c 0
 226 223 179 195 131 195 c 0
 80 195 40 231 40 308 c 2
 40 610 l 1
 -6 610 l 1
 -6 673 l 1
 388 673 l 1
 388 672 l 1
 392 673 396 673 400 673 c 2
 850 673 l 1
 850 610 l 1
 400 610 l 1xb7
 400 585 426 565 479 552 c 0
 513 544 547 539 582 539 c 0
 598 539 611 540 620 542 c 1
338 610 m 1
 102 610 l 1
 102 559 213 537 285 537 c 0
 293 537 299 538 306 538 c 0
 307 538 307 538 308 538 c 0
 313 538 320 532 330 519 c 1
 338 505 l 1
 338 610 l 1
EndSplineSet
Validated: 33
Ligature2: "'cjct' Conjunct Forms in Bengali2 lookup 13" u099a u09cd u099b
EndChar

StartChar: u099a_u09cd_u099e.cjct
Encoding: 65639 -1 119
GlifName: u099a_u09cd_u099e.cjct
Width: 633
GlyphClass: 3
Flags: HW
HStem: -31 55<536.15 626.594> 3 59<130.659 279.812> 26 58<202.333 387.702> 127 55<527.532 597.068> 215 53<104.732 197.375> 284 65<316.149 414.925> 294 60<520.171 612.017> 610 63<-6 40 102 633>
VStem: 40 62<91.1419 201.461 272.65 522 577.333 610> 212 61<139.877 245.165> 295 55<375.829 467.779> 415 62<106.172 241.712> 618 59<202.638 286.569> 631 56<27.7881 104.325>
LayerCount: 2
Fore
SplineSet
631 62 m 0x59f4
 631 98 591 127 551 127 c 1
 535 131 527 140 527 154 c 0
 527 167 533 176 545 182 c 1
 581 185 618 209 618 248 c 0
 618 279 598 294 557 294 c 1
 531 288 510 268 495 234 c 0
 483 208 477 183 477 159 c 0
 477 157 477 155 477 153 c 2
 477 150 l 1
 502 97 521 64 532 51 c 0
 544 35 562 24 584 24 c 0
 585 24 586 24 587 24 c 0x9bf8
 616 24 631 39 631 62 c 0x59f4
295 441 m 0
 292 462 266 477 217 485 c 0
 157 494 119 506 102 522 c 1
 102 294 l 1
 112 277 125 268 142 268 c 0
 173 268 207 290 244 335 c 0
 278 376 295 409 295 434 c 0
 295 436 295 439 295 441 c 0
102 610 m 1
 102 559 222 538 290 538 c 0
 295 538 299 538 303 538 c 2
 307 538 l 1
 310 539 314 537 319 532 c 2
 327 523 l 2
 342 505 350 481 350 452 c 0
 350 415 331 370 292 318 c 1
 335 336 367 345 390 348 c 0
 397 349 404 349 410 349 c 0x3df4
 432 349 449 344 461 332 c 1
 469 323 l 2
 475 315 477 304 477 292 c 1
 510 333 543 354 577 354 c 0
 628 354 677 294 677 243 c 0x1bf8
 677 212 662 184 632 159 c 1
 669 132 687 100 687 63 c 0
 687 20 663 -11 616 -30 c 1
 610 -31 605 -31 600 -31 c 0
 586 -31 573 -29 561 -26 c 1
 542 -19 l 1
 521 -8 502 8 477 37 c 1
 477 -15 l 1
 415 -15 l 1
 385 12 348 26 303 26 c 0xbbf4
 286 26 270 25 255 19 c 0
 231 9 208 3 185 3 c 0
 101 3 46 81 46 168 c 0
 46 180 47 192 49 204 c 1
 60 214 71 219 80 219 c 0
 89 219 98 213 106 200 c 1
 104 189 103 179 103 168 c 0
 103 109 127 62 184 62 c 0x59f4
 202 62 222 67 245 78 c 1
 261 82 277 84 294 84 c 0
 336 84 376 73 415 51 c 1
 415 270 l 2
 415 279 405 284 384 284 c 0x3df4
 338 284 273 252 273 207 c 0
 273 193 278 178 288 161 c 1
 291 143 277 127 257 127 c 0
 249 127 242 130 236 136 c 1
 220 165 212 191 212 214 c 0
 212 225 214 236 217 246 c 1
 187 225 159 215 132 215 c 0
 81 215 40 251 40 328 c 2
 40 610 l 1
 -6 610 l 1
 -6 673 l 1
 633 673 l 1
 633 610 l 1
 102 610 l 1
EndSplineSet
Validated: 33
Ligature2: "'cjct' Conjunct Forms in Bengali2 lookup 13" u099a u09cd u099e
EndChar

StartChar: u099c_u09cd_u099c.cjct
Encoding: 65640 -1 120
GlifName: u099c_u09cd_u099c.cjct
Width: 1117
GlyphClass: 3
Flags: HW
HStem: 51 43<646.676 795.49> 92 59<290.593 441.554> 411 45<975.5 1047> 627 63<15 262 480 1142>
VStem: 193 34<395.878 528.316> 502 35<214.947 323.24> 521 94<355.914 463.038> 856 81<150.883 277.198> 978 57<86.6848 306.317> 1010 59<24.5165 107.498>
LayerCount: 2
Fore
SplineSet
742 94 m 1xbd
 798 105 856 149 856 216 c 0
 856 252 838 282 803 306 c 1
 791 302 763 292 719 274 c 0
 685 259 657 252 635 252 c 1
 559 295 521 341 521 390 c 0xbb
 521 417 532 448 554 482 c 1
 359 611 l 1
 291 595 227 542 227 461 c 0
 227 422 243 386 275 353 c 1
 411 407 l 1
 414 407 416 407 419 407 c 0
 455 407 481 381 500 356 c 0
 525 322 537 286 537 249 c 0
 537 234 534 222 529 211 c 1
 584 133 651 94 732 94 c 0
 734 94 736 94 738 94 c 2
 742 94 l 1xbd
835 383 m 1
 893 368 937 308 937 233 c 0
 937 183 918 139 881 104 c 0
 846 72 805 52 756 52 c 0
 752 52 747 51 743 51 c 0xbb80
 661 51 589 91 527 169 c 1
 480 118 429 92 374 92 c 0
 362 92 350 93 338 95 c 0
 193 120 94 268 41 539 c 1
 46 554 56 562 73 562 c 0
 84 562 93 557 100 546 c 1
 109 463 135 381 178 301 c 0
 232 201 294 151 366 151 c 0
 434 151 502 201 502 274 c 0
 502 313 484 343 448 364 c 1
 435 362 411 353 376 336 c 0
 341 319 315 311 298 311 c 0
 286 311 275 314 266 321 c 0
 217 365 193 416 193 474 c 0
 193 531 216 582 262 627 c 1
 15 627 l 1
 15 690 l 1
 1142 690 l 1
 1142 627 l 1
 480 627 l 1
 599 526 l 1
 648 559 679 571 679 571 c 1
 710 556 l 1
 710 556 718.816326531 556.551020408 730.309037901 556.551020408 c 0
 745.632653061 556.551020408 765.714285714 555.571428571 776 551 c 0
 932 485 1029 456 1098 456 c 1
 1111 449 1118 439 1118 423 c 0
 1118 418 1117 414 1116 409 c 0
 1062 337 1035 268 1035 202 c 0x7d80
 1035 163 1046 114 1067 56 c 0
 1068 53 1069 50 1069 46 c 0
 1069 31 1059 24 1039 24 c 0
 1024 24 1014 29 1010 39 c 0x7940
 989 92 978 143 978 193 c 0x7980
 978 267 1001 339 1047 411 c 1
 1021 411 936 441 794 497 c 1
 709 532 l 2
 708 532 707 532 706 532 c 0
 693 532 667 505 658 493 c 0
 629 462 615 432 615 405 c 0
 615 372 636 347 679 330 c 1
 687 333 712 343 755 360 c 0
 786 373 813 380 835 383 c 1
EndSplineSet
Validated: 1
LCarets2: 2 0 0
Ligature2: "'cjct' Conjunct Forms in Bengali2 lookup 13" u099c u09cd u099c
EndChar

StartChar: u099c_u09cd_u099d.cjct
Encoding: 65641 -1 121
GlifName: u099c_u09cd_u099d.cjct
Width: 751
GlyphClass: 3
Flags: HW
HStem: 56 21G<624 638> 191 52<222.436 339.375> 418 60<372 395.632> 610 63<-11 216 434 608 670 751>
VStem: 30 55<436.884 557.257> 162 61<435.377 542.149> 412 49<297.657 402.41> 488 62<179 233 308 495> 608 62<137 610>
LayerCount: 2
Fore
SplineSet
488 233 m 1
 408 190 l 1
 488 121 l 1
 488 233 l 1
608 137 m 1
 608 610 l 1
 434 610 l 1
 526 542 l 2
 542 530 550 518 550 506 c 2
 550 179 l 1
 608 137 l 1
245 435 m 1
 296 452 335 467 362 478 c 0
 364 478 367 478 369 478 c 0
 382 478 391 474 399 466 c 0
 423 443 441 423 449 405 c 0
 457 388 461 369 461 349 c 0
 461 327 456 307 446 289 c 1
 488 308 l 1
 488 495 l 1
 330 612 l 1
 306 608 283 593 261 566 c 0
 237 535 224 506 223 477 c 0
 223 457 230 443 245 435 c 1
550 55 m 2
 550 42 527 31 508 31 c 0
 500 31 493 33 488 37 c 2
 337 173 l 1
 339 195 l 1
 324 192 310 191 297 191 c 0
 216 191 151 233 101 318 c 0
 66 378 42 452 30 540 c 1
 34 552 42 558 55 558 c 0
 65 558 75 555 85 549 c 1
 89 473 111 404 152 341 c 0
 194 276 240 243 291 243 c 0
 318 243 344 253 369 274 c 0
 396 299 411 325 412 352 c 0
 412 377 399 399 372 418 c 1
 372 418 271 378 247 373 c 0
 232 373 212 384 188 405 c 1
 171 432 162 459 162 486 c 0
 162 525 180 567 216 610 c 1
 -11 610 l 1
 -11 673 l 1
 751 673 l 1
 751 610 l 1
 670 610 l 1
 670 78 l 2
 670 66 648 56 628 56 c 0
 620 56 613 58 608 62 c 2
 550 110 l 1
 550 55 l 2
EndSplineSet
Validated: 1
Ligature2: "'cjct' Conjunct Forms in Bengali2 lookup 13" u099c u09cd u099d
EndChar

StartChar: u099e_u09cd_u099a.cjct
Encoding: 65642 -1 122
GlifName: u099e_u09cd_u099a.cjct
Width: 761
GlyphClass: 3
Flags: HW
HStem: 143 60<583.107 670.138> 320 59<580.639 649.43> 503 62<566.434 668.815> 604 50<124.315 284.592>
VStem: 30 61<444.148 570.41> 370 62<119 463 590 676.561> 677 68<405.928 493.761> 689 67<210.632 292.119>
LayerCount: 2
Fore
SplineSet
370 463 m 1xfc
 138 321 l 1
 370 119 l 1
 370 463 l 1xfc
30 512 m 0
 30 588 88 654 179 654 c 0
 236 654 300 633 370 590 c 1
 370 659 l 2
 370 671 380 677 401 677 c 0
 422 677 432 671 432 659 c 2
 432 53 l 2
 432 37 418 30 389 30 c 0
 380 30 373 31 370 35 c 2
 67 304 l 2
 61 309 58 317 58 327 c 0
 58 338 62 346 70 351 c 2
 370 530 l 1
 313 579 256 604 199 604 c 0
 139 604 91 573 91 512 c 0
 91 487 99 464 115 441 c 1
 105 420 92 410 77 410 c 0
 72 410 67 411 62 414 c 1
 41 446 30 478 30 512 c 0
621 565 m 0
 682 564 745 513 745 447 c 0xfe
 745 412 727 380 693 352 c 1
 735 325 756 288 756 243 c 0xfd
 756 193 728 160 673 145 c 0
 665 144 656 143 647 143 c 0
 563 143 492 205 433 330 c 1
 433 385 l 1
 457 436 478 473 496 495 c 0
 531 538 571 565 618 565 c 0
 619 565 620 565 621 565 c 0
689 251 m 0xfd
 689 286 643 320 603 320 c 1
 587 329 579 339 579 350 c 0
 579 361 586 371 599 379 c 1
 637 384 677 411 677 454 c 0xfe
 677 487 655 503 612 503 c 0
 587 503 562 485 538 448 c 0
 532 439 514 409 487 358 c 1
 504 315 527 278 556 248 c 0
 585 218 615 203 644 203 c 0
 649 203 654 204 660 205 c 0
 680 218 689 233 689 251 c 0xfd
EndSplineSet
Validated: 1
Substitution2: "'salt' Stylistic Alternatives in Bengali2 lookup 17-1" u099e_u09cd_u099a.salt
Ligature2: "'cjct' Conjunct Forms in Bengali2 lookup 13" u099e u09cd u099a
EndChar

StartChar: u099e_u09cd_u099b.cjct
Encoding: 65643 -1 123
GlifName: u099e_u09cd_u099b.cjct
Width: 590
GlyphClass: 3
Flags: HW
HStem: 91 58<190.381 239.577> 229 61<109.348 244.814> 316 58<409.99 485.819> 457 67<431.672 493.453> 607 59<404.503 501.029> 617 59<129.135 265.852>
VStem: 30 251<304.5 436.5> 42 60<493.772 590.531> 369 61<186.353 269.59> 504 65<380.774 445.558> 504 55<534.701 601.176>
LayerCount: 2
Fore
SplineSet
227 414 m 1xf080
 225 414 l 1
 187 389 142 365 90 340 c 1
 104 307 132 290 175 290 c 0
 221 290 249 305 260 335 c 1
 241 358 230 384 227 414 c 1xf080
504 410 m 0xf8c0
 504 432 480 454 456 457 c 0
 439 461 430 472 430 492 c 0
 430 505 436 516 449 524 c 1
 475 527 504 541 504 571 c 0xf8a0
 504 594 486 606 451 607 c 0
 437 606 416 595 388 574 c 0
 360 553 342 535 334 519 c 1
 353 466 376 427 404 401 c 0
 423 383 443 374 463 374 c 0
 466 374 469 375 472 375 c 0
 493 383 504 395 504 410 c 0xf8c0
569 415 m 0xf8c0
 569 362 520 316 465 316 c 0
 393 316 335 366 292 465 c 1
 285 454 281 442 281 431 c 0
 281 411 291 391 312 369 c 0
 323 357 344 340 373 318 c 0
 397 300 410 288 413 281 c 0
 424 263 430 244 430 224 c 0
 430 189 414 158 382 131 c 0
 370 121 356 113 342 107 c 1
 449 56 471 38 581 -38 c 0
 590 -46 595 -56 595 -67 c 0
 595 -85 586 -94 568 -94 c 0
 562 -94 556 -93 549 -89 c 0
 461 -30 406 6 383 19 c 0
 324 52 263 76 201 91 c 1
 192 97 188 104 188 114 c 0
 188 129 196 141 211 149 c 1
 221 148 231 147 240 147 c 0
 294 147 369 179 369 230 c 0
 369 253 349 274 309 295 c 1
 272 251 229 229 180 229 c 0
 113 229 30 273 30 336 c 0xfac0
 30 347 33 359 39 371 c 1
 47 381 75 399 122 424 c 0
 177 455 214 478 235 493 c 0
 269 518 286 542 286 562 c 0
 286 566 285 569 284 573 c 0
 273 603 233 612 192 617 c 0
 189 617 187 617 184 617 c 0
 140 617 102 580 102 535 c 0
 102 513 111 498 129 491 c 1
 130 488 131 486 131 483 c 0
 131 468 112 447 93 447 c 0
 90 447 86 448 83 450 c 0
 56 471 42 498 42 532 c 0
 42 565 54 597 77 626 c 0
 101 656 129 672 160 675 c 0
 163 675 165 676 168 676 c 0xf580
 216 676 256 666 288 647 c 0
 295 643 310 630 334 607 c 1
 379 646 421 666 458 666 c 0
 512 666 559 622 559 566 c 0xf9a0
 559 536 547 512 524 493 c 1
 554 472 569 446 569 415 c 0xf8c0
EndSplineSet
Validated: 1
Ligature2: "'cjct' Conjunct Forms in Bengali2 lookup 13" u099e u09cd u099b
EndChar

StartChar: u099e_u09cd_u099c.cjct
Encoding: 65644 -1 124
GlifName: u099e_u09cd_u099c.cjct
Width: 677
GlyphClass: 3
Flags: HW
HStem: 38 57<244.313 376.037> 616 59<188.426 345.056 463.863 601.622>
VStem: 20 57<369.662 485.859> 92 57<441.468 578.052> 172 58<294.982 369.314> 355 52<522.022 565.185> 411 58<130.692 280.891> 498 59<34.3796 270.33> 604 59<367.463 434.415 537.633 608.255>
LayerCount: 2
Fore
SplineSet
547 357 m 0
 582 357 604 383 604 400 c 0
 604 425 581 443 534 452 c 0
 521 453 515 462 515 477 c 0
 515 492 521 503 532 508 c 1
 562 515 584 527 598 545 c 0
 605 554 608 565 608 575 c 0
 608 604 577 615 543 615 c 0
 518 615 491 609 474 600 c 0
 462 594 451 586 441 577 c 0
 417 555 407 539 407 522 c 0
 407 519 407 516 408 513 c 0
 420 445 474 357 547 357 c 0
167 450 m 1
 166 439 147 424 130 424 c 0
 125 424 120 425 115 429 c 1
 100 460 92 490 92 520 c 0
 92 618 170 675 273 675 c 0
 327 675 369 655 398 617 c 1
 440 655 486 674 536 674 c 0
 542 674 548 674 554 673 c 0
 589 670 617 656 638 632 c 1
 648 618 l 1
 657 602 662 585 662 567 c 0
 662 533 647 505 616 482 c 1
 647 461 663 433 663 398 c 0
 663 361 646 333 612 313 c 0
 569 283 557 213 557 139 c 0
 557 89 575 30 612 -37 c 1
 606 -51 591 -58 567 -58 c 0
 564 -58 562 -58 559 -57 c 1
 518 16 498 80 498 137 c 0
 498 185 507 239 528 299 c 1
 432 327 394 372 359 463 c 1
 352 452 327 430 284 398 c 0
 249 371 230 348 230 329 c 0
 230 318 237 306 248 294 c 1
 257 297 279 309 316 330 c 0
 343 345 368 353 388 353 c 0
 393 353 398 352 404 351 c 1
 447 315 469 267 469 207 c 0
 469 115 408 38 318 38 c 0
 316 38 313 38 311 38 c 0
 309 38 308 38 306 38 c 0
 205 55 166 89 120 162 c 0
 59 259 44 318 20 463 c 1
 25 480 33 488 45 488 c 0
 54 488 66 482 77 472 c 1
 97 371 113 305 126 274 c 0
 153 208 188 159 228 128 c 0
 255 106 283 95 312 95 c 0
 375 95 411 138 411 206 c 0
 411 243 399 273 378 295 c 1
 365 290 342 278 309 258 c 0
 283 242 263 234 249 234 c 0
 220 234 197 262 178 317 c 0
 174 326 172 335 172 344 c 0
 172 370 194 399 238 433 c 0
 316 493 355 538 355 568 c 0
 355 586 344 602 319 610 c 0
 301 616 284 616 267 616 c 0
 221 616 188 602 167 574 c 1
 158 560 l 1
 152 543 l 2
 150 535 149 526 149 517 c 0
 149 495 156 472 167 450 c 1
EndSplineSet
Validated: 1
Ligature2: "'cjct' Conjunct Forms in Bengali2 lookup 13" u099e u09cd u099c
EndChar

StartChar: u099e_u09cd_u099d.pres
Encoding: 65645 -1 125
GlifName: u099e_u09cd_u099d.pres
Width: 687
GlyphClass: 3
Flags: HW
HStem: 305 59<115.453 270.355> 328 58<184.576 371.702> 429 55<534.532 603.498> 596 60<523.259 619.03> 616 55<297.144 395.601>
VStem: 31 57<391.054 518.629> 197 61<480.075 581.881> 399 62<119 169 411.596 523.1 594 613.175> 563 62<162 280.36> 625 59<504.923 588.628> 637 58<330.144 407.56>
LayerCount: 2
Fore
SplineSet
399 119 m 1x27
 399 225 l 1
 310 184 l 1
 399 119 l 1x27
637 364 m 0xb720
 637 401 598 429 557 429 c 1
 542 433 534 442 534 456 c 0
 534 469 540 478 552 484 c 1
 588 487 625 511 625 550 c 0xb740
 625 581 605 596 564 596 c 1
 537 590 512 570 490 536 c 0
 470 505 461 477 461 452 c 1
 484 404 506 372 527 353 c 0
 545 337 566 326 590 326 c 0
 591 326 592 326 593 326 c 0
 623 326 637 341 637 364 c 0xb720
170 305 m 0
 85 305 31 379 31 469 c 0
 31 481 32 494 34 506 c 1
 45 516 55 521 64 521 c 0
 74 521 83 515 91 502 c 1
 89 491 88 480 88 470 c 0
 88 410 112 364 169 364 c 0xa780
 187 364 207 369 230 380 c 1
 246 384 262 386 278 386 c 0
 320 386 360 375 399 353 c 1
 399 572 l 2
 399 602 386 616 361 616 c 0
 347 616 331 612 313 603 c 0
 276 586 258 564 258 539 c 0
 258 526 263 510 273 493 c 0
 273 491 273 490 273 488 c 0
 273 478 269 470 260 464 c 1
 250 460 l 2
 247 459 245 459 242 459 c 0
 234 459 227 462 221 468 c 1
 205 498 197 524 197 548 c 0
 197 564 200 579 207 592 c 0
 240 645 293 671 364 671 c 0x6f80
 403 671 430 659 447 637 c 1
 455 625 l 1
 459 616 461 605 461 594 c 1
 493 635 530 656 574 656 c 0
 611 656 642 638 665 603 c 0
 678 584 684 565 684 546 c 0x3740
 684 515 669 486 638 461 c 1
 676 434 695 401 695 364 c 0
 695 321 672 290 625 272 c 1xb7a0
 625 111 l 2xb740
 625 96 615 89 594 89 c 0
 581 89 571 91 563 97 c 2
 461 169 l 1
 461 60 l 2
 461 43 448 35 422 35 c 0
 412 35 405 37 399 41 c 2
 234 168 l 2
 226 174 222 181 222 190 c 0
 222 201 228 210 241 216 c 2
 399 287 l 1
 369 314 332 328 287 328 c 0x6780
 245 328 206 305 170 305 c 0
563 272 m 1
 520 287 486 309 461 339 c 1
 461 233 l 1
 563 162 l 1
 563 272 l 1
EndSplineSet
Validated: 1
Ligature2: "'cjct' Conjunct Forms in Bengali2 lookup 13" u099e u09cd u099d
EndChar

StartChar: u099f_u09cd_u099f.cjct
Encoding: 65646 -1 126
GlifName: u099f_u09cd_u099f.cjct
Width: 525
GlyphClass: 3
Flags: HW
HStem: 40 55<211.549 378.147> 172 58<230.5 303.776> 610 63<-6 142 204 405.602 464 526> 737 60<88.6748 282>
VStem: -7 52<840.55 907.562> 142 62<244.795 610> 392 59<332.533 451.935> 400 57<117.8 213.24> 406 58<673 718.096>
LayerCount: 2
Fore
SplineSet
457 160 m 0xfd
 457 78 384 40 294 40 c 0
 203 42 131 85 79 172 c 0
 58 206 42 245 29 289 c 0
 29 290 28 292 28 293 c 0
 28 305 51 313 68 313 c 0
 77 313 83 311 84 306 c 0
 98 257 110 223 121 204 c 0
 154 147 216 95 302 95 c 0
 339 95 367 104 385 123 c 0
 395 133 400 146 400 161 c 0xfd
 400 182 388 205 365 229 c 1
 326 191 290 172 257 172 c 0
 255 172 252 172 250 172 c 0
 248 172 247 173 245 173 c 0
 176 193 142 235 142 297 c 2
 142 610 l 1
 -6 610 l 1
 -6 673 l 1
 405 673 l 1
 405 676 406 678 406 681 c 0
 406 705 390 722 359 729 c 1
 332 733 l 1
 282 736 l 1
 263 737 l 1
 203 738 161 741 137 745 c 0
 38 761 3 793 -7 894 c 1
 -5 903 3 908 16 908 c 0
 27 908 37 905 45 899 c 1
 57 812 107 797 212 797 c 2
 253 797 l 1
 324 794 374 786 403 773 c 0
 443 756 464 726 464 673 c 1xfc80
 526 673 l 1
 526 610 l 1
 204 610 l 1
 204 294 l 2
 204 271 213 253 230 241 c 0
 241 234 251 230 260 230 c 0
 263 230 265 230 268 231 c 0
 324 254 364 302 387 373 c 0
 390 386 392 398 392 406 c 0
 392 421 387 434 378 444 c 0
 372 451 358 463 336 480 c 0
 333 483 332 487 332 491 c 0
 332 507 353 524 373 524 c 1
 425 487 451 447 451 407 c 0xfe
 451 376 435 331 403 272 c 1
 439 240 457 203 457 160 c 0xfd
EndSplineSet
Validated: 1
LCarets2: 2 0 0
Ligature2: "'cjct' Conjunct Forms in Bengali2 lookup 13" u099f u09cd u099f
EndChar

StartChar: u09a1_u09cd_u09a1.cjct
Encoding: 65647 -1 127
GlifName: u09a1_u09cd_u09a1.cjct
Width: 1159
GlyphClass: 3
Flags: HW
HStem: 35 59<760.008 928.489> 153 56<277.948 421.479> 272 61<775.041 844.662> 353 48<292.954 352.491> 610 63<-12 229 292 712 774 1156>
VStem: 12 53<483.527 558.614> 229 63<402.049 610> 712 62<335.097 610> 1023 59<191.963 379.04>
LayerCount: 2
Fore
SplineSet
488 391 m 1
 481 408 476 426 470 444 c 0
 466 451 461 458 455 465 c 1
 420 426 397 401 385 391 c 0
 357 368 330 353 302 353 c 1
 295 353 l 1
 251 357 229 389 229 441 c 2
 229 610 l 1
 -12 610 l 1
 -12 673 l 1
 1156 673 l 1
 1156 610 l 1
 774 610 l 1
 774 353 l 1
 779 340 787 333 798 333 c 0
 816 333 840 347 869 376 c 0
 895 402 920 433 945 470 c 0
 949 477 956 480 965 480 c 0
 979 480 992 474 1003 463 c 0
 1055 414 1082 358 1082 296 c 0
 1082 264 1079 227 1062 190 c 0
 1016 86 943 36 857 35 c 0
 856 35 854 35 853 35 c 0
 787 35 725 60 664 109 c 0
 600 159 565 219 528 295 c 1
 522 274 513 255 502 237 c 0
 469 181 425 153 366 153 c 0
 189 153 67 361 16 522 c 0
 14 528 12 533 12 538 c 0
 12 546 16 552 28 557 c 0
 33 559 37 559 42 559 c 0
 51 559 59 556 65 550 c 1
 85 467 122 390 177 320 c 0
 236 246 295 209 352 209 c 0
 387 209 418 223 445 251 c 0
 475 282 490 320 490 366 c 0
 490 374 489 383 488 391 c 1
458 521 m 0
 459 521 460 521 460 521 c 1
 466 527 473 530 482 530 c 0
 492 530 500 526 507 519 c 1
 515 496 l 2
 516 493 518 491 520 489 c 0
 533 476 540 452 542 418 c 1
 564 358 586 314 603 281 c 0
 627 234 656 191 697 156 c 0
 746 115 797 94 849 94 c 0
 904 94 949 119 986 168 c 0
 1011 201 1023 240 1023 285 c 0
 1023 335 1009 377 979 412 c 1
 934 361 905 330 892 319 c 0
 858 290 823 272 788 272 c 0
 785 272 783 272 780 272 c 0
 735 276 712 316 712 382 c 2
 712 610 l 1
 292 610 l 1
 292 417 l 1
 296 406 302 401 311 401 c 0
 325 401 344 413 367 436 c 0
 388 457 408 481 428 511 c 1
 438 518 447 521 458 521 c 0
EndSplineSet
Validated: 1
Ligature2: "'cjct' Conjunct Forms in Bengali2 lookup 13" u09a1 u09cd u09a1
EndChar

StartChar: u09a3_u09cd_u099f.cjct
Encoding: 65648 -1 128
GlifName: u09a3_u09cd_u099f.cjct
Width: 759
GlyphClass: 3
Flags: HW
HStem: 28 59<431.898 516.264> 342 52<137.976 185.675> 610 63<413 658.496 718 760> 619 57<132.677 282.854> 774 57<273.362 619.848>
VStem: 30 62<443.201 578.032> 158 58<880.456 985.202> 351 62<103.246 547.372> 625 60<237.312 373.998> 658 60<673 739.594>
LayerCount: 2
Fore
SplineSet
351 461 m 2xef80
 351 551 296 619 205 619 c 0
 189 619 172 619 157 612 c 0
 112 591 92 555 92 510 c 0
 92 455 131 407 180 394 c 1
 185 386 187 379 187 372 c 0
 187 359 178 349 160 342 c 1
 92 358 30 423 30 506 c 0
 30 535 38 562 54 588 c 0
 90 647 140 676 203 676 c 0xdf80
 258 676 307 654 351 610 c 1
 351 642 378 673 413 673 c 2
 658 673 l 1
 658 677 658 680 658 684 c 0
 658 756 593 774 508 774 c 0
 491 774 457 767 407 767 c 0
 399 767 389 768 380 768 c 0
 294 772 234 802 200 837 c 0
 172 865 158 904 158 954 c 0
 158 960 159 966 159 973 c 1
 166 981 176 986 188 986 c 0
 199 986 210 981 218 973 c 1
 217 964 216 955 216 947 c 0
 216 893 245 858 303 841 c 0
 333 832 373 828 423 828 c 1
 558 831 l 1
 655 829 715 773 718 673 c 1xef40
 760 673 l 1
 760 610 l 1
 413 610 l 1
 413 165 l 1
 420 113 439 87 468 87 c 0
 492 87 516 103 540 135 c 0
 597 212 625 271 625 313 c 0
 625 351 604 384 563 412 c 1
 561 417 560 421 560 426 c 0
 560 444 573 452 598 452 c 1
 656 423 685 376 685 311 c 0
 685 255 665 199 625 143 c 0
 585 87 539 50 488 32 c 0
 480 29 472 28 464 28 c 0
 407 28 351 95 351 152 c 2
 351 461 l 2xef80
EndSplineSet
Validated: 1
Ligature2: "'cjct' Conjunct Forms in Bengali2 lookup 13" u09a3 u09cd u099f
EndChar

StartChar: u09a3_u09cd_u09a0.cjct
Encoding: 65649 -1 129
GlifName: u09a3_u09cd_u09a0.cjct
Width: 621
GlyphClass: 3
Flags: HW
HStem: 36 60<248.828 386.632> 353 56<119.43 173.323> 610 63<417 620> 627 56<139.589 272.486> 998 56<242.474 306.281>
VStem: 34 55<439.388 578.441> 133 61<156.626 252.713> 173 60<865.761 986.899> 329 59<417.99 550.557> 485 60<201.846 420.351>
LayerCount: 2
Fore
SplineSet
194 244 m 1xcec0
 196 165 235 96 314 96 c 0
 350 96 385 111 419 142 c 0
 463 181 485 234 485 299 c 0
 485 387 453 471 387 551 c 1
 388 542 388 533 388 524 c 0
 388 439 361 370 308 317 c 0
 278 288 240 263 194 244 c 1xcec0
149 353 m 1
 83 369 34 426 34 509 c 0
 34 607 107 683 205 683 c 0xdec0
 246 683 281 672 308 650 c 1
 226 791 l 1
 191 857 173 910 173 951 c 0
 173 1010 210 1044 282 1054 c 1
 299 1051 307 1041 307 1024 c 0
 307 1015 303 1006 297 998 c 1
 254 997 233 979 233 944 c 0
 233 908 258 848 307 765 c 2
 362 673 l 1
 620 673 l 1
 620 610 l 1
 417 610 l 1xedc0
 503 502 545 397 545 294 c 0
 545 194 500 116 408 59 c 0
 383 44 356 36 327 36 c 0
 274 36 228 55 190 93 c 0
 152 130 133 176 133 229 c 0
 133 258 140 279 155 292 c 1
 220 321 266 354 292 391 c 0
 316 425 329 466 329 516 c 0
 329 518 329 520 329 522 c 0
 315 569 290 600 255 616 c 0
 238 624 221 627 205 627 c 0xdec0
 166 627 130 607 110 578 c 1
 101 561 l 1
 94 544 89 527 89 507 c 0
 89 456 118 415 165 409 c 1
 172 403 175 395 175 386 c 0
 175 372 166 353 149 353 c 1
EndSplineSet
Validated: 1
Ligature2: "'cjct' Conjunct Forms in Bengali2 lookup 13" u09a3 u09cd u09a0
EndChar

StartChar: u09a3_u09cd_u09a1.cjct
Encoding: 65650 -1 130
GlifName: u09a3_u09cd_u09a1.cjct
Width: 694
GlyphClass: 3
Flags: HW
HStem: 41 56<378.595 574.293> 344 59<279.001 372.88> 603 57<258.531 401.565>
VStem: 16 53<474.806 563.67> 171 58<447.331 573.381> 625 56<143.396 266.81 379.968 519.075>
LayerCount: 2
Fore
SplineSet
490 97 m 0
 563 97 625 136 625 208 c 0
 625 237 615 259 595 275 c 1
 582 283 l 1
 566 288 l 2
 550 292 542 305 542 316 c 0
 542 325 546 334 555 342 c 1
 601 365 625 398 625 442 c 0
 625 495 597 542 544 583 c 1
 536 500 l 1
 529 487 519 480 506 480 c 0
 497 480 490 484 483 491 c 1
 459 538 427 571 388 589 c 0
 368 598 347 603 325 603 c 0
 267 603 229 569 229 512 c 0
 229 509 229 506 229 502 c 0
 233 441 282 408 362 403 c 1
 369 398 374 390 374 377 c 0
 374 359 367 348 356 344 c 1
 256 352 204 387 176 461 c 0
 171 475 171 491 171 506 c 0
 171 568 196 615 248 644 c 0
 273 657 299 660 325 660 c 0
 379 660 433 637 486 590 c 1
 488 641 l 2
 489 656 500 664 520 664 c 0
 525 664 529 663 534 662 c 0
 583 634 620 599 647 555 c 0
 670 519 682 481 682 442 c 0
 682 395 663 355 627 321 c 1
 663 291 681 253 681 208 c 0
 681 164 665 127 634 94 c 1
 618 79 l 1
 593 59 565 43 534 42 c 0
 524 42 515 41 506 41 c 0
 446 41 400 50 365 60 c 0
 315 75 265 105 216 150 c 0
 117 241 51 371 16 542 c 1
 18 557 27 564 43 564 c 0
 52 564 61 561 69 556 c 1
 93 448 126 363 165 301 c 0
 196 252 236 208 286 168 c 0
 328 134 413 97 490 97 c 0
EndSplineSet
Validated: 1
Ligature2: "'cjct' Conjunct Forms in Bengali2 lookup 13" u09a3 u09cd u09a1
EndChar

StartChar: u09a4_u09cd_u09a5.cjct
Encoding: 65651 -1 131
GlifName: u09a4_u09cd_u09a5.cjct
Width: 664
GlyphClass: 3
Flags: HW
HStem: 414 51<92.8496 135.607> 610 58<101.026 194.359 586 663>
VStem: 13 59<485.875 586.326> 212 64<499.904 543.089> 353 59<399.658 564.184> 524 62<107 610>
LayerCount: 2
Fore
SplineSet
412 488 m 0
 412 425 391 367 349 315 c 0
 332 294 313 276 292 261 c 1
 524 107 l 1
 524 610 l 2
 524 652 545 673 586 673 c 2
 663 673 l 1
 663 610 l 1
 586 610 l 1
 586 65 l 2
 586 40 577 27 556 27 c 0
 547 27 535 31 524 38 c 2
 208 244 l 2
 201 249 197 256 197 265 c 0
 197 284 207 295 225 299 c 0
 292 308 347 401 352 475 c 0
 352 479 353 484 353 488 c 0
 353 529 339 563 313 588 c 1
 297 566 285 542 276 519 c 0
 269 505 259 498 246 498 c 0
 226 498 212 509 212 533 c 0
 212 536 212 540 212 543 c 0
 212 579 183 610 146 610 c 0
 133 610 120 606 106 599 c 1
 83 579 72 559 72 537 c 0
 72 505 90 481 125 465 c 1
 132 458 136 450 136 441 c 0
 136 423 125 414 104 414 c 0
 100 414 96 415 91 416 c 0
 39 441 13 481 13 535 c 0
 13 591 43 634 107 662 c 0
 119 667 133 668 146 668 c 0
 186 668 222 648 255 607 c 1
 263 628 274 641 284 648 c 0
 292 653 306 657 327 661 c 1
 384 619 412 562 412 488 c 0
EndSplineSet
Validated: 1
Ligature2: "'cjct' Conjunct Forms in Bengali2 lookup 13" u09a4 u09cd u09a5
EndChar

StartChar: u09a4_u09cd_u09a8.cjct
Encoding: 65652 -1 132
GlifName: u09a4_u09cd_u09a8.cjct
Width: 455
GlyphClass: 3
Flags: HW
HStem: 12 46<75.7277 123.582> 235 53<78.8997 202.059> 331 54<189.312 268.79> 551 54<231.791 315.89> 610 63<-5 453>
VStem: -12 56<88.6722 200.407> 14 53<506.023 583.766> 159 58<466.153 535.274> 269 62<6.86133 174.594 202 331> 347 58<419.502 525.836>
LayerCount: 2
Fore
SplineSet
453 610 m 1xf9c0
 -5 610 l 1
 -5 673 l 1
 453 673 l 1
 453 610 l 1xf9c0
102 12 m 0
 53 12 -12 102 -12 154 c 0xfdc0
 -12 175 -6 197 6 218 c 0
 32 265 72 288 124 288 c 0
 184 288 242 249 269 202 c 1
 269 331 l 1
 211 331 156 356 103 407 c 0
 55 452 14 511 14 567 c 0
 14 577 33 586 50 586 c 0
 61 586 66 583 67 576 c 0xfbc0
 70 530 93 487 136 446 c 0
 180 405 221 385 259 385 c 0
 265 385 270 385 276 386 c 1
 331 421 l 1
 342 435 347 451 347 470 c 0
 347 496 335 520 312 540 c 0
 303 547 293 551 281 551 c 0
 260 551 243 543 230 527 c 1
 223 516 l 2
 219 508 217 498 217 489 c 0
 217 487 217 486 217 484 c 0
 219 475 215 469 208 466 c 1
 197 464 l 1
 194 464 l 2
 171 464 159 479 159 509 c 0
 159 562 212 605 267 605 c 0
 342 605 405 545 405 469 c 0
 405 413 374 366 331 344 c 1
 331 24 l 2
 331 12 319 6 296 6 c 0
 277 6 269 12 269 24 c 0
 269 77 269 106 268 113 c 0
 264 146 253 172 236 189 c 0
 205 220 174 235 141 235 c 0
 91 235 44 196 44 143 c 0xfdc0
 44 105 67 77 113 58 c 0
 120 55 124 50 124 41 c 0
 124 22 117 12 102 12 c 0
EndSplineSet
Validated: 33
Ligature2: "'cjct' Conjunct Forms in Bengali2 lookup 13" u09a4 u09cd u09a8
EndChar

StartChar: u09a4_u09cd_u09ae.cjct
Encoding: 65653 -1 133
GlifName: u09a4_u09cd_u09ae.cjct
Width: 689
GlyphClass: 3
Flags: HW
HStem: 33 58<341.013 402.328> 242 62<387 457.523> 331 54<185.033 314.438> 551 54<230.81 321.072> 610 63<-7 549 611 687>
VStem: 12 52<506.151 584.145> 157 57<466.143 533.319> 256 66<110.368 226.342> 325 62<304 343> 345 57<415.458 525.771> 549 62<42.7511 161.827 192 610>
LayerCount: 2
Fore
SplineSet
157 509 m 0xff60
 157 563 209 605 265 605 c 0
 339 605 402 544 402 469 c 0xff60
 402 444 397 422 387 402 c 1
 387 304 l 1
 434 304 476 285 512 246 c 0
 527 230 539 212 549 192 c 1
 549 610 l 1
 -7 610 l 1
 -7 673 l 1
 687 673 l 1
 687 610 l 1
 611 610 l 1
 611 60 l 2
 611 48 602 42 583 42 c 0
 560 42 549 48 549 61 c 2
 549 121 l 2
 549 137 533 160 498 191 c 0
 459 225 423 242 388 242 c 0
 346 242 322 213 322 166 c 0
 322 122 347 95 390 91 c 0
 399 90 403 82 403 66 c 0
 403 44 397 33 385 33 c 0
 384 33 384 33 383 33 c 0
 327 38 304 54 282 91 c 0
 262 123 256 157 256 186 c 0
 256 235 279 272 325 295 c 1
 325 343 l 1xffa0
 308 335 288 331 267 331 c 0
 209 331 154 356 101 407 c 0
 53 452 12 511 12 567 c 0
 12 578 31 586 47 586 c 0
 58 586 63 583 64 576 c 0
 67 530 90 487 134 446 c 0
 177 405 218 385 256 385 c 0
 302 385 345 422 345 470 c 0
 345 501 320 551 278 551 c 0
 257 551 241 543 228 527 c 1
 220 516 l 1
 216 508 214 498 214 489 c 0
 214 487 214 486 214 484 c 0
 216 475 213 469 206 466 c 1
 195 464 l 1
 191 464 l 2
 168 464 157 479 157 509 c 0xff60
EndSplineSet
Validated: 33
Ligature2: "'cjct' Conjunct Forms in Bengali2 lookup 13" u09a4 u09cd u09ae
EndChar

StartChar: u09a6_u09cd_u09a6.cjct
Encoding: 65654 -1 134
GlifName: u09a6_u09cd_u09a6.cjct
Width: 638
GlyphClass: 3
Flags: HW
HStem: 610 63<-8 38 100 637>
VStem: 38 62<355 610> 250 56<239.64 413.371> 475 53<77.7244 311.223> 520 48<-73.3037 24.1093>
LayerCount: 2
Fore
SplineSet
81 253 m 0xf0
 64 253 38 259 38 276 c 2
 38 610 l 1
 -8 610 l 1
 -8 673 l 1
 637 673 l 1
 637 610 l 1
 100 610 l 1
 100 355 l 1
 155 416 189 451 201 461 c 0
 242 497 285 517 329 522 c 0
 331 522 334 522 336 522 c 0
 355 522 361 514 364 496 c 0
 364 491 362 487 359 482 c 0
 323 416 306 357 306 307 c 0
 306 285 308 262 313 238 c 1
 375 340 451 396 542 409 c 0
 545 409 548 410 550 410 c 0
 563 410 569 403 573 392 c 0
 573 390 574 388 574 385 c 0
 574 381 573 377 572 373 c 0
 543 302 528 237 528 176 c 0xf0
 528 128 568 50 568 -51 c 0
 568 -63 549 -76 533 -76 c 0
 526 -76 521 -74 520 -68 c 0xe8
 490 51 475 136 475 187 c 0
 475 236 483 287 500 337 c 1
 429 305 373 239 331 139 c 1
 322 130 312 126 303 126 c 0
 293 126 284 131 278 141 c 1
 259 208 250 263 250 306 c 0
 250 350 258 395 277 441 c 1
 245 426 214 399 181 361 c 1
 100 259 l 2
 97 255 90 253 81 253 c 0xf0
EndSplineSet
Validated: 1
Ligature2: "'cjct' Conjunct Forms in Bengali2 lookup 13" u09a6 u09cd u09a6
EndChar

StartChar: u09a6_u09cd_u09a7.cjct
Encoding: 65655 -1 135
GlifName: u09a6_u09cd_u09a7.cjct
Width: 539
GlyphClass: 3
Flags: HW
HStem: 8 51<503.225 535.029> 299 57<379.56 443.5> 507 52<220.735 309.338> 610 63<-6 40 102 537>
VStem: 40 62<446 610> 314 62<92 249 344 503.666> 420 50<62.5156 244.778> 427 52<169.222 298.887>
LayerCount: 2
Fore
SplineSet
420 137 m 0xfe
 420 159 427 232 427 269 c 0
 427 273 427 277 427 280 c 0
 427 284 426 288 426 291 c 0
 426 296 419 299 404 299 c 0
 385 299 376 293 376 283 c 2
 376 40 l 2
 376 24 363 16 336 16 c 0
 326 16 319 18 314 21 c 2
 137 164 l 2
 124 174 118 185 118 195 c 0
 118 202 123 208 131 213 c 2
 314 312 l 1
 316 448 l 1
 317 448 l 1
 315 488 302 507 277 507 c 0
 250 507 212 485 165 442 c 0
 126 406 100 377 87 355 c 0
 82 354 78 353 72 353 c 0
 55 353 45 360 40 373 c 1
 40 610 l 1
 -6 610 l 1
 -6 673 l 1
 537 671 l 1
 537 607 l 1
 102 610 l 1
 102 446 l 1
 139 482 167 507 186 520 c 0
 222 546 256 559 286 559 c 0
 288 559 290 559 292 559 c 0
 294 559 295 558 297 558 c 0
 320 558 337 546 353 524 c 0
 368 503 379 480 379 453 c 2
 379 344 l 1
 398 351 414 356 429 356 c 0
 458 356 474 341 478 312 c 0
 479 301 479 288 479 275 c 2xfd
 470 139 l 1
 470 90 479 64 494 61 c 1
 524 59 l 1
 532 55 536 48 536 38 c 0
 536 28 532 18 523 8 c 1
 516 8 509 7 503 7 c 0
 485 7 471 10 463 14 c 0
 434 27 420 68 420 137 c 0xfe
314 249 m 1
 198 184 l 1
 314 92 l 1
 314 249 l 1
EndSplineSet
Validated: 1
Ligature2: "'cjct' Conjunct Forms in Bengali2 lookup 13" u09a6 u09cd u09a7
EndChar

StartChar: u09a6_u09cd_u09ae.cjct
Encoding: 65656 -1 136
GlifName: u09a6_u09cd_u09ae.cjct
Width: 572
GlyphClass: 3
Flags: HW
HStem: 40 58<252.335 328.695> 249 53<311.904 369.102> 610 63<-8 38 100 434 496 572>
VStem: 38 62<371 610> 180 53<115.354 224.449> 250 57<302.509 445.284> 434 62<51.0584 178.26 242 610>
LayerCount: 2
Fore
SplineSet
434 610 m 1
 100 610 l 1
 100 371 l 1
 144 420 174 452 193 467 c 0
 230 497 271 520 316 525 c 0
 318 525 320 525 322 525 c 0
 339 525 348 513 348 495 c 0
 348 492 348 488 347 484 c 0
 320 439 307 400 307 367 c 0
 307 347 310 325 318 302 c 1
 361 302 400 282 434 242 c 1
 434 610 l 1
312 249 m 0
 272 249 236 218 233 177 c 0
 233 149 241 124 252 115 c 0
 259 109 275 104 301 98 c 0
 317 93 330 89 330 71 c 0
 330 55 321 45 304 40 c 1
 229 43 180 89 180 168 c 0
 180 226 209 267 264 292 c 1
 255 315 250 342 250 373 c 0
 250 402 255 426 266 446 c 1
 239 430 195 387 135 317 c 1
 100 274 l 2
 97 270 90 268 81 268 c 0
 64 268 38 275 38 292 c 2
 38 610 l 1
 -8 610 l 1
 -8 673 l 1
 572 673 l 1
 572 610 l 1
 496 610 l 1
 496 85 l 2
 496 62 485 50 465 50 c 0
 444 50 434 62 434 85 c 2
 434 117 l 1
 422 179 392 221 344 242 c 0
 334 247 323 249 312 249 c 0
EndSplineSet
Validated: 1
Ligature2: "'cjct' Conjunct Forms in Bengali2 lookup 13" u09a6 u09cd u09ae
EndChar

StartChar: u0998_u09cd_u09a8.cjct
Encoding: 65657 -1 137
GlifName: u0998_u09cd_u09a8.cjct
Width: 547
GlyphClass: 3
Flags: HW
HStem: 44 46<257.55 358.597> 610 63<-9 47 101.016 406 468 546>
VStem: 30 56<500.962 594.423> 199 51<-44.6357 36.0472> 405 63<-103.176 -0.824219 35 46 122 610>
LayerCount: 2
Fore
SplineSet
139 420 m 1
 80 428 30 475 30 543 c 0
 30 565 36 588 47 610 c 1
 -9 610 l 1
 -9 673 l 1
 546 673 l 1
 546 610 l 1
 468 610 l 1
 468 62 l 2
 468 60 467 59 467 57 c 2
 467 -86 l 2
 467 -98 457 -104 437 -104 c 0
 416 -104 405 -96 405 -83 c 0
 405 -45 400 -20 389 -7 c 0
 360 27 331 44 301 44 c 0
 274 44 250 27 250 -2 c 0
 250 -22 262 -40 285 -56 c 0
 289 -59 291 -63 291 -70 c 0
 291 -88 285 -97 273 -97 c 0
 271 -97 269 -96 266 -95 c 0
 221 -71 199 -36 199 10 c 0
 199 59 237 90 291 90 c 0
 336 90 373 72 405 35 c 1
 405 46 l 1
 66 287 l 1
 57 291 52 298 52 307 c 0
 52 314 55 321 61 328 c 2
 139 420 l 1
86 548 m 0
 86 509 122 477 166 477 c 1
 209 484 l 1
 228 484 238 474 238 455 c 0
 238 448 235 441 230 435 c 2
 128 315 l 1
 405 122 l 1
 405 147 l 2
 405 148 406 148 406 149 c 2
 406 610 l 1
 129 610 l 1
 100 594 86 573 86 548 c 0
EndSplineSet
Validated: 1
Ligature2: "'cjct' Conjunct Forms in Bengali2 lookup 13" u0998 u09cd u09a8
EndChar

StartChar: u09a6_u09cd_u09ad.cjct
Encoding: 65658 -1 138
GlifName: u09a6_u09cd_u09ad.cjct
Width: 604
GlyphClass: 3
Flags: HW
HStem: 37 58<277.559 452.301> 203 59<284.395 369.853> 610 63<-6 193 255 603>
VStem: 30 52<320.153 385.621> 193 62<293.473 372.703 429 610> 378 56<369.423 474.247> 499 58<142.249 275.317>
LayerCount: 2
Fore
SplineSet
255 347 m 1
 255 309 291 262 330 262 c 0
 342 262 355 266 368 274 c 1
 378 287 384 306 384 330 c 1
 378 416 l 1
 378 439 382 459 391 475 c 1
 366 461 341 442 316 417 c 0
 308 408 287 385 255 347 c 1
379 96 m 0
 380 96 382 96 383 96 c 0
 448 96 499 143 499 211 c 0
 499 251 481 282 444 304 c 1
 440 302 l 1
 434 247 400 203 338 203 c 0
 322 203 305 207 287 214 c 0
 224 240 193 284 193 347 c 2
 193 610 l 1
 -6 610 l 1
 -6 673 l 1
 603 673 l 1
 603 610 l 1
 255 610 l 1
 255 429 l 1
 296 470 322 496 333 505 c 0
 360 526 392 542 429 553 c 0
 431 553 433 554 435 554 c 0
 451 554 467 544 467 528 c 0
 467 526 460 503 446 459 c 0
 438 434 434 414 434 398 c 0
 434 388 435 378 438 369 c 1
 491 348 527 316 545 271 c 0
 553 251 557 231 557 208 c 0
 557 160 540 120 505 87 c 1
 488 73 l 1
 453 48 413 37 372 37 c 0
 312 37 250 60 202 96 c 0
 120 157 65 245 30 360 c 1
 28 378 40 386 58 386 c 0
 67 386 75 383 82 377 c 1
 124 249 185 164 266 123 c 0
 301 105 338 96 379 96 c 0
EndSplineSet
Validated: 33
Ligature2: "'cjct' Conjunct Forms in Bengali2 lookup 13" u09a6 u09cd u09ad
EndChar

StartChar: u0995_u09cd_u09ac.cjct
Encoding: 65659 -1 139
GlifName: u0995_u09cd_u09ac.cjct
Width: 584
GlyphClass: 3
Flags: HW
HStem: 337 50<403.235 440.426> 538 56<351 427.464> 610 63<-10 289 351 582>
VStem: 289 62<100 273 355 524 594 610> 455 50<398.223 511.258>
LayerCount: 2
Fore
SplineSet
289 100 m 1
 289 273 l 1
 156 203 l 1
 289 100 l 1
289 355 m 1
 289 524 l 1
 103 452 l 1
 289 355 l 1
505 460 m 0
 505 401 480 338 426 337 c 0
 411 337 403 348 403 363 c 0
 403 372 407 380 414 387 c 1
 437 392 455 423 455 455 c 0
 455 469 454 483 446 495 c 0
 427 525 398 538 366 538 c 0
 361 538 356 538 351 537 c 1
 351 47 l 2
 351 34 337 28 312 28 c 0
 302 28 295 30 290 34 c 2
 96 190 l 2
 89 196 86 202 86 210 c 0
 86 219 92 226 102 231 c 2
 254 311 l 1
 37 429 l 2
 23 436 16 449 16 469 c 0
 16 476 18 481 21 486 c 1
 289 585 l 1
 289 610 l 1
 -10 610 l 1
 -10 673 l 1
 582 673 l 1
 582 610 l 1
 351 610 l 1
 351 594 l 1
 354 594 358 594 361 594 c 0
 417 594 467 564 491 522 c 0
 501 507 505 486 505 460 c 0
EndSplineSet
Validated: 1
Ligature2: "'cjct' Conjunct Forms in Bengali2 lookup 13" u0995 u09cd u09f1
Ligature2: "'cjct' Conjunct Forms in Bengali2 lookup 13" u0995 u09cd u09ac
EndChar

StartChar: u0997_u09cd_u09ac.cjct
Encoding: 65660 -1 140
GlifName: u0997_u09cd_u09ac.cjct
Width: 512
GlyphClass: 3
Flags: HW
HStem: 610 63<133.916 303.672 437 513>
VStem: 160 63<432.651 518.667> 375 62<93 266 322 400 401 544.242 601 609.221>
LayerCount: 2
Fore
SplineSet
372 93 m 1
 372 266 l 1
 239 196 l 1
 372 93 l 1
375 601 m 1
 375 636 400 673 437 673 c 2
 513 673 l 1
 513 610 l 1
 437 610 l 1
 437 289 l 1
 434 289 l 1
 434 40 l 2
 434 27 421 21 396 21 c 0
 386 21 378 23 373 27 c 2
 179 183 l 2
 172 189 169 195 169 203 c 0
 169 212 175 219 185 224 c 2
 373 322 l 1
 373 400 l 1
 375 401 l 1
 375 439 l 2
 375 512 360 548 323 580 c 0
 295 604 262 616 225 616 c 0
 190 616 150 602 107 573 c 1
 184 567 223 538 223 485 c 0
 223 450 205 415 168 382 c 0
 153 369 138 358 121 349 c 0
 118 348 116 348 113 348 c 0
 97 348 84 360 84 377 c 0
 84 382 86 388 89 394 c 1
 137 421 160 451 160 484 c 0
 160 509 148 521 123 521 c 0
 108 521 91 514 73 500 c 0
 69 499 65 498 61 498 c 0
 42 498 32 507 28 526 c 1
 42 608 116 667 213 667 c 0
 215 667 216 667 218 667 c 0
 300 663 330 644 375 601 c 1
EndSplineSet
Validated: 1
Ligature2: "'cjct' Conjunct Forms in Bengali2 lookup 13" u0997 u09cd u09f1
Ligature2: "'cjct' Conjunct Forms in Bengali2 lookup 13" u0997 u09cd u09ac
EndChar

StartChar: u099b_u09cd_u09ac.cjct
Encoding: 65661 -1 141
GlifName: u099b_u09cd_u09ac.cjct
Width: 612
GlyphClass: 3
Flags: HW
HStem: 97 55<154.187 289.697> 252 49<152.276 237.201> 610 63<-10 81 152 612>
VStem: 90 62<302.324 524 577.59 604> 341 56<392.086 471.341> 423 62<-108 7> 473 53<316.222 449.901>
LayerCount: 2
Fore
SplineSet
423 -108 m 1xfc
 423 7 l 1
 332 -42 l 1
 423 -108 l 1xfc
152 524 m 1
 152 327 l 2
 152 310 160 301 176 301 c 0
 203 301 238 319 281 354 c 0
 321 388 341 416 341 438 c 0
 341 445 339 451 335 457 c 0
 325 473 301 482 263 488 c 0
 206 497 169 509 152 524 c 1
372 544 m 1
 463 538 526 489 526 392 c 0xfa
 526 338 506 285 468 234 c 0
 447 206 423 184 398 167 c 0
 379 156 355 145 324 136 c 1
 402 132 482 110 565 69 c 0
 595 54 622 38 646 21 c 1
 650 12 652 6 652 -1 c 0
 652 -17 642 -25 622 -25 c 0
 621 -25 619 -25 618 -25 c 2
 614 -25 l 1
 574 3 530 25 482 43 c 1
 484 40 485 37 485 34 c 2
 485 -136 l 2
 485 -151 461 -164 439 -164 c 0
 432 -164 427 -163 423 -160 c 2
 266 -50 l 1
 260 -43 257 -40 257 -37 c 0
 257 -34 263 -29 275 -22 c 2
 423 60 l 2xfc
 424 61 426 61 427 61 c 1
 365 78 286 89 190 95 c 0
 183 96 176 97 168 97 c 1
 158 105 153 116 153 129 c 0
 153 140 157 147 166 152 c 1
 218 158 254 163 272 168 c 0
 307 177 338 196 366 216 c 0
 411 249 473 324 473 394 c 0xfa
 473 439 447 468 395 482 c 1
 396 474 397 466 397 458 c 0
 397 403 370 355 316 312 c 0
 267 273 216 252 166 252 c 0
 115 252 90 275 90 320 c 2
 90 604 l 1
 81 610 l 1
 -10 610 l 1
 -10 673 l 1
 612 673 l 1
 612 612 l 1
 152 612 l 1
 152 587 178 567 231 554 c 0
 265 546 299 542 334 542 c 0
 350 542 363 542 372 544 c 1
EndSplineSet
Validated: 1
Ligature2: "'cjct' Conjunct Forms in Bengali2 lookup 13" u099b u09cd u09f1
Ligature2: "'cjct' Conjunct Forms in Bengali2 lookup 13" u099b u09cd u09ac
EndChar

StartChar: u099c_u09cd_u09ac.cjct
Encoding: 65662 -1 142
GlifName: u099c_u09cd_u09ac.cjct
Width: 815
GlyphClass: 3
Flags: HW
HStem: 80 53<356.889 470.468> 316 56<325.162 403.297> 610 63<-6 324 540 819>
VStem: 251 58<388.032 516.443> 562 58<211.656 352.452> 649 64<65.6823 309.612>
LayerCount: 2
Fore
SplineSet
721 -66 m 1
 688 17 l 1
 632 -37 l 1
 721 -66 l 1
431 614 m 1
 378 588 309 517 309 444 c 0
 309 412 323 388 350 372 c 0
 351 372 382 385 444 410 c 0
 478 424 508 431 533 431 c 0
 535 431 536 431 538 431 c 2
 540 431 l 1
 593 392 620 342 620 280 c 0
 620 208 587 153 520 116 c 0
 476 92 432 80 388 80 c 1
 280 104 l 1
 223 129 175 171 134 228 c 0
 80 304 44 400 30 516 c 0
 30 519 29 521 29 523 c 0
 29 539 39 547 53 547 c 0
 63 547 74 541 84 530 c 1
 91 429 125 338 184 257 c 0
 245 174 313 133 387 133 c 0
 434 133 479 152 521 189 c 0
 548 214 562 245 562 281 c 0
 562 318 548 351 519 379 c 1
 507 376 477 363 429 342 c 0
 392 326 362 317 338 316 c 1
 280 341 251 382 251 441 c 0
 251 499 275 555 324 610 c 1
 -6 610 l 1
 -6 673 l 1
 819 673 l 1
 819 610 l 1
 540 610 l 1
 767 471 l 1
 778 468 783 460 783 448 c 0
 783 442 782 438 779 434 c 0
 735 330 713 244 713 177 c 0
 713 113 731 50 762 -15 c 0
 779 -49 789 -78 797 -101 c 1
 792 -120 791 -133 777 -133 c 0
 774 -133 770 -133 765 -131 c 2
 564 -63 l 1
 555 -51 551 -42 551 -37 c 0
 551 -30 555 -23 564 -16 c 2
 670 78 l 1
 656 119 649 158 649 194 c 0
 649 229 656 267 669 308 c 0
 674 324 691 366 719 434 c 1
 431 614 l 1
EndSplineSet
Validated: 1
Ligature2: "'cjct' Conjunct Forms in Bengali2 lookup 13" u099c u09cd u09f1
Ligature2: "'cjct' Conjunct Forms in Bengali2 lookup 13" u099c u09cd u09ac
EndChar

StartChar: u09a3_u09cd_u09ac.cjct
Encoding: 65663 -1 143
GlifName: u09a3_u09cd_u09ac.cjct
Width: 464
GlyphClass: 3
Flags: HW
HStem: 595 55<132.793 272.649> 610 63<388 464>
VStem: 38 55<430.46 553.542> 326 65<71 244 298 545.281 607 610>
LayerCount: 2
Fore
SplineSet
329 71 m 1x30
 329 244 l 1
 196 174 l 1
 329 71 l 1x30
326 497 m 1
 317 550 264 595 200 595 c 0
 173 595 150 589 131 572 c 0
 105 548 93 519 93 490 c 0
 93 442 130 398 179 398 c 0
 180 398 181 398 182 398 c 0
 189 392 192 384 192 374 c 0
 192 359 184 348 168 342 c 1
 97 354 38 409 38 491 c 0
 38 528 51 562 76 594 c 0
 106 631 146 650 197 650 c 0xb0
 201 650 204 650 208 650 c 0
 260 648 299 634 326 607 c 1
 326 619 l 2
 326 655 347 673 388 673 c 2
 464 673 l 1
 464 610 l 1
 388 610 l 1x70
 388 416 l 1
 391 417 l 1
 391 18 l 2
 391 5 378 -1 353 -1 c 0
 343 -1 335 1 330 5 c 2
 136 161 l 2
 129 167 126 173 126 181 c 0
 126 190 132 197 142 202 c 2
 326 298 l 1
 326 497 l 1
EndSplineSet
Validated: 1
Ligature2: "'cjct' Conjunct Forms in Bengali2 lookup 13" u09a3 u09cd u09ac
Ligature2: "'cjct' Conjunct Forms in Bengali2 lookup 13" u09a3 u09cd u09f1
EndChar

StartChar: u09a4_u09cd_u09ac.cjct
Encoding: 65664 -1 144
GlifName: u09a4_u09cd_u09ac.cjct
Width: 453
GlyphClass: 3
Flags: HW
HStem: 331 54<189.312 275.988> 551 54<231.791 315.89> 610 63<-5 453>
VStem: 14 53<506.023 583.766> 159 58<466.153 535.274> 276 62<66 239 295 331> 347 58<415.648 525.836>
LayerCount: 2
Fore
SplineSet
276 66 m 1
 276 239 l 1
 144 169 l 1
 276 66 l 1
453 610 m 1
 -5 610 l 1
 -5 673 l 1
 453 673 l 1
 453 610 l 1
159 509 m 0
 159 562 212 605 267 605 c 0
 342 605 405 545 405 469 c 0
 405 417 378 370 338 348 c 1
 338 13 l 2
 338 0 325 -6 300 -6 c 0
 290 -6 282 -4 277 0 c 2
 83 156 l 2
 76 162 74 168 74 176 c 0
 74 185 79 192 89 197 c 2
 277 295 l 1
 277 331 l 1
 269 331 l 2
 211 331 156 356 103 407 c 0
 55 452 14 511 14 567 c 0
 14 577 33 586 50 586 c 0
 61 586 66 583 67 576 c 0
 70 530 93 487 136 446 c 0
 180 405 221 385 259 385 c 0
 305 385 347 422 347 470 c 0
 347 496 335 520 312 540 c 0
 303 547 293 551 281 551 c 0
 260 551 243 543 230 527 c 1
 223 516 l 2
 219 508 217 498 217 489 c 0
 217 487 217 486 217 484 c 0
 219 475 215 469 208 466 c 1
 197 464 l 1
 194 464 l 2
 171 464 159 479 159 509 c 0
EndSplineSet
Validated: 33
Ligature2: "'cjct' Conjunct Forms in Bengali2 lookup 13" u09a4 u09cd u09ac
Ligature2: "'cjct' Conjunct Forms in Bengali2 lookup 13" u09a4 u09cd u09f1
EndChar

StartChar: u09a6_u09cd_u09ac.cjct
Encoding: 65665 -1 145
GlifName: u09a6_u09cd_u09ac.cjct
Width: 456
GlyphClass: 3
Flags: HW
HStem: 507 51<217.956 307.119> 610 63<-8 38 100 453>
VStem: 38 62<446 610> 315 62<81 253 310 501.554>
LayerCount: 2
Fore
SplineSet
315 81 m 1
 315 253 l 1
 183 184 l 1
 315 81 l 1
316 310 m 1
 315 320 l 1
 315 359 315 398 315 437 c 0
 315 484 302 507 275 507 c 0
 248 507 210 485 163 442 c 0
 124 406 98 377 85 355 c 1
 80 354 76 353 70 353 c 0
 53 353 43 360 38 373 c 1
 38 610 l 1
 -8 610 l 1
 -8 673 l 1
 453 673 l 1
 453 610 l 1
 100 610 l 1
 100 446 l 1
 142 487 175 514 198 529 c 0
 230 550 259 558 286 558 c 0
 289 558 292 558 295 558 c 0
 318 556 335 546 351 524 c 0
 366 503 377 480 377 453 c 0
 377 311 377 169 377 27 c 0
 377 14 364 8 339 8 c 0
 329 8 321 11 316 15 c 2
 123 170 l 2
 116 176 113 182 113 190 c 0
 113 199 118 206 128 211 c 2
 316 310 l 1
EndSplineSet
Validated: 1
Ligature2: "'cjct' Conjunct Forms in Bengali2 lookup 13" u09a6 u09cd u09ac
Ligature2: "'cjct' Conjunct Forms in Bengali2 lookup 13" u09a6 u09cd u09f1
EndChar

StartChar: u09a7_u09cd_u09ac.cjct
Encoding: 65666 -1 146
GlifName: u09a7_u09cd_u09ac.cjct
Width: 825
GlyphClass: 3
Flags: HW
HStem: 39 21G<708.5 723.5> 610 63<76.8144 179.242 390 688 750 825>
VStem: 9 58<515.468 597.177> 328 62<121 320 382 495 564 610> 688 62<128 500 564 610>
LayerCount: 2
Fore
SplineSet
688 128 m 1
 688 500 l 1
 442 347 l 1
 688 128 l 1
328 121 m 1
 328 495 l 1
 83 344 l 1
 328 121 l 1
390 610 m 1
 390 382 l 1
 688 564 l 1
 688 610 l 1
 390 610 l 1
9 558 m 0
 9 606 32 638 79 657 c 0
 103 666 131 671 163 671 c 1
 175 668 181 659 181 646 c 0
 181 629 175 618 164 612 c 1
 99 612 67 595 67 562 c 0
 67 555 69 546 72 538 c 0
 95 499 129 480 174 480 c 0
 181 480 189 481 196 482 c 1
 328 564 l 1
 328 673 l 1
 825 673 l 1
 825 610 l 1
 750 610 l 1
 750 62 l 1
 746 47 733 39 714 39 c 0
 703 39 695 42 688 49 c 2
 390 320 l 1
 390 53 l 2
 390 42 377 37 352 37 c 0
 342 37 334 39 328 42 c 1
 18 328 l 2
 14 333 12 339 12 347 c 0
 12 359 16 370 25 380 c 1
 115 432 l 1
 63 455 28 489 11 534 c 0
 10 542 9 550 9 558 c 0
EndSplineSet
Validated: 1
Ligature2: "'cjct' Conjunct Forms in Bengali2 lookup 13" u09a7 u09cd u09f1
Ligature2: "'cjct' Conjunct Forms in Bengali2 lookup 13" u09a7 u09cd u09ac
EndChar

StartChar: u09a8_u09cd_u09ac.cjct
Encoding: 65667 -1 147
GlifName: u09a8_u09cd_u09ac.cjct
Width: 441
GlyphClass: 3
Flags: HW
HStem: 529 51<118.116 256.02> 610 63<-8 304 366 441>
VStem: 38 56<412.146 505.219> 304 62<90 263 319 397 399 484.346 529 610>
LayerCount: 2
Fore
SplineSet
300 90 m 1
 300 263 l 1
 168 193 l 1
 300 90 l 1
304 437 m 1
 296 487 246 529 185 529 c 0
 152 529 124 517 103 493 c 0
 97 486 94 476 94 465 c 0
 94 433 117 401 146 391 c 1
 149 385 150 379 150 373 c 0
 150 353 142 343 125 343 c 1
 80 361 38 406 38 468 c 0
 38 494 46 515 61 531 c 0
 92 564 130 580 177 580 c 0
 227 580 269 563 304 529 c 1
 304 610 l 1
 -8 610 l 1
 -8 673 l 1
 441 673 l 1
 441 610 l 1
 366 610 l 1
 366 291 l 1
 362 291 l 1
 362 37 l 2
 362 24 349 18 324 18 c 0
 314 18 306 20 301 24 c 2
 108 180 l 2
 101 186 98 192 98 200 c 0
 98 209 103 216 113 221 c 2
 301 319 l 1
 301 397 l 1
 304 399 l 1
 304 437 l 1
EndSplineSet
Validated: 1
Ligature2: "'cjct' Conjunct Forms in Bengali2 lookup 13" u09a8 u09cd u09f1
Ligature2: "'cjct' Conjunct Forms in Bengali2 lookup 13" u09a8 u09cd u09ac
EndChar

StartChar: u09aa_u09cd_u09ac.cjct
Encoding: 65668 -1 148
GlifName: u09aa_u09cd_u09ac.cjct
Width: 541
GlyphClass: 3
Flags: HW
HStem: 607 63<463 539> 616 50<140.888 274.742>
VStem: 401 64<93 266 320 503.977 542 607>
LayerCount: 2
Fore
SplineSet
403 93 m 1x20
 403 266 l 1
 271 196 l 1
 403 93 l 1x20
308 567 m 1
 276 599 242 616 206 616 c 0x60
 170 616 138 599 109 566 c 1
 199 458 l 1
 308 567 l 1
401 607 m 2xa0
 401 640 427 670 463 670 c 2
 539 670 l 1
 539 607 l 1
 463 607 l 1xa0
 463 438 l 1
 465 439 l 1
 465 40 l 2
 465 27 452 21 427 21 c 0
 417 21 409 23 404 27 c 2
 210 183 l 2
 203 189 201 195 201 203 c 0
 201 212 206 219 216 224 c 2
 401 320 l 1
 401 439 l 2
 401 475 380 520 346 526 c 1
 167 351 l 2
 166 351 165 351 164 351 c 0
 148 351 128 371 130 390 c 1
 161 422 l 1
 76 521 l 1
 67 506 59 493 54 483 c 0
 51 480 47 479 42 479 c 0
 21 479 10 490 8 511 c 1
 60 614 128 666 213 666 c 0x60
 246 666 274 659 297 644 c 0
 350 609 385 575 401 542 c 1
 401 607 l 2xa0
EndSplineSet
Validated: 33
Ligature2: "'cjct' Conjunct Forms in Bengali2 lookup 13" u09aa u09cd u09f1
Ligature2: "'cjct' Conjunct Forms in Bengali2 lookup 13" u09aa u09cd u09ac
EndChar

StartChar: u09ac_u09cd_u09ac.cjct
Encoding: 65669 -1 149
GlifName: u09ac_u09cd_u09ac.cjct
Width: 835
GlyphClass: 3
Flags: HW
HStem: 39 21G<363.5 378.5 717.5 732.5> 610 63<-13 342 404 696 758 833>
VStem: 342 62<128 314 385 500 564 610> 696 62<128 500 564 610>
LayerCount: 2
Fore
SplineSet
696 128 m 1
 696 500 l 1
 451 347 l 1
 696 128 l 1
342 128 m 1
 342 500 l 1
 97 347 l 1
 342 128 l 1
404 610 m 1
 404 385 l 1
 696 564 l 1
 696 610 l 1
 404 610 l 1
404 314 m 1
 404 62 l 1
 400 47 388 39 369 39 c 0
 358 39 349 42 342 49 c 2
 31 332 l 2
 25 337 22 343 22 352 c 0
 22 363 26 371 33 375 c 2
 342 564 l 1
 342 610 l 1
 -13 610 l 1
 -13 673 l 1
 833 673 l 1
 833 610 l 1
 758 610 l 1
 758 62 l 1
 754 47 742 39 723 39 c 0
 712 39 703 42 696 49 c 2
 404 314 l 1
EndSplineSet
Validated: 1
Ligature2: "'cjct' Conjunct Forms in Bengali2 lookup 13" u09ac u09cd u09f1
Ligature2: "'cjct' Conjunct Forms in Bengali2 lookup 13" u09ac u09cd u09ac
EndChar

StartChar: u09b6_u09cd_u09ac.cjct
Encoding: 65670 -1 150
GlifName: u09b6_u09cd_u09ac.cjct
Width: 541
GlyphClass: 3
Flags: HW
HStem: 386 55<3.27095 84.0652 238.698 319.229> 610 64<-12.5781 101.607 228.731 366.672 461 537>
VStem: 122 81<478.498 583.948> 396 62<66 239 295 373 376.094 584.463>
LayerCount: 2
Fore
SplineSet
396 66 m 1
 396 239 l 1
 263 169 l 1
 396 66 l 1
399 545 m 2
 399 588 332 610 279 610 c 0
 242 610 203 574 203 535 c 0
 203 476 240 446 315 443 c 0
 319 441 321 436 321 427 c 0
 321 408 317 395 310 389 c 1
 304 389 299 388 293 388 c 0
 233 388 188 413 162 461 c 1
 144 426 120 404 91 393 c 0
 77 388 59 386 37 386 c 0
 33 386 29 386 24 386 c 0
 20 386 17 386 13 386 c 1
 6 391 3 400 3 412 c 0
 3 425 5 434 11 441 c 1
 71 444 110 470 120 520 c 0
 121 526 122 531 122 537 c 0
 122 574 97 605 61 609 c 0
 57 610 36 610 -1 610 c 0
 -9 610 -13 621 -13 643 c 0
 -13 663 -9 673 -1 673 c 0
 42 673 71 671 85 667 c 0
 114 658 139 634 161 597 c 1
 179 625 195 643 211 653 c 0
 227 663 250 670 279 673 c 0
 282 673 286 674 290 674 c 0
 331 674 386 649 399 622 c 1
 399 645 434 673 461 673 c 2
 537 673 l 1
 537 610 l 1
 461 610 l 1
 461 383 l 2
 461 379 460 377 458 375 c 1
 458 13 l 2
 458 0 444 -6 419 -6 c 0
 409 -6 401 -4 396 0 c 2
 203 156 l 2
 196 162 193 168 193 176 c 0
 193 185 198 192 208 197 c 2
 396 295 l 1
 396 373 l 1
 401 376 l 1
 399 378 399 380 399 383 c 2
 399 545 l 2
EndSplineSet
Validated: 1
Ligature2: "'cjct' Conjunct Forms in Bengali2 lookup 13" u09b6 u09cd u09f1
Ligature2: "'cjct' Conjunct Forms in Bengali2 lookup 13" u09b6 u09cd u09ac
EndChar

StartChar: u09b8_u09cd_u09ac.cjct
Encoding: 65671 -1 151
GlifName: u09b8_u09cd_u09ac.cjct
Width: 580
GlyphClass: 3
Flags: HW
HStem: 367 58<350.534 428.815> 378 60<75.9347 132.786> 610 63<-6 187 258 388.951 456 578>
VStem: 191 67<560.446 609.766> 432 62<115 288 344 373> 440 70<434.882 548.363>
LayerCount: 2
Fore
SplineSet
432 115 m 1x38
 432 288 l 1
 300 218 l 1
 432 115 l 1x38
392 425 m 0xb4
 420 425 440 454 440 487 c 0
 440 507 435 524 424 540 c 0
 403 572 385 595 370 610 c 1
 258 610 l 1
 258 602 263 589 274 571 c 1
 321 485 l 1
 346 445 370 425 392 425 c 0xb4
433 373 m 1
 418 369 405 367 392 367 c 0xb8
 358 367 329 380 304 407 c 0
 285 427 265 459 243 502 c 1
 188 419 143 378 107 378 c 0
 80 378 55 395 30 429 c 0
 30 431 29 433 29 435 c 0
 29 452 45 466 64 466 c 0
 67 466 71 466 74 465 c 1
 79 447 86 438 96 438 c 0
 121 438 153 473 185 547 c 0
 190 558 191 569 191 579 c 0
 191 584 191 590 190 595 c 0
 189 600 188 605 187 610 c 1
 -6 610 l 1
 -6 673 l 1
 578 673 l 1
 578 610 l 1
 456 610 l 1
 480 571 l 2
 500 538 510 506 510 475 c 0x74
 510 451 504 431 494 415 c 1
 494 62 l 2x78
 494 49 481 42 456 42 c 0
 446 42 438 45 433 49 c 2
 240 205 l 2
 233 211 230 217 230 225 c 0
 230 234 235 241 245 246 c 2
 433 344 l 1
 433 373 l 1
EndSplineSet
Validated: 1
Ligature2: "'cjct' Conjunct Forms in Bengali2 lookup 13" u09b8 u09cd u09f1
Ligature2: "'cjct' Conjunct Forms in Bengali2 lookup 13" u09b8 u09cd u09ac
EndChar

StartChar: u09a6_u09cd_u09a8.cjct
Encoding: 65672 -1 152
GlifName: u09a6_u09cd_u09a8.cjct
Width: 452
GlyphClass: 3
Flags: HW
HStem: 0 46<119.728 166.636> 223 53<124.661 245.559> 507 51<217.264 306.165> 610 63<-8 38 100 453>
VStem: 32 56<76.451 187.322> 38 62<446 610> 312 63<-5.13867 164.573 190 369 371 502.611>
LayerCount: 2
Fore
SplineSet
146 0 m 0xfa
 97 0 32 89 32 142 c 0xfa
 32 163 38 185 50 206 c 0
 76 253 115 276 167 276 c 0
 227 276 285 238 312 190 c 1
 312 369 l 1
 314 371 l 1
 314 437 l 2
 314 484 301 507 274 507 c 0
 247 507 210 485 163 442 c 0
 124 406 97 377 84 355 c 1
 79 354 75 353 69 353 c 0
 52 353 43 360 38 373 c 1
 38 610 l 1
 -8 610 l 1
 -8 673 l 1
 453 673 l 1
 453 610 l 1
 100 610 l 1
 100 446 l 1xf6
 142 487 174 514 197 529 c 0
 229 550 258 558 285 558 c 0
 288 558 291 558 294 558 c 0
 317 556 335 546 351 524 c 0
 366 503 376 480 376 453 c 2
 376 323 l 2
 376 320 376 318 375 316 c 1
 375 12 l 2
 375 0 363 -6 340 -6 c 0
 321 -6 312 0 312 12 c 0
 312 47 312 72 312 87 c 0
 312 94 312 99 312 101 c 0
 308 134 297 160 280 177 c 0
 249 208 218 223 185 223 c 0
 136 223 88 183 88 131 c 0
 88 93 111 65 157 46 c 0
 164 43 167 38 167 29 c 0
 167 10 161 0 146 0 c 0xfa
EndSplineSet
Validated: 1
Ligature2: "'cjct' Conjunct Forms in Bengali2 lookup 13" u09a6 u09cd u09a8
EndChar

StartChar: u09a7_u09cd_u09a8.cjct
Encoding: 65673 -1 153
GlifName: u09a7_u09cd_u09a8.cjct
Width: 476
GlyphClass: 3
Flags: HW
HStem: 20 46<195.75 296.597> 610 63<88.8144 191.242 402 478>
VStem: 21 58<515.468 597.177> 137 51<-68.6357 11.8615> 340 62<-126.859 -21.8857 11 41 121 495 564 610>
LayerCount: 2
Fore
SplineSet
340 121 m 1
 340 495 l 1
 95 344 l 1
 340 121 l 1
137 -14 m 0
 137 34 176 66 229 66 c 0
 274 66 311 48 343 11 c 1
 343 41 l 1
 342 41 341 41 340 42 c 2
 30 328 l 2
 26 333 23 339 23 347 c 0
 23 359 28 370 37 380 c 1
 126 432 l 1
 74 455 39 489 22 534 c 0
 21 542 21 550 21 558 c 0
 21 606 44 638 91 657 c 0
 115 666 143 671 175 671 c 1
 187 668 193 659 193 646 c 0
 193 629 187 618 176 612 c 1
 111 612 79 595 79 562 c 0
 79 555 80 546 83 538 c 0
 106 499 141 480 186 480 c 0
 193 480 201 481 208 482 c 1
 340 564 l 1
 340 610 l 2
 340 652 361 673 402 673 c 2
 478 673 l 1
 478 610 l 1
 402 610 l 1
 402 125 l 1
 405 125 l 1
 405 -110 l 2
 405 -122 395 -128 375 -128 c 0
 354 -128 343 -121 343 -108 c 0
 343 -70 338 -44 327 -31 c 0
 298 3 269 20 239 20 c 0
 212 20 188 3 188 -26 c 0
 188 -46 200 -64 223 -80 c 0
 227 -83 229 -87 229 -94 c 0
 229 -112 222 -121 210 -121 c 0
 208 -121 207 -120 204 -119 c 0
 159 -95 137 -60 137 -14 c 0
EndSplineSet
Validated: 1
Ligature2: "'cjct' Conjunct Forms in Bengali2 lookup 13" u09a7 u09cd u09a8
EndChar

StartChar: u09a8_u09cd._u09a4.cjct
Encoding: 65674 -1 154
GlifName: u09a8_u09cd._u09a4.cjct
Width: 440
GlyphClass: 3
Flags: HW
HStem: 22 61<133.182 315.55> 291 60<256.934 303> 529 51<117.116 255.02> 610 63<-9 303 365 440>
VStem: 37 56<412.709 505.219> 179 58<189.65 214.553> 303 62<351 484.346 529 610> 367 62<130.491 271.331>
LayerCount: 2
Fore
SplineSet
303 437 m 1
 295 487 245 529 184 529 c 0
 151 529 123 517 102 493 c 0
 96 486 93 476 93 465 c 0
 93 433 116 401 146 391 c 1
 149 385 149 379 149 373 c 0
 149 353 142 343 125 343 c 1
 80 361 37 406 37 468 c 0
 37 494 45 515 60 531 c 0
 91 564 129 580 176 580 c 0
 226 580 268 563 303 529 c 1
 303 610 l 1
 -9 610 l 1
 -9 673 l 1
 440 673 l 1
 440 610 l 1
 365 610 l 1
 365 332 l 1
 400 308 429 256 429 195 c 0
 429 164 422 137 408 115 c 0
 369 53 311 22 236 22 c 0
 176 22 118 41 59 79 c 0
 0 117 -43 163 -71 220 c 1
 -71 240 -62 251 -42 251 c 0
 -35 251 -26 249 -18 245 c 1
 4 197 39 158 88 128 c 0
 136 98 184 83 232 83 c 0
 306 83 367 121 367 201 c 0
 367 247 351 277 320 291 c 1
 303 291 l 1
 303 293 l 1
 263 292 241 262 237 204 c 1
 233 193 225 188 213 188 c 0
 200 188 189 193 179 204 c 1
 179 208 179 211 179 215 c 0
 179 290 228 343 301 351 c 1
 303 351 l 1
 303 437 l 1
EndSplineSet
Validated: 1
Ligature2: "'cjct' Conjunct Forms in Bengali2 lookup 13" u09a8 u09cd u09a4
EndChar

StartChar: u09a8_u09cd_u09a4_u09b0.vatu
Encoding: 65675 -1 155
GlifName: u09a8_u09cd_u09a4_u09b0.vatu
Width: 445
GlyphClass: 3
Flags: HW
HStem: -4 55<86.7 133> 7 58<130.644 281.591> 307 57<237.911 305.808> 529 51<119.677 258.02> 610 63<-6 306 368 443>
VStem: 16 54<66.2997 184.505> 40 56<412.146 506.155> 147 65<155.032 278.974> 308 62<39 306.958 363 480.494 529 610>
LayerCount: 2
Fore
SplineSet
127 343 m 1x7b80
 82 361 40 406 40 468 c 0
 40 494 48 515 63 531 c 0
 94 564 132 580 179 580 c 0
 229 580 271 563 306 529 c 1
 306 610 l 1
 -6 610 l 1
 -6 673 l 1
 443 673 l 1
 443 610 l 1
 368 610 l 1
 368 312 l 1
 369 302 370 289 370 271 c 2
 370 -27 l 2
 370 -44 357 -52 333 -52 c 0
 321 -52 313 -49 308 -42 c 0
 282 -9 254 7 223 7 c 0x7b80
 220 7 198 5 156 -1 c 0
 143 -3 133 -4 128 -4 c 0
 79 -4 53 17 36 51 c 0
 23 77 16 107 16 140 c 0
 16 151 17 161 18 170 c 1
 27 181 37 186 47 186 c 0
 57 186 65 181 72 170 c 1
 71 160 70 149 70 139 c 0
 70 80 91 51 133 51 c 1xbd80
 133 51 202 65 228 65 c 0
 254 65 281 56 308 39 c 1
 308 268 l 2
 308 301 305 307 284 307 c 0
 258 307 238 292 223 263 c 1
 214 243 l 1
 209 228 208 213 208 198 c 0
 208 187 208 178 211 169 c 0
 212 168 212 166 212 165 c 0
 212 154 195 143 179 143 c 0
 169 143 163 147 160 154 c 0
 152 176 147 199 147 221 c 0
 147 303 202 364 285 364 c 0
 292 364 299 364 306 363 c 1
 306 437 l 1
 298 487 248 529 187 529 c 0
 154 529 125 517 104 493 c 0
 98 486 96 476 96 465 c 0
 96 433 119 401 148 391 c 1
 151 385 152 379 152 373 c 0
 152 353 144 343 127 343 c 1x7b80
EndSplineSet
Validated: 1
Ligature2: "'cjct' Conjunct Forms in Bengali2 lookup 13" u09a8 u09cd u09a4_u09b0_u09cd.blwf.vatu
EndChar

StartChar: u09a8_u09cd_u09a4_u09c1.blws
Encoding: 65676 -1 156
GlifName: u09a8_u09cd_u09a4_u09c1.blws
Width: 447
GlyphClass: 3
Flags: HW
HStem: -49 59<217.761 353.831> 276 57<238.462 303.726> 529 51<118.116 256.02> 610 63<-8 304 366 441>
VStem: -8 54<239.065 316.646> 38 56<412.146 505.219> 169 56<165.367 262.305> 304 62<332 484.346 529 610> 349 56<178.011 259.153> 369 56<26.7944 110.229>
LayerCount: 2
Fore
SplineSet
290 10 m 0xfa40
 329 10 369 28 369 66 c 0xfa40
 369 85 358 103 337 120 c 1
 321 128 313 138 313 151 c 0
 313 158 316 166 322 174 c 1
 340 186 349 200 349 217 c 0xf280
 349 235 340 251 323 263 c 1
 310 271 l 2
 302 275 293 276 284 276 c 0
 280 276 276 276 272 275 c 0
 240 264 225 245 225 218 c 0
 225 205 229 190 236 174 c 1
 235 157 226 148 208 148 c 0
 201 148 193 150 184 155 c 1
 174 176 169 198 169 219 c 0
 169 281 215 328 277 333 c 0
 286 333 296 333 304 332 c 1
 304 437 l 1
 296 487 246 529 185 529 c 0
 152 529 124 517 103 493 c 0
 97 486 94 476 94 465 c 0
 94 433 117 401 146 391 c 1
 149 385 150 379 150 373 c 0
 150 353 142 343 125 343 c 1
 80 361 38 406 38 468 c 0xf7
 38 494 46 515 61 531 c 0
 92 564 130 580 177 580 c 0
 227 580 269 563 304 529 c 1
 304 610 l 1
 -8 610 l 1
 -8 673 l 1
 441 673 l 1
 441 610 l 1
 366 610 l 1
 366 302 l 1xfb
 390 281 403 256 405 227 c 1
 405 220 l 2xf280
 405 198 398 176 384 155 c 1
 411 128 425 99 425 67 c 0
 425 -4 356 -49 280 -49 c 0
 123 -49 26 143 -8 295 c 1
 -7 310 2 317 20 317 c 0
 32 317 40 313 46 305 c 1
 77 184 164 10 290 10 c 0xfa40
EndSplineSet
Validated: 1
Ligature2: "'blws' Below Base Substitutions in Bengali lookup 10 subtable" u09a8_u09cd._u09a4.cjct u09c1
EndChar

StartChar: u09a8_u09cd_u09a5.cjct
Encoding: 65677 -1 157
GlifName: u09a8_u09cd_u09a5.cjct
Width: 443
GlyphClass: 3
Flags: HW
HStem: 290 56<162.428 304.845> 529 51<120.116 258.02> 610 63<-6 306 368 444>
VStem: 40 56<412.856 505.219> 69 56<186.509 253.4> 306 62<333 484.79 529 610> 336 56<131.843 266.143>
LayerCount: 2
Fore
SplineSet
306 437 m 1xec
 298 488 248 529 187 529 c 0
 154 529 126 517 105 493 c 0
 99 486 96 476 96 465 c 0
 96 434 120 401 149 391 c 1
 152 385 153 379 153 373 c 0
 153 353 145 343 128 343 c 1
 83 361 40 406 40 468 c 0
 40 494 48 515 63 531 c 0
 94 564 132 580 179 580 c 0
 229 580 271 563 306 529 c 1
 306 610 l 1
 -6 610 l 1
 -6 673 l 1
 444 673 l 1
 444 610 l 1
 368 610 l 1
 368 291 l 1xf4
 361 291 l 1
 382 265 392 232 392 192 c 0
 392 185 392 177 391 170 c 0
 375 115 353 80 324 62 c 0
 306 51 261 38 188 23 c 1
 426 -70 l 1
 427 -75 428 -79 428 -84 c 0
 428 -105 417 -117 398 -117 c 0
 397 -117 397 -117 396 -117 c 2
 88 25 l 1
 82 33 79 42 79 51 c 0
 79 70 88 79 104 79 c 0
 107 79 110 78 113 77 c 0
 129 75 145 74 161 74 c 0
 238 74 291 95 318 137 c 0
 330 156 336 179 336 206 c 0xe2
 336 262 303 290 237 290 c 0
 175 290 131 258 125 200 c 1
 119 191 110 186 97 186 c 0
 82 186 73 193 69 206 c 1
 70 264 102 306 163 331 c 0
 186 341 211 346 237 346 c 0
 262 346 285 342 306 333 c 1
 306 437 l 1xec
EndSplineSet
Validated: 1
Ligature2: "'cjct' Conjunct Forms in Bengali2 lookup 13" u09a8 u09cd u09a5
EndChar

StartChar: u09a8_u09cd_u09a6.cjct
Encoding: 65678 -1 158
GlifName: u09a8_u09cd_u09a6.cjct
Width: 667
GlyphClass: 3
Flags: HW
HStem: 39 21G<550.089 562.905> 478 54<110.941 240.654> 610 63<-6 259 321 666>
VStem: 28 54<340.185 449.101> 259 62<375 457.931 509 610> 481 58<134.204 395.955>
LayerCount: 2
Fore
SplineSet
120 270 m 1
 71 289 28 332 28 396 c 0
 28 425 38 453 58 480 c 0
 83 515 119 532 167 532 c 0
 201 532 232 524 259 509 c 1
 259 610 l 1
 -6 610 l 1
 -6 673 l 1
 666 673 l 1
 666 610 l 1
 321 610 l 1
 321 375 l 1
 336 394 363 417 401 445 c 0
 465 492 514 514 547 514 c 0
 550 514 553 513 556 513 c 0
 577 511 588 499 587 478 c 1
 555 389 539 316 539 258 c 0
 539 196 555 133 589 69 c 0
 589 67 589 66 589 64 c 0
 589 47 573 39 552 39 c 0
 548 39 544 39 539 40 c 1
 501 108 481 178 481 251 c 0
 481 306 493 370 515 443 c 1
 440 414 373 364 314 294 c 1
 306 289 297 287 287 287 c 0
 268 287 259 295 259 310 c 2
 259 438 l 1
 238 464 209 478 173 478 c 0
 142 478 115 467 97 441 c 0
 85 423 82 405 82 389 c 0
 82 355 103 332 144 317 c 1
 146 312 146 308 146 302 c 0
 146 288 137 270 120 270 c 1
EndSplineSet
Validated: 33
Ligature2: "'cjct' Conjunct Forms in Bengali2 lookup 13" u09a8 u09cd u09a6
EndChar

StartChar: u09a8_u09cd_u09a7.cjct
Encoding: 65679 -1 159
GlifName: u09a8_u09cd_u09a7.cjct
Width: 451
GlyphClass: 3
Flags: HW
HStem: 7 52<473.181 526.798> 299 57<370.546 435.5> 529 51<124.116 261.672> 610 63<0 310 372 448>
VStem: 44 56<413.315 505.219> 306 62<92 249 291 298.723 343 487.032 529 610> 419 52<137.665 298.887>
LayerCount: 2
Fore
SplineSet
132 343 m 1
 86 362 44 408 44 468 c 0
 44 494 52 515 67 531 c 0
 98 564 136 580 183 580 c 0
 233 580 275 563 310 529 c 1
 310 610 l 1
 0 610 l 1
 0 673 l 1
 448 673 l 1
 448 610 l 1
 372 610 l 1
 374 425 l 1
 370 343 l 1
 390 351 405 356 421 356 c 0
 450 356 466 341 470 312 c 0
 471 301 471 288 471 275 c 2
 471 139 l 2
 471 90 471 62 486 59 c 1
 516 59 l 1
 524 55 528 48 528 38 c 0
 528 28 524 18 515 8 c 1
 508 8 501 7 495 7 c 0
 477 7 463 10 455 14 c 0
 426 27 412 68 412 137 c 0
 412 151 416 177 416 213 c 0
 416 235 419 254 419 270 c 0
 419 273 419 277 419 280 c 0
 419 284 418 288 418 291 c 0
 418 296 411 299 396 299 c 0
 377 299 368 293 368 283 c 2
 368 40 l 2
 368 24 355 16 328 16 c 0
 318 16 311 18 306 21 c 2
 129 164 l 2
 116 174 110 185 110 195 c 0
 110 202 115 209 123 213 c 2
 308 312 l 1
 310 291 l 1
 310 319 311 346 311 371 c 0
 311 428 305 475 268 503 c 0
 245 520 219 529 191 529 c 0
 158 529 130 517 109 493 c 0
 103 486 100 476 100 465 c 0
 100 431 126 400 153 391 c 1
 156 385 157 379 157 373 c 0
 157 353 149 343 132 343 c 1
306 249 m 1
 190 184 l 1
 306 92 l 1
 306 249 l 1
EndSplineSet
Validated: 1
Ligature2: "'cjct' Conjunct Forms in Bengali2 lookup 13" u09a8 u09cd u09a7
EndChar

StartChar: u09a8_u09cd_u09a8.cjct
Encoding: 65680 -1 160
GlifName: u09a8_u09cd_u09a8.cjct
Width: 443
GlyphClass: 3
Flags: HW
HStem: 34 46<112.16 159.582> 257 53<115.231 240.663> 529 51<118.116 256.02> 610 63<-8 304 366 441>
VStem: 25 56<110.672 222.909> 38 56<412.146 505.219> 304 63<28.7427 199.543 224 484.346 529 610>
LayerCount: 2
Fore
SplineSet
304 437 m 1xfa
 296 487 246 529 185 529 c 0
 152 529 124 517 103 493 c 0
 97 486 94 476 94 465 c 0
 94 433 117 401 146 391 c 1
 149 385 150 379 150 373 c 0
 150 353 142 343 125 343 c 1
 80 361 38 406 38 468 c 0xf6
 38 494 46 515 61 531 c 0
 92 564 130 580 177 580 c 0
 227 580 269 563 304 529 c 1
 304 610 l 1
 -8 610 l 1
 -8 673 l 1
 441 673 l 1
 441 610 l 1
 366 610 l 1
 366 442 l 1
 367 443 l 1
 367 46 l 2
 367 34 356 28 333 28 c 0
 314 28 305 34 305 46 c 0
 305 99 305 128 304 135 c 0
 300 168 290 194 273 211 c 0
 242 242 210 257 177 257 c 0
 127 257 81 218 81 165 c 0
 81 127 104 99 150 80 c 0
 157 77 160 72 160 63 c 0
 160 44 153 34 138 34 c 0
 90 34 25 124 25 176 c 0
 25 197 31 219 43 240 c 0
 69 287 108 310 160 310 c 0
 203 310 242 294 275 262 c 2
 291 246 l 2
 297 239 301 231 305 224 c 1
 305 291 l 1
 304 291 l 1
 304 437 l 1xfa
EndSplineSet
Validated: 1
Ligature2: "'cjct' Conjunct Forms in Bengali2 lookup 13" u09a8 u09cd u09a8
EndChar

StartChar: u09a8_u09cd_u09ae.cjct
Encoding: 65681 -1 161
GlifName: u09a8_u09cd_u09ae.cjct
Width: 670
GlyphClass: 3
Flags: HW
HStem: 36 57<324.453 385.415> 245 62<370 438.578> 529 51<120.116 258.02> 610 63<-6 306 368 532 594 670>
VStem: 40 56<412.856 505.219> 239 66<112.368 227.798> 306 62<307 484.79 529 610> 532 62<44.7511 162.926 194 612>
LayerCount: 2
Fore
SplineSet
306 437 m 1
 298 488 248 529 187 529 c 0
 154 529 126 517 105 493 c 0
 99 486 96 476 96 465 c 0
 96 434 120 401 149 391 c 1
 152 385 153 379 153 373 c 0
 153 353 145 343 128 343 c 1
 83 361 40 406 40 468 c 0
 40 494 48 515 63 531 c 0
 94 564 132 580 179 580 c 0
 229 580 271 563 306 529 c 1
 306 610 l 1
 -6 610 l 1
 -6 673 l 1
 434 673 l 1
 434 675 l 1
 670 675 l 1
 670 612 l 1
 594 612 l 1
 594 62 l 2
 594 50 585 44 566 44 c 0
 543 44 532 50 532 63 c 2
 532 124 l 2
 532 140 515 162 480 193 c 0
 441 227 406 245 371 245 c 0
 330 245 305 214 305 168 c 0
 305 124 330 97 373 93 c 0
 382 92 386 84 386 68 c 0
 386 46 380 36 368 36 c 0
 367 36 367 36 366 36 c 0
 311 41 287 57 265 93 c 0
 245 125 239 159 239 188 c 0
 239 237 261 273 306 296 c 1
 306 437 l 1
444 612 m 1
 444 610 l 1
 368 610 l 1
 368 414 l 1
 369 412 370 409 370 406 c 2
 370 307 l 1
 417 307 459 288 495 249 c 0
 510 233 522 214 532 194 c 1
 532 612 l 1
 444 612 l 1
EndSplineSet
Validated: 1
Ligature2: "'cjct' Conjunct Forms in Bengali2 lookup 13" u09a8 u09cd u09ae
EndChar

StartChar: u09a8_u09cd_u09b8.cjct
Encoding: 65682 -1 162
GlifName: u09a8_u09cd_u09b8.cjct
Width: 648
GlyphClass: 3
Flags: HW
HStem: 80 51<94.6223 187.25> 347 59<116.502 224.72> 379 60<357.098 430.526> 610 63<-8 169 253 513 575 650>
VStem: 28 62<224.947 331.449> 513 62<37.5339 294.152 364 610>
LayerCount: 2
Fore
SplineSet
182 536 m 1xbc
 265 512 294 484 333 418 c 1
 350 432 368 439 388 439 c 0
 421 439 462 414 513 364 c 1
 513 610 l 1
 253 610 l 1
 182 536 l 1xbc
28 297 m 0
 28 368 86 406 163 406 c 0xdc
 218 406 261 383 292 337 c 1
 296 347 297 354 296 360 c 0
 296 361 295 363 295 364 c 0
 270 411 248 441 229 456 c 0
 206 473 171 482 126 482 c 1
 105 489 96 499 96 514 c 0
 96 521 99 529 106 538 c 2
 169 610 l 1
 -8 610 l 1
 -8 673 l 1
 650 673 l 1
 650 610 l 1
 575 610 l 1
 575 53 l 2
 575 42 564 37 543 37 c 0
 522 37 513 42 513 53 c 2
 513 162 l 2
 513 265 497 308 443 349 c 0
 415 369 397 379 387 379 c 0xbc
 376 379 365 372 357 358 c 1
 346 305 325 253 296 201 c 0
 251 120 201 80 146 80 c 0
 110 80 75 95 42 126 c 1
 40 131 40 135 40 139 c 0
 40 156 49 165 69 165 c 0
 73 165 78 165 81 164 c 0
 106 142 128 131 146 131 c 0
 164 131 182 143 200 166 c 0
 210 179 227 209 254 256 c 1
 247 317 218 347 165 347 c 0xdc
 153 347 139 346 126 342 c 1
 102 328 90 310 90 288 c 0
 90 272 96 254 109 233 c 1
 112 219 97 207 80 207 c 0
 73 207 66 208 59 211 c 1
 39 238 28 267 28 297 c 0
EndSplineSet
Validated: 33
Ligature2: "'cjct' Conjunct Forms in Bengali2 lookup 13" u09a8 u09cd u09b8
EndChar

StartChar: u09aa_u09cd_u09a4.cjct
Encoding: 65683 -1 163
GlifName: u09aa_u09cd_u09a4.cjct
Width: 755
GlyphClass: 3
Flags: HW
HStem: 31 61<373.938 551.433> 302 57<499.883 574.765> 602 61<271.859 421.188> 610 63<637 754>
VStem: 427 60<193.115 289.662> 575 62<355 451.797 506 610> 618 60<157.902 285.306>
LayerCount: 2
Fore
SplineSet
466 549 m 1xe8
 426 584 386 602 345 602 c 0
 304 602 266 584 231 547 c 1
 337 423 l 1
 466 549 l 1xe8
455 192 m 0
 431 192 427 217 427 238 c 0
 427 303 479 359 544 359 c 0
 554 359 565 358 575 355 c 1
 575 411 l 2
 575 424 559 448 527 482 c 2
 507 503 l 1
 505 504 l 1
 305 310 l 1
 287 310 263 325 263 345 c 0
 263 347 264 349 264 351 c 1
 294 380 l 1
 195 497 l 1
 184 481 177 469 174 461 c 1
 171 460 169 460 166 460 c 0
 146 460 130 476 125 495 c 1
 148 538 168 567 184 584 c 0
 206 608 237 631 280 650 c 0
 304 660 328 663 351 663 c 0xec
 435 663 509 611 575 506 c 1
 575 610 l 2
 575 647 598 673 637 673 c 2
 754 673 l 1
 754 610 l 1
 637 610 l 1
 637 342 l 1xdc
 664 311 678 273 678 226 c 0
 678 108 589 31 468 31 c 0
 466 31 465 31 463 31 c 0
 342 32 230 116 127 283 c 0
 87 349 49 425 14 513 c 1
 16 531 27 540 47 540 c 0
 55 540 62 538 69 534 c 1
 103 448 136 380 166 329 c 0
 208 257 256 199 310 154 c 0
 359 113 409 92 461 92 c 0
 522 92 566 112 593 152 c 0
 610 176 618 202 618 228 c 0xda
 618 263 605 286 579 296 c 1
 563 301 l 2
 557 302 552 302 547 302 c 0
 522 302 502 293 495 273 c 1
 490 256 l 1
 488 244 487 227 487 205 c 1
 477 196 467 192 455 192 c 0
EndSplineSet
Validated: 1
Ligature2: "'cjct' Conjunct Forms in Bengali2 lookup 13" u09aa u09cd u09a4
EndChar

StartChar: u09aa_u09cd_u09aa.cjct
Encoding: 65684 -1 164
GlifName: u09aa_u09cd_u09aa.cjct
Width: 563
GlyphClass: 3
Flags: HW
HStem: 292 59<161.249 305.001> 610 63<485 561> 618 50<162.158 297.524>
VStem: 423 64<18.5035 176.261 232 505.732 545 610>
LayerCount: 2
Fore
SplineSet
330 252 m 1x90
 301 279 267 292 232 292 c 0
 196 292 164 278 135 250 c 1
 223 146 l 1
 330 252 l 1x90
330 570 m 1
 298 602 264 618 228 618 c 0xb0
 192 618 160 602 131 569 c 1
 221 461 l 1
 330 570 l 1
423 610 m 2xd0
 423 642 450 673 485 673 c 2
 561 673 l 1
 561 610 l 1
 485 610 l 1xd0
 485 382 l 1
 487 382 l 1
 487 31 l 2
 487 22 476 18 453 18 c 0
 434 18 425 22 425 31 c 0
 425 83 423 115 420 128 c 0
 414 162 398 189 369 209 c 1
 188 35 l 1
 165 40 153 51 153 68 c 0
 153 72 153 75 154 78 c 1
 182 106 l 1
 101 200 l 1
 79 166 l 1
 76 165 72 164 69 164 c 0
 50 164 38 172 31 189 c 1
 82 297 147 351 225 351 c 0
 302 351 369 311 425 232 c 1
 425 297 l 1
 423 297 l 1
 423 442 l 2
 423 477 401 524 368 529 c 1
 189 353 l 2
 188 353 187 353 186 353 c 0
 170 353 150 374 152 392 c 1
 183 425 l 1
 98 524 l 1
 89 509 81 496 76 486 c 0
 73 483 69 481 64 481 c 0
 43 481 32 492 30 513 c 1
 82 616 150 668 235 668 c 0xb0
 268 668 296 661 319 646 c 0
 372 611 407 578 423 545 c 1
 423 610 l 2xd0
EndSplineSet
Validated: 33
Ligature2: "'cjct' Conjunct Forms in Bengali2 lookup 13" u09aa u09cd u09aa
EndChar

StartChar: u09aa_u09cd_u09ae.cjct
Encoding: 65685 -1 165
GlifName: u09aa_u09cd_u09ae.cjct
Width: 767
GlyphClass: 3
Flags: HW
HStem: 242 62<469 537.055> 610 63<469 629 691 767> 618 50<146.158 281.524>
VStem: 336 65<110.536 224.469> 407 62<304 505.213 545 610> 629 62<42.7511 160.631 192 610>
LayerCount: 2
Fore
SplineSet
314 570 m 1xbc
 282 602 248 618 212 618 c 0
 176 618 144 602 115 569 c 1
 206 461 l 1
 314 570 l 1xbc
469 304 m 1
 516 303 557 284 593 245 c 0
 608 229 620 211 629 192 c 1
 629 610 l 1
 469 610 l 1xdc
 469 304 l 1
407 610 m 2
 407 642 434 673 469 673 c 2
 767 673 l 1
 767 610 l 1
 691 610 l 1xdc
 691 60 l 2
 691 48 682 42 663 42 c 0
 640 42 629 48 629 61 c 2
 629 121 l 2
 629 137 612 160 577 191 c 0
 538 225 502 242 467 242 c 0
 426 242 401 211 401 166 c 0
 401 123 427 95 469 91 c 0
 478 90 483 82 483 66 c 0
 483 44 477 33 465 33 c 0
 464 33 464 33 463 33 c 0
 408 38 383 55 361 91 c 0
 341 123 336 157 336 186 c 0
 336 235 358 272 404 295 c 1
 404 406 l 2
 404 410 405 412 407 415 c 1
 407 442 l 2
 407 467 399 488 384 507 c 0
 375 519 365 527 353 529 c 1
 173 353 l 2
 172 353 171 353 170 353 c 0
 154 353 134 374 136 392 c 1
 167 425 l 1
 83 524 l 1
 74 509 66 496 61 486 c 0
 58 483 53 481 48 481 c 0
 27 481 16 492 14 513 c 1
 66 616 134 668 219 668 c 0xbc
 252 668 280 661 303 646 c 0
 356 611 391 578 407 545 c 1
 407 610 l 2
EndSplineSet
Validated: 33
Ligature2: "'cjct' Conjunct Forms in Bengali2 lookup 13" u09aa u09cd u09ae
EndChar

StartChar: u09aa_u09cd_u09a8.cjct
Encoding: 65686 -1 166
GlifName: u09aa_u09cd_u09a8.cjct
Width: 541
GlyphClass: 3
Flags: HW
HStem: 38 21G<419.5 440.5> 44 46<208.148 255.582> 267 53<213.365 336.663> 612 63<463 540> 621 49<141.025 275.242>
VStem: 121 56<120.672 232.196> 401 62<38.7427 208.573 234 509.133 547 612>
LayerCount: 2
Fore
SplineSet
309 572 m 1x2e
 277 604 243 621 207 621 c 0
 171 621 138 604 109 571 c 1
 200 463 l 1
 309 572 l 1x2e
234 44 m 0x66
 185 44 121 134 121 186 c 0
 121 207 127 229 139 250 c 0
 165 297 204 320 256 320 c 0
 299 320 338 304 371 272 c 1
 386 255 l 2
 392 248 397 241 401 234 c 1
 401 243 401 281 400 346 c 0
 400 373 400 396 401 414 c 1
 401 444 l 2
 401 479 380 526 347 531 c 1
 167 355 l 2
 166 355 165 355 164 355 c 0
 148 355 128 376 130 395 c 1
 162 427 l 1
 77 526 l 1
 68 511 60 498 55 488 c 0
 52 485 47 483 42 483 c 0
 21 483 10 495 8 516 c 1
 60 619 128 670 213 670 c 0x6e
 246 670 274 663 297 648 c 0
 350 613 385 580 401 547 c 1
 401 612 l 2
 401 645 427 675 463 675 c 2
 540 675 l 1
 540 612 l 1
 463 612 l 1
 463 427 463 241 463 56 c 0
 463 44 452 38 429 38 c 0xb6
 410 38 401 44 401 56 c 0
 401 109 401 138 400 145 c 0
 396 178 386 204 369 221 c 0
 338 252 306 267 273 267 c 0
 224 267 177 227 177 175 c 0
 177 137 200 109 246 90 c 0
 253 87 256 82 256 73 c 0
 256 54 249 44 234 44 c 0x66
EndSplineSet
Validated: 33
Ligature2: "'cjct' Conjunct Forms in Bengali2 lookup 13" u09aa u09cd u09a8
EndChar

StartChar: u09aa_u09cd_u09b2.cjct
Encoding: 65687 -1 167
GlifName: u09aa_u09cd_u09b2.cjct
Width: 537
GlyphClass: 3
Flags: HW
HStem: 53 56<93.8314 187.336> 243 62<274.063 352.023> 262 56<86.6819 197.575> 610 63<461 537> 618 50<138.158 273.524>
VStem: 10 54<133.361 239> 398 63<54.5208 180.705 229 416 417 507.133 545 610>
LayerCount: 2
Fore
SplineSet
306 570 m 1x8e
 274 602 240 618 204 618 c 0
 168 618 136 602 107 569 c 1
 197 461 l 1
 306 570 l 1x8e
151 53 m 0
 76 53 10 108 10 183 c 0
 10 253 70 316 138 318 c 0xa6
 175 318 210 303 243 272 c 1
 262 294 282 305 303 305 c 0
 339 305 371 280 398 229 c 1
 398 416 l 1
 399 417 l 1
 399 442 l 2
 399 477 377 524 344 529 c 1
 165 353 l 2
 164 353 163 353 162 353 c 0
 146 353 126 374 128 392 c 1
 159 425 l 1
 74 524 l 1
 65 509 57 496 52 486 c 0
 49 483 45 481 40 481 c 0
 19 481 8 492 6 513 c 1
 58 616 126 668 211 668 c 0xce
 244 668 272 661 295 646 c 0
 348 611 383 578 399 545 c 1
 399 610 l 2
 399 642 426 673 461 673 c 2
 537 673 l 1
 537 610 l 1
 461 610 l 1
 461 297 l 1
 460 297 l 1
 460 68 l 2
 460 59 450 54 429 54 c 0
 408 54 398 59 398 68 c 0
 398 114 390 154 372 189 c 0
 355 225 335 243 313 243 c 0xd6
 295 243 279 231 264 207 c 0
 259 200 253 197 244 197 c 0
 234 197 225 201 217 209 c 1
 204 244 179 262 140 262 c 0xa6
 113 262 92 251 77 228 c 0
 68 214 64 199 64 184 c 0
 64 161 75 139 93 127 c 0
 111 115 134 109 163 109 c 0
 165 109 168 109 170 109 c 2
 174 109 l 1
 183 105 188 97 188 84 c 0
 188 58 177 53 151 53 c 0
EndSplineSet
Validated: 33
Ligature2: "'cjct' Conjunct Forms in Bengali2 lookup 13" u09aa u09cd u09b2
EndChar

StartChar: u09ab_u09cd_u09b2.cjct
Encoding: 65688 -1 168
GlifName: u09ab_u09cd_u09b2.cjct
Width: 695
GlyphClass: 3
Flags: HW
HStem: -113 51<68.7827 155.736> 11 52<242.956 331.284> 24 52<63.3191 160.795> 233 59<500.282 518.499> 515 55<423 516.545> 610 63<-9 16 96 694>
VStem: 6 54<-50.3386 19.9876> 345 62<-76.6207 -1.83179 41 62> 361 62<121 515> 575 59<314.982 461.21>
LayerCount: 2
Fore
SplineSet
126 -113 m 0xbf40
 71 -113 6 -65 6 -11 c 0
 6 38 46 76 97 76 c 0xbf40
 140 76 176 59 204 26 c 1
 223 51 245 63 273 63 c 0
 295 63 320 56 345 41 c 1
 345 62 l 1xdf40
 57 297 l 1
 53 305 51 312 51 319 c 0
 51 328 55 338 63 347 c 1
 166 443 l 1
 16 610 l 1
 -9 610 l 1
 -9 673 l 1
 694 673 l 1
 694 610 l 1
 96 610 l 1
 227 463 l 1
 230 455 232 448 232 442 c 0
 232 432 228 425 221 418 c 2
 118 321 l 1
 361 121 l 1
 361 514 l 2
 361 551 372 570 393 570 c 0
 505 570 578 538 612 474 c 0
 627 446 634 417 634 387 c 0
 634 316 589 240 525 233 c 1
 508 235 499 246 499 267 c 0
 499 280 504 288 515 292 c 0
 516 292 518 292 519 292 c 0
 554 292 575 348 575 389 c 0
 575 472 513 515 423 515 c 1
 423 62 l 1xdec0
 425 49 418 41 407 38 c 1
 407 -62 l 1
 400 -72 390 -78 378 -78 c 0
 365 -78 354 -73 345 -62 c 1
 345 -16 325 11 283 11 c 0xdf40
 266 11 249 -1 232 -24 c 0
 226 -31 218 -34 209 -34 c 0
 198 -34 189 -29 181 -22 c 1
 169 1 139 24 102 24 c 0
 74 24 60 10 60 -19 c 0
 60 -51 97 -62 140 -62 c 1
 151 -66 156 -74 156 -86 c 0
 156 -106 146 -113 126 -113 c 0xbf40
EndSplineSet
Validated: 33
Ligature2: "'cjct' Conjunct Forms in Bengali2 lookup 13" u09ab u09cd u09b2
EndChar

StartChar: u09ae_u09cd_u09aa.cjct
Encoding: 65689 -1 169
GlifName: u09ae_u09cd_u09aa.cjct
Width: 1086
GlyphClass: 3
Flags: HW
HStem: 342 51<105.832 144.846> 356 67<285.207 396.825> 606 60<619.289 771.795> 610 63<-1 112.595 147 340.667 417 485 1012 1088>
VStem: 47 53<397.861 475.921> 120 47<531.282 608.307> 950 62<35.6394 417.506 502 610>
LayerCount: 2
Fore
SplineSet
829 542 m 1x2e
 784 585 739 606 694 606 c 0
 649 606 605 585 561 542 c 1
 683 398 l 1
 829 542 l 1x2e
411 492 m 0
 411 519 401 548 380 574 c 0
 365 592 351 601 341 606 c 0x6e
 334 609 320 610 300 610 c 2
 147 610 l 1
 160 591 167 569 167 544 c 0
 167 538 167 533 166 528 c 1
 185 520 211 501 246 470 c 0
 277 443 301 428 319 425 c 0
 326 424 333 423 340 423 c 0x5e
 387 423 411 446 411 492 c 0
141 483 m 0
 122 483 100 462 100 438 c 0
 100 421 106 409 118 400 c 0
 123 396 129 393 135 393 c 1
 142 381 146 371 146 363 c 0
 146 349 135 342 114 342 c 1
 69 365 47 399 47 446 c 0
 47 492 70 521 116 534 c 1
 119 541 120 549 120 557 c 0
 120 575 113 593 97 610 c 1
 -1 610 l 1
 -1 673 l 1
 485 673 l 1
 485 610 l 1
 417 610 l 1x9e
 445 594 467 555 475 511 c 1
 522 591 586 641 667 661 c 0
 682 664 696 666 711 666 c 0x2e
 799 666 879 611 950 502 c 1
 950 609 l 2
 950 641 977 673 1012 673 c 2
 1088 673 l 1
 1088 610 l 1
 1012 610 l 1x1e
 1012 55 l 2
 1012 42 1002 35 982 35 c 0
 961 35 950 41 950 54 c 2
 950 328 l 2
 950 359 942 390 926 422 c 0
 919 437 903 463 878 500 c 1
 649 276 l 1
 645 275 642 274 638 274 c 0
 620 274 606 286 606 306 c 0
 606 310 607 314 608 317 c 1
 648 358 l 1
 536 493 l 1
 506 443 l 1
 501 440 497 439 492 439 c 0
 485 439 480 441 475 444 c 1
 464 393 421 356 358 356 c 0
 329 356 299 367 268 389 c 0
 259 395 235 415 197 450 c 0
 173 472 154 483 141 483 c 0
EndSplineSet
Validated: 1
Ligature2: "'cjct' Conjunct Forms in Bengali2 lookup 13" u09ae u09cd u09aa
EndChar

StartChar: u09ae_u09cd_u09ab.cjct
Encoding: 65690 -1 170
GlifName: u09ae_u09cd_u09ab.cjct
Width: 937
GlyphClass: 3
Flags: HW
HStem: 228 54<734.702 783.866> 342 51<100.832 139.846> 356 67<281.871 401.304> 491 60<683 758.719> 610 63<-6 107.595 152 344.667 412 938>
VStem: 42 53<397.861 475.921> 115 57<531.282 608.307> 415 58<479 562.867> 621 62<119 490.359> 805 57<303.611 443.07>
LayerCount: 2
Fore
SplineSet
415 492 m 0xbfc0
 415 519 406 548 385 574 c 0
 370 592 355 601 345 606 c 0
 338 609 324 610 304 610 c 2
 152 610 l 1
 165 591 172 569 172 544 c 0
 172 538 171 533 170 528 c 1
 189 520 215 501 250 470 c 0
 281 443 305 428 323 425 c 0
 330 424 337 423 344 423 c 0
 391 423 415 446 415 492 c 0xbfc0
136 483 m 0
 117 483 95 462 95 438 c 0
 95 421 101 409 113 400 c 0
 118 396 124 393 130 393 c 1
 137 381 141 371 141 363 c 0
 141 349 130 342 109 342 c 1xdfc0
 64 365 42 399 42 446 c 0
 42 492 65 521 111 534 c 1
 114 541 115 549 115 557 c 0
 115 575 108 593 92 610 c 1
 -6 610 l 1
 -6 673 l 1
 938 673 l 1
 938 610 l 1
 412 610 l 1
 445 590 473 537 473 479 c 1
 540 417 l 1
 548 411 551 404 551 396 c 0
 551 391 549 386 544 381 c 2
 454 265 l 1
 621 119 l 1
 621 482 l 2
 621 528 635 551 663 551 c 0
 664 551 664 551 665 551 c 0
 724 550 767 537 797 513 c 0
 832 483 862 441 862 376 c 0
 862 304 830 243 771 229 c 0
 768 228 765 228 763 228 c 0
 745 228 732 244 732 266 c 0
 732 277 736 283 743 283 c 0
 746 282 748 282 751 282 c 0
 784 282 805 337 805 376 c 0
 805 395 800 412 793 427 c 0
 771 470 736 491 689 491 c 0
 688 491 687 491 686 491 c 2
 683 491 l 1
 683 65 l 2
 683 50 660 36 640 36 c 0
 631 36 625 38 621 42 c 2
 396 238 l 1
 395 244 395 250 395 255 c 0
 395 278 407 303 432 332 c 0
 464 369 481 392 486 402 c 1
 464 424 l 1
 449 387 406 356 353 356 c 0
 324 356 294 367 263 389 c 0
 254 395 230 415 192 450 c 0
 168 472 149 483 136 483 c 0
EndSplineSet
Validated: 1
Ligature2: "'cjct' Conjunct Forms in Bengali2 lookup 13" u09ae u09cd u09ab
EndChar

StartChar: u09ae_u09cd_u09ad.cjct
Encoding: 65691 -1 171
GlifName: u09ae_u09cd_u09ad.cjct
Width: 713
GlyphClass: 3
Flags: HW
HStem: 44 54<310.642 462.454> 265 57<335.251 432.372> 610 63<-6 236.469 284 552.465 610 710>
VStem: 30 57<401.059 508.25> 164 56<407.469 484.174> 247 55<547.281 598.716> 272 58<327.34 410.751> 553 57<186.629 335.679> 577 58<471.741 585.533>
LayerCount: 2
Fore
SplineSet
491 444 m 0xfc80
 539 444 577 479 577 530 c 0
 577 572 554 599 507 610 c 1
 284 610 l 1
 296 597 302 582 302 565 c 0
 302 560 301 554 300 547 c 1
 325 540 352 526 380 505 c 0
 423 472 445 454 449 452 c 0
 464 446 478 444 491 444 c 0xfc80
264 491 m 0
 263 491 l 0
 242 491 220 470 220 447 c 0
 220 435 226 427 237 423 c 1
 237 420 238 417 238 414 c 0
 238 404 235 395 230 386 c 2
 225 377 l 1
 218 373 l 1
 211 371 l 1
 180 390 164 415 164 449 c 0
 164 493 199 540 240 547 c 1
 245 552 247 557 247 563 c 0
 247 576 239 588 224 600 c 0
 217 605 212 609 206 610 c 1
 -6 610 l 1
 -6 673 l 1
 710 673 l 1
 710 610 l 1
 610 610 l 1xfd
 627 577 635 547 635 518 c 0xf880
 635 463 607 424 550 403 c 1
 590 363 610 316 610 263 c 0
 610 217 594 174 564 134 c 0
 518 74 459 44 384 44 c 0
 318 44 255 76 195 139 c 0
 103 236 48 354 30 491 c 1
 32 503 40 509 56 509 c 0
 69 509 79 505 87 497 c 1
 114 336 161 248 254 160 c 0
 299 119 343 98 384 98 c 0
 470 98 545 171 553 251 c 0
 553 256 553 260 553 265 c 0
 553 301 539 333 512 360 c 1
 477 297 433 265 381 265 c 0
 368 265 354 267 340 270 c 1
 295 293 272 324 272 365 c 0
 272 381 275 398 282 416 c 1
 292 421 302 424 311 424 c 0
 327 424 336 418 339 407 c 1
 333 393 330 380 330 368 c 0xfb
 330 337 346 322 377 322 c 0
 416 322 443 343 460 387 c 1
 439 390 407 410 361 447 c 0
 326 475 297 492 274 492 c 0
 271 492 267 492 264 491 c 0
EndSplineSet
Validated: 1
Ligature2: "'cjct' Conjunct Forms in Bengali2 lookup 13" u09ae u09cd u09ad
EndChar

